<svg version="1.1" xmlns="http://www.w3.org/2000/svg" xmlns:xlink="http://www.w3.org/1999/xlink" width="800" height="250" style="width: 800px; height: 250px;"><defs><clipPath id="QnJnNLmTbZHX"><path fill="none" stroke="none" d=" M 26 22 L 604 22 L 604 230 L 26 230 L 26 22 Z"/></clipPath><clipPath id="AsdKTgblSqQr"><path fill="none" stroke="none" d=" M 26 22 L 604 22 L 604 230 L 26 230 L 26 22 Z"/></clipPath><clipPath id="DxPCWxkDlMUZ"><path fill="none" stroke="none" d=" M 26 22 L 604 22 L 604 230 L 26 230 L 26 22 Z"/></clipPath><clipPath id="CHqKHTvGyFIe"><path fill="none" stroke="none" d=" M 26 22 L 604 22 L 604 230 L 26 230 L 26 22 Z"/></clipPath><clipPath id="eUnNeWJZKUGT"><path fill="none" stroke="none" d=" M 26 22 L 604 22 L 604 230 L 26 230 L 26 22 Z"/></clipPath><clipPath id="cLezNIZyNPzZ"><path fill="none" stroke="none" d=" M 26 22 L 604 22 L 604 230 L 26 230 L 26 22 Z"/></clipPath></defs><g><g/><g/><g/><g transform="scale(1,1) translate(0.5,0.5)"><rect fill="#FFFFFF" stroke="none" x="0" y="0" width="800" height="250"/><rect fill="#ffffff" stroke="none" x="0" y="0" width="800" height="250"/><rect fill="#FFFFFF" stroke="none" x="26" y="22" width="578" height="208"/><rect fill="#ffffff" stroke="none" x="26" y="22" width="578" height="208"/><g><rect fill="none" stroke="#e5e5e5" x="26" y="22" width="578" height="208" stroke-linejoin="bevel" stroke-miterlimit="10"/></g><g clip-path="url(#QnJnNLmTbZHX)"><g><g><path fill="none" stroke="#e5e5e5" paint-order="fill stroke markers" d=" M 52 230 L 52 22" stroke-linejoin="bevel" stroke-miterlimit="10"/><path fill="none" stroke="#e5e5e5" paint-order="fill stroke markers" d=" M 142 230 L 142 22" stroke-linejoin="bevel" stroke-miterlimit="10"/><path fill="none" stroke="#e5e5e5" paint-order="fill stroke markers" d=" M 226 230 L 226 22" stroke-linejoin="bevel" stroke-miterlimit="10"/><path fill="none" stroke="#e5e5e5" paint-order="fill stroke markers" d=" M 316 230 L 316 22" stroke-linejoin="bevel" stroke-miterlimit="10"/><path fill="none" stroke="#e5e5e5" paint-order="fill stroke markers" d=" M 404 230 L 404 22" stroke-linejoin="bevel" stroke-miterlimit="10"/><path fill="none" stroke="#e5e5e5" paint-order="fill stroke markers" d=" M 494 230 L 494 22" stroke-linejoin="bevel" stroke-miterlimit="10"/><path fill="none" stroke="#e5e5e5" paint-order="fill stroke markers" d=" M 581 230 L 581 22" stroke-linejoin="bevel" stroke-miterlimit="10"/></g></g></g><g clip-path="url(#AsdKTgblSqQr)"><g><g><path fill="none" stroke="#e5e5e5" paint-order="fill stroke markers" d=" M 26 221 L 604 221" stroke-linejoin="bevel" stroke-miterlimit="10"/><path fill="none" stroke="#e5e5e5" paint-order="fill stroke markers" d=" M 26 193 L 604 193" stroke-linejoin="bevel" stroke-miterlimit="10"/><path fill="none" stroke="#e5e5e5" paint-order="fill stroke markers" d=" M 26 166 L 604 166" stroke-linejoin="bevel" stroke-miterlimit="10"/><path fill="none" stroke="#e5e5e5" paint-order="fill stroke markers" d=" M 26 139 L 604 139" stroke-linejoin="bevel" stroke-miterlimit="10"/><path fill="none" stroke="#e5e5e5" paint-order="fill stroke markers" d=" M 26 111 L 604 111" stroke-linejoin="bevel" stroke-miterlimit="10"/><path fill="none" stroke="#e5e5e5" paint-order="fill stroke markers" d=" M 26 84 L 604 84" stroke-linejoin="bevel" stroke-miterlimit="10"/><path fill="none" stroke="#e5e5e5" paint-order="fill stroke markers" d=" M 26 57 L 604 57" stroke-linejoin="bevel" stroke-miterlimit="10"/><path fill="none" stroke="#e5e5e5" paint-order="fill stroke markers" d=" M 26 30 L 604 30" stroke-linejoin="bevel" stroke-miterlimit="10"/></g></g></g><g clip-path="url(#DxPCWxkDlMUZ)"><g><g><path fill="none" stroke="none"/><path fill="none" stroke="#2b83ba" paint-order="fill stroke markers" d=" M 52.272727272727934 220.54545454545453 L 55.1757910597662 220.54545454545453 L 58.07885484680446 220.54545454545453 L 60.98191863385 220.54545454545453 L 63.884982420888264 220.54545454545453 L 66.7880462079338 220.54545454545453 L 69.69110999497207 220.54545454545453 L 72.5941737820176 220.54545454545453 L 75.49723756905587 220.54545454545453 L 78.40030135610141 220.54545454545453 L 81.30336514313967 220.54545454545453 L 84.20642893018521 220.54545454545453 L 87.10949271722347 220.54545454545453 L 90.01255650426901 219.85281385281397 L 92.91562029130728 220.54545454545453 L 95.81868407835282 220.54545454545453 L 98.72174786539108 217.77489177489224 L 101.62481165243662 219.85281385281394 L 104.52787543947488 220.54545454545453 L 107.43093922651315 220.54545454545453 L 110.33400301355869 220.54545454545453 L 113.23706680059695 219.1601731601734 L 116.14013058764249 31.45454545454541 L 119.04319437468075 219.85281385281382 L 121.94625816172629 220.54545454545453 L 124.84932194876455 220.54545454545453 L 127.7523857358101 220.54545454545453 L 130.65544952284836 220.54545454545453 L 133.5585133098939 220.54545454545453 L 136.46157709693216 220.54545454545453 L 139.3646408839777 220.54545454545453 L 142.26770467101596 220.54545454545453 L 145.1707684580615 220.54545454545453 L 148.07383224509977 220.54545454545453 L 150.9768960321453 220.54545454545453 L 153.87995981918357 220.54545454545453 L 156.78302360622183 220.54545454545453 L 159.68608739326737 220.54545454545453 L 162.58915118030563 220.54545454545453 L 165.49221496735117 220.54545454545453 L 168.39527875438944 220.54545454545453 L 171.29834254143498 220.54545454545453 L 174.20140632847324 220.54545454545453 L 177.10447011551878 220.54545454545453 L 180.00753390255704 220.54545454545453 L 182.91059768960258 210.84848484848422 L 185.81366147664085 220.54545454545453 L 188.71672526368639 220.54545454545453 L 191.61978905072465 220.54545454545453 L 194.5228528377702 220.54545454545453 L 197.42591662480845 220.54545454545453 L 200.328980411854 220.54545454545453 L 203.23204419889225 220.54545454545453 L 206.13510798593052 219.85281385281397 L 209.03817177297606 220.54545454545453 L 211.94123556001432 220.54545454545453 L 214.84429934705986 220.54545454545453 L 217.74736313409812 220.54545454545453 L 220.65042692114366 220.54545454545453 L 223.55349070818193 220.54545454545453 L 226.45655449522746 220.54545454545453 L 229.35961828226573 220.54545454545453 L 232.26268206931127 220.54545454545453 L 235.16574585634953 219.85281385281397 L 238.06880964339507 220.54545454545453 L 240.97187343043333 220.54545454545453 L 243.87493721747887 220.54545454545453 L 246.77800100451714 220.54545454545453 L 249.68106479156268 220.54545454545453 L 252.58412857860094 220.54545454545453 L 255.4871923656392 220.54545454545453 L 258.39025615268474 220.54545454545453 L 261.293319939723 220.54545454545453 L 264.19638372676854 220.54545454545453 L 267.0994475138068 220.54545454545453 L 270.00251130085235 220.54545454545453 L 272.9055750878906 220.54545454545453 L 275.80863887493615 220.54545454545453 L 278.7117026619744 220.54545454545453 L 281.61476644901995 219.85281385281397 L 284.5178302360582 217.08225108225048 L 287.42089402310376 220.54545454545453 L 290.323957810142 220.54545454545453 L 293.22702159718756 220.54545454545453 L 296.1300853842258 220.54545454545453 L 299.03314917127136 220.54545454545453 L 301.9362129583096 220.54545454545453 L 304.8392767453479 220.54545454545453 L 307.7423405323934 220.54545454545453 L 310.6454043194317 220.54545454545453 L 313.54846810647723 220.54545454545453 L 316.4515318935155 220.54545454545453 L 319.35459568056103 220.54545454545453 L 322.2576594675993 217.77489177489224 L 325.16072325464484 219.85281385281397 L 328.0637870416831 220.54545454545453 L 330.96685082872864 220.54545454545453 L 333.8699146157669 220.54545454545453 L 336.77297840281244 220.54545454545453 L 339.6760421898507 220.54545454545453 L 342.57910597689624 220.54545454545453 L 345.4821697639345 220.54545454545453 L 348.38523355098005 220.54545454545453 L 351.2882973380183 220.54545454545453 L 354.1913611250566 220.54545454545453 L 357.0944249121021 220.54545454545453 L 359.9974886991404 220.54545454545453 L 362.9005524861859 220.54545454545453 L 365.8036162732242 220.54545454545453 L 368.7066800602697 220.54545454545453 L 371.609743847308 220.54545454545453 L 374.5128076343535 220.54545454545453 L 377.4158714213918 220.54545454545453 L 380.3189352084373 220.54545454545453 L 383.2219989954756 220.54545454545453 L 386.1250627825211 220.54545454545453 L 389.0281265695594 220.54545454545453 L 391.93119035660493 220.54545454545453 L 394.8342541436432 220.54545454545453 L 397.73731793068873 220.54545454545453 L 400.640381717727 220.54545454545453 L 403.54344550476526 220.54545454545453 L 406.4465092918108 203.22943722943978 L 409.34957307884906 220.54545454545453 L 412.2526368658946 220.54545454545453 L 415.15570065293286 220.54545454545453 L 418.0587644399784 220.54545454545453 L 420.96182822701667 220.54545454545453 L 423.8648920140622 220.54545454545453 L 426.76795580110047 220.54545454545453 L 429.671019588146 220.54545454545453 L 432.5740833751843 220.54545454545453 L 435.4771471622298 220.54545454545453 L 438.3802109492681 220.54545454545453 L 441.2832747363136 220.54545454545453 L 444.1863385233519 220.54545454545453 L 447.0894023103974 220.54545454545453 L 449.9924660974357 220.54545454545453 L 452.89552988447394 220.54545454545453 L 455.7985936715195 220.54545454545453 L 458.70165745855775 220.54545454545453 L 461.6047212456033 220.54545454545453 L 464.50778503264155 220.54545454545453 L 467.4108488196871 220.54545454545453 L 470.31391260672535 220.54545454545453 L 473.2169763937709 220.54545454545453 L 476.12004018080916 220.54545454545453 L 479.0231039678547 220.54545454545453 L 481.92616775489296 220.54545454545453 L 484.8292315419385 220.54545454545453 L 487.73229532897676 220.54545454545453 L 490.6353591160223 220.54545454545453 L 493.53842290306056 220.54545454545453 L 496.4414866901061 220.54545454545453 L 499.34455047714437 220.54545454545453 L 502.24761426418263 220.54545454545453 L 505.15067805122817 220.54545454545453 L 508.05374183826643 220.54545454545453 L 510.956805625312 220.54545454545453 L 513.8598694123502 220.54545454545453 L 516.7629331993958 220.54545454545453 L 519.665996986434 220.54545454545453 L 522.5690607734796 220.54545454545453 L 525.4721245605178 220.54545454545453 L 528.3751883475634 220.54545454545453 L 531.2782521346016 220.54545454545453 L 534.1813159216472 220.54545454545453 L 537.0843797086854 220.54545454545453 L 539.987443495731 220.54545454545453 L 542.8905072827692 220.54545454545453 L 545.7935710698148 220.54545454545453 L 548.696634856853 220.54545454545453 L 551.5996986438913 220.54545454545453 L 554.5027624309369 220.54545454545453 L 557.4058262179751 220.54545454545453 L 560.3088900050207 220.54545454545453 L 563.2119537920589 220.54545454545453 L 566.1150175791045 220.54545454545453 L 569.0180813661427 220.54545454545453 L 571.9211451531883 220.54545454545453 L 574.8242089402265 220.54545454545453 L 577.7272727272721 220.54545454545453" stroke-linejoin="bevel" stroke-miterlimit="10" stroke-width="2" stroke-opacity="0.8"/></g></g></g><g clip-path="url(#CHqKHTvGyFIe)"><g><g><path fill="none" stroke="none"/><path fill="none" stroke="#abdda4" paint-order="fill stroke markers" d=" M 52.272727272727934 220.54545454545453 L 55.1757910597662 206.69264069263858 L 58.07885484680446 220.54545454545453 L 60.98191863385 220.54545454545453 L 63.884982420888264 220.54545454545453 L 66.7880462079338 220.54545454545453 L 69.69110999497207 220.54545454545453 L 72.5941737820176 220.54545454545453 L 75.49723756905587 220.54545454545453 L 78.40030135610141 220.54545454545453 L 81.30336514313967 220.54545454545453 L 84.20642893018521 220.54545454545453 L 87.10949271722347 220.54545454545453 L 90.01255650426901 220.54545454545453 L 92.91562029130728 220.54545454545453 L 95.81868407835282 220.54545454545453 L 98.72174786539108 220.54545454545453 L 101.62481165243662 217.08225108225048 L 104.52787543947488 217.08225108225042 L 107.43093922651315 217.08225108225042 L 110.33400301355869 220.54545454545453 L 113.23706680059695 220.54545454545453 L 116.14013058764249 178.98701298701238 L 119.04319437468075 68.16450216449712 L 121.94625816172629 88.94372294371354 L 124.84932194876455 102.7965367965532 L 127.7523857358101 158.20779220780122 L 130.65544952284836 178.98701298700786 L 133.5585133098939 178.9870129870078 L 136.46157709693216 178.98701298700928 L 139.3646408839777 192.83982683982185 L 142.26770467101596 220.54545454545453 L 145.1707684580615 217.08225108225045 L 148.07383224509977 220.54545454545453 L 150.9768960321453 220.54545454545453 L 153.87995981918357 220.54545454545453 L 156.78302360622183 220.54545454545453 L 159.68608739326737 220.54545454545453 L 162.58915118030563 220.54545454545453 L 165.49221496735117 220.54545454545453 L 168.39527875438944 220.54545454545453 L 171.29834254143498 220.54545454545453 L 174.20140632847324 220.54545454545453 L 177.10447011551878 220.54545454545453 L 180.00753390255704 220.54545454545453 L 182.91059768960258 220.54545454545453 L 185.81366147664085 220.54545454545453 L 188.71672526368639 220.54545454545453 L 191.61978905072465 220.54545454545453 L 194.5228528377702 220.54545454545453 L 197.42591662480845 220.54545454545453 L 200.328980411854 220.54545454545453 L 203.23204419889225 220.54545454545453 L 206.13510798593052 220.54545454545453 L 209.03817177297606 220.54545454545453 L 211.94123556001432 220.54545454545453 L 214.84429934705986 220.54545454545453 L 217.74736313409812 220.54545454545453 L 220.65042692114366 220.54545454545453 L 223.55349070818193 220.54545454545453 L 226.45655449522746 220.54545454545453 L 229.35961828226573 220.54545454545453 L 232.26268206931127 220.54545454545453 L 235.16574585634953 220.54545454545453 L 238.06880964339507 220.54545454545453 L 240.97187343043333 220.54545454545453 L 243.87493721747887 220.54545454545453 L 246.77800100451714 220.54545454545453 L 249.68106479156268 220.54545454545453 L 252.58412857860094 220.54545454545453 L 255.4871923656392 220.54545454545453 L 258.39025615268474 220.54545454545453 L 261.293319939723 220.54545454545453 L 264.19638372676854 220.54545454545453 L 267.0994475138068 220.54545454545453 L 270.00251130085235 220.54545454545453 L 272.9055750878906 220.54545454545453 L 275.80863887493615 220.54545454545453 L 278.7117026619744 220.54545454545453 L 281.61476644901995 220.54545454545453 L 284.5178302360582 217.08225108225048 L 287.42089402310376 220.54545454545453 L 290.323957810142 220.54545454545453 L 293.22702159718756 220.54545454545453 L 296.1300853842258 220.54545454545453 L 299.03314917127136 220.54545454545453 L 301.9362129583096 220.54545454545453 L 304.8392767453479 220.54545454545453 L 307.7423405323934 220.54545454545453 L 310.6454043194317 220.54545454545453 L 313.54846810647723 220.54545454545453 L 316.4515318935155 220.54545454545453 L 319.35459568056103 220.54545454545453 L 322.2576594675993 217.08225108225042 L 325.16072325464484 220.54545454545453 L 328.0637870416831 220.54545454545453 L 330.96685082872864 220.54545454545453 L 333.8699146157669 220.54545454545453 L 336.77297840281244 220.54545454545453 L 339.6760421898507 220.54545454545453 L 342.57910597689624 220.54545454545453 L 345.4821697639345 220.54545454545453 L 348.38523355098005 220.54545454545453 L 351.2882973380183 220.54545454545453 L 354.1913611250566 220.54545454545453 L 357.0944249121021 220.54545454545453 L 359.9974886991404 220.54545454545453 L 362.9005524861859 220.54545454545453 L 365.8036162732242 220.54545454545453 L 368.7066800602697 220.54545454545453 L 371.609743847308 220.54545454545453 L 374.5128076343535 220.54545454545453 L 377.4158714213918 220.54545454545453 L 380.3189352084373 220.54545454545453 L 383.2219989954756 220.54545454545453 L 386.1250627825211 220.54545454545453 L 389.0281265695594 220.54545454545453 L 391.93119035660493 220.54545454545453 L 394.8342541436432 220.54545454545453 L 397.73731793068873 220.54545454545453 L 400.640381717727 220.54545454545453 L 403.54344550476526 220.54545454545453 L 406.4465092918108 213.6190476190464 L 409.34957307884906 220.54545454545453 L 412.2526368658946 220.54545454545453 L 415.15570065293286 220.54545454545453 L 418.0587644399784 220.54545454545453 L 420.96182822701667 220.54545454545453 L 423.8648920140622 220.54545454545453 L 426.76795580110047 220.54545454545453 L 429.671019588146 220.54545454545453 L 432.5740833751843 220.54545454545453 L 435.4771471622298 220.54545454545453 L 438.3802109492681 220.54545454545453 L 441.2832747363136 220.54545454545453 L 444.1863385233519 220.54545454545453 L 447.0894023103974 220.54545454545453 L 449.9924660974357 220.54545454545453 L 452.89552988447394 220.54545454545453 L 455.7985936715195 220.54545454545453 L 458.70165745855775 220.54545454545453 L 461.6047212456033 220.54545454545453 L 464.50778503264155 220.54545454545453 L 467.4108488196871 220.54545454545453 L 470.31391260672535 220.54545454545453 L 473.2169763937709 220.54545454545453 L 476.12004018080916 220.54545454545453 L 479.0231039678547 220.54545454545453 L 481.92616775489296 220.54545454545453 L 484.8292315419385 220.54545454545453 L 487.73229532897676 220.54545454545453 L 490.6353591160223 220.54545454545453 L 493.53842290306056 220.54545454545453 L 496.4414866901061 220.54545454545453 L 499.34455047714437 220.54545454545453 L 502.24761426418263 220.54545454545453 L 505.15067805122817 220.54545454545453 L 508.05374183826643 220.54545454545453 L 510.956805625312 220.54545454545453 L 513.8598694123502 220.54545454545453 L 516.7629331993958 220.54545454545453 L 519.665996986434 220.54545454545453 L 522.5690607734796 220.54545454545453 L 525.4721245605178 220.54545454545453 L 528.3751883475634 220.54545454545453 L 531.2782521346016 220.54545454545453 L 534.1813159216472 220.54545454545453 L 537.0843797086854 220.54545454545453 L 539.987443495731 220.54545454545453 L 542.8905072827692 220.54545454545453 L 545.7935710698148 220.54545454545453 L 548.696634856853 220.54545454545453 L 551.5996986438913 220.54545454545453 L 554.5027624309369 220.54545454545453 L 557.4058262179751 220.54545454545453 L 560.3088900050207 220.54545454545453 L 563.2119537920589 220.54545454545453 L 566.1150175791045 220.54545454545453 L 569.0180813661427 220.54545454545453 L 571.9211451531883 220.54545454545453 L 574.8242089402265 220.54545454545453 L 577.7272727272721 220.54545454545453" stroke-linejoin="bevel" stroke-miterlimit="10" stroke-width="2" stroke-opacity="0.8"/></g></g></g><g clip-path="url(#eUnNeWJZKUGT)"><g><g><path fill="none" stroke="none"/><path fill="none" stroke="#fdae61" paint-order="fill stroke markers" d=" M 52.272727272727934 220.54545454545453 L 55.1757910597662 220.47619047619045 L 58.07885484680446 220.54545454545453 L 60.98191863385 220.4069264069264 L 63.884982420888264 219.43722943722952 L 66.7880462079338 220.54545454545453 L 69.69110999497207 214.7965367965363 L 72.5941737820176 220.5108225108225 L 75.49723756905587 217.0822510822504 L 78.40030135610141 220.54545454545453 L 81.30336514313967 220.54545454545453 L 84.20642893018521 220.06060606060606 L 87.10949271722347 220.54545454545453 L 90.01255650426901 220.54545454545453 L 92.91562029130728 220.5108225108225 L 95.81868407835282 218.88311688311728 L 98.72174786539108 220.19913419913425 L 101.62481165243662 220.5108225108225 L 104.52787543947488 220.54545454545453 L 107.43093922651315 220.54545454545453 L 110.33400301355869 220.54545454545453 L 113.23706680059695 220.47619047619048 L 116.14013058764249 204.54545454545493 L 119.04319437468075 220.5108225108225 L 121.94625816172629 220.54545454545453 L 124.84932194876455 220.54545454545453 L 127.7523857358101 220.5108225108225 L 130.65544952284836 220.54545454545453 L 133.5585133098939 220.54545454545453 L 136.46157709693216 220.54545454545453 L 139.3646408839777 220.54545454545453 L 142.26770467101596 220.54545454545453 L 145.1707684580615 220.54545454545453 L 148.07383224509977 219.5757575757576 L 150.9768960321453 219.43722943722955 L 153.87995981918357 220.2683982683983 L 156.78302360622183 220.54545454545453 L 159.68608739326737 220.54545454545453 L 162.58915118030563 220.54545454545453 L 165.49221496735117 220.54545454545453 L 168.39527875438944 220.54545454545453 L 171.29834254143498 220.54545454545453 L 174.20140632847324 220.54545454545453 L 177.10447011551878 220.54545454545453 L 180.00753390255704 220.54545454545453 L 182.91059768960258 217.49783549783606 L 185.81366147664085 213.54978354978422 L 188.71672526368639 220.54545454545453 L 191.61978905072465 220.54545454545453 L 194.5228528377702 220.54545454545453 L 197.42591662480845 220.54545454545453 L 200.328980411854 220.33766233766238 L 203.23204419889225 220.54545454545453 L 206.13510798593052 218.46753246753264 L 209.03817177297606 212.09523809523873 L 211.94123556001432 220.4069264069264 L 214.84429934705986 220.54545454545453 L 217.74736313409812 220.54545454545453 L 220.65042692114366 220.54545454545453 L 223.55349070818193 220.19913419913425 L 226.45655449522746 220.54545454545453 L 229.35961828226573 215.48917748917796 L 232.26268206931127 220.54545454545453 L 235.16574585634953 219.92207792207802 L 238.06880964339507 216.32034632034663 L 240.97187343043333 220.26839826839827 L 243.87493721747887 220.54545454545453 L 246.77800100451714 220.54545454545453 L 249.68106479156268 220.54545454545453 L 252.58412857860094 220.54545454545453 L 255.4871923656392 220.54545454545453 L 258.39025615268474 220.5108225108225 L 261.293319939723 220.5108225108225 L 264.19638372676854 218.53679653679626 L 267.0994475138068 220.54545454545453 L 270.00251130085235 220.4069264069264 L 272.9055750878906 220.5108225108225 L 275.80863887493615 220.54545454545453 L 278.7117026619744 220.54545454545453 L 281.61476644901995 220.06060606060606 L 284.5178302360582 220.1298701298702 L 287.42089402310376 220.54545454545453 L 290.323957810142 220.54545454545453 L 293.22702159718756 220.54545454545453 L 296.1300853842258 220.2683982683983 L 299.03314917127136 220.54545454545453 L 301.9362129583096 220.54545454545453 L 304.8392767453479 217.91341991342023 L 307.7423405323934 220.54545454545453 L 310.6454043194317 220.54545454545453 L 313.54846810647723 220.54545454545453 L 316.4515318935155 220.54545454545453 L 319.35459568056103 220.5108225108225 L 322.2576594675993 219.78354978354992 L 325.16072325464484 217.29004329004363 L 328.0637870416831 220.47619047619048 L 330.96685082872864 217.77489177489227 L 333.8699146157669 217.1515151515152 L 336.77297840281244 220.54545454545453 L 339.6760421898507 220.54545454545453 L 342.57910597689624 220.54545454545453 L 345.4821697639345 220.54545454545453 L 348.38523355098005 220.54545454545453 L 351.2882973380183 220.54545454545453 L 354.1913611250566 220.54545454545453 L 357.0944249121021 220.54545454545453 L 359.9974886991404 220.54545454545453 L 362.9005524861859 220.54545454545453 L 365.8036162732242 220.54545454545453 L 368.7066800602697 220.54545454545453 L 371.609743847308 220.54545454545453 L 374.5128076343535 220.54545454545453 L 377.4158714213918 220.5108225108225 L 380.3189352084373 219.43722943722955 L 383.2219989954756 220.54545454545453 L 386.1250627825211 220.54545454545453 L 389.0281265695594 218.88311688311725 L 391.93119035660493 220.54545454545453 L 394.8342541436432 220.54545454545453 L 397.73731793068873 220.19913419913425 L 400.640381717727 220.54545454545453 L 403.54344550476526 220.54545454545453 L 406.4465092918108 216.87445887445904 L 409.34957307884906 220.54545454545453 L 412.2526368658946 220.54545454545453 L 415.15570065293286 220.54545454545453 L 418.0587644399784 214.24242424242482 L 420.96182822701667 215.97402597402552 L 423.8648920140622 220.54545454545453 L 426.76795580110047 220.54545454545453 L 429.671019588146 220.54545454545453 L 432.5740833751843 220.54545454545453 L 435.4771471622298 219.22943722943742 L 438.3802109492681 218.81385281385246 L 441.2832747363136 220.54545454545453 L 444.1863385233519 220.54545454545453 L 447.0894023103974 220.54545454545453 L 449.9924660974357 220.54545454545453 L 452.89552988447394 220.5108225108225 L 455.7985936715195 220.54545454545453 L 458.70165745855775 220.54545454545453 L 461.6047212456033 220.2683982683983 L 464.50778503264155 219.92207792207802 L 467.4108488196871 220.4069264069264 L 470.31391260672535 219.29870129870147 L 473.2169763937709 220.54545454545453 L 476.12004018080916 220.54545454545453 L 479.0231039678547 220.54545454545453 L 481.92616775489296 220.54545454545453 L 484.8292315419385 220.5108225108225 L 487.73229532897676 209.11688311688363 L 490.6353591160223 220.54545454545453 L 493.53842290306056 220.54545454545453 L 496.4414866901061 220.54545454545453 L 499.34455047714437 220.54545454545453 L 502.24761426418263 220.54545454545453 L 505.15067805122817 216.80519480519425 L 508.05374183826643 220.54545454545453 L 510.956805625312 220.54545454545453 L 513.8598694123502 220.19913419913425 L 516.7629331993958 220.5108225108225 L 519.665996986434 220.54545454545453 L 522.5690607734796 220.54545454545453 L 525.4721245605178 218.12121212121195 L 528.3751883475634 220.54545454545453 L 531.2782521346016 220.54545454545453 L 534.1813159216472 220.54545454545453 L 537.0843797086854 219.02164502164533 L 539.987443495731 220.54545454545453 L 542.8905072827692 220.54545454545453 L 545.7935710698148 220.54545454545453 L 548.696634856853 220.54545454545453 L 551.5996986438913 220.5108225108225 L 554.5027624309369 220.54545454545453 L 557.4058262179751 220.54545454545453 L 560.3088900050207 220.54545454545453 L 563.2119537920589 220.54545454545453 L 566.1150175791045 220.54545454545453 L 569.0180813661427 217.4285714285714 L 571.9211451531883 219.7142857142859 L 574.8242089402265 220.47619047619048 L 577.7272727272721 220.54545454545453" stroke-linejoin="bevel" stroke-miterlimit="10" stroke-width="2" stroke-opacity="0.8"/></g></g></g><g><g/><g><path fill="#ffffff" stroke="#e5e5e5" paint-order="fill stroke markers" d=" M 613.8203125 83 L 760.1796875 83 L 760.1796875 169 L 613.8203125 169 L 613.8203125 83 Z" fill-opacity="0.95" stroke-linejoin="bevel" stroke-miterlimit="10" stroke-opacity="0.5"/><text fill="#444444" stroke="none" font-family="helvetica" font-size="10pt" font-style="normal" font-weight="normal" text-decoration="normal" x="648.8203125" y="103" text-anchor="start" dominant-baseline="central">snow_fall</text><g><path fill="none" stroke="#2b83ba" paint-order="fill stroke markers" d=" M 623.8203125 103 L 643.8203125 103" stroke-linejoin="bevel" stroke-miterlimit="10" stroke-width="2" stroke-opacity="0.8"/></g><text fill="#444444" stroke="none" font-family="helvetica" font-size="10pt" font-style="normal" font-weight="normal" text-decoration="normal" x="648.8203125" y="126" text-anchor="start" dominant-baseline="central">snow_depth</text><g><path fill="none" stroke="#abdda4" paint-order="fill stroke markers" d=" M 623.8203125 126 L 643.8203125 126" stroke-linejoin="bevel" stroke-miterlimit="10" stroke-width="2" stroke-opacity="0.8"/></g><text fill="#444444" stroke="none" font-family="helvetica" font-size="10pt" font-style="normal" font-weight="normal" text-decoration="normal" x="648.8203125" y="149" text-anchor="start" dominant-baseline="central">precipitation</text><g><path fill="none" stroke="#fdae61" paint-order="fill stroke markers" d=" M 623.8203125 149 L 643.8203125 149" stroke-linejoin="bevel" stroke-miterlimit="10" stroke-width="2" stroke-opacity="0.8"/></g></g></g><g><g fill="#444444"><path fill="" stroke="none" d=""/><g transform="translate(26,17)"><path fill="none" stroke="none"/><text fill="" stroke="none" font-family="helvetica" font-size="10pt" font-style="normal" font-weight="bold" text-decoration="normal" x="0" y="0" text-anchor="start" dominant-baseline="text-after-edge">Precipitazioni atmosferiche</text></g></g></g><g/><g><g fill="#444444"><path fill="none" stroke="black" paint-order="fill stroke markers" d=" M 26 230 L 604 230" stroke-linejoin="bevel" stroke-miterlimit="10"/><path fill="none" stroke="black" paint-order="fill stroke markers" d=" M 52 236 L 52 228" stroke-linejoin="bevel" stroke-miterlimit="10"/><path fill="none" stroke="black" paint-order="fill stroke markers" d=" M 142 236 L 142 228" stroke-linejoin="bevel" stroke-miterlimit="10"/><path fill="none" stroke="black" paint-order="fill stroke markers" d=" M 226 236 L 226 228" stroke-linejoin="bevel" stroke-miterlimit="10"/><path fill="none" stroke="black" paint-order="fill stroke markers" d=" M 316 236 L 316 228" stroke-linejoin="bevel" stroke-miterlimit="10"/><path fill="none" stroke="black" paint-order="fill stroke markers" d=" M 404 236 L 404 228" stroke-linejoin="bevel" stroke-miterlimit="10"/><path fill="none" stroke="black" paint-order="fill stroke markers" d=" M 494 236 L 494 228" stroke-linejoin="bevel" stroke-miterlimit="10"/><path fill="" stroke="black" paint-order="fill stroke markers" d=" M 581 236 L 581 228" stroke-linejoin="bevel" stroke-miterlimit="10"/><g transform="translate(52,241) rotate(0,0,0)"><text fill="" stroke="none" font-family="helvetica" font-size="8pt" font-style="normal" font-weight="normal" text-decoration="normal" x="0" y="0" text-anchor="middle" dominant-baseline="hanging">1/2016</text><g transform="rotate(0,0,0) translate(-52,-241) translate(142,241) rotate(0,0,0)"><text fill="" stroke="none" font-family="helvetica" font-size="8pt" font-style="normal" font-weight="normal" text-decoration="normal" x="0" y="0" text-anchor="middle" dominant-baseline="hanging">2/2016</text><g transform="rotate(0,0,0) translate(-142,-241) translate(226,241) rotate(0,0,0)"><text fill="" stroke="none" font-family="helvetica" font-size="8pt" font-style="normal" font-weight="normal" text-decoration="normal" x="0" y="0" text-anchor="middle" dominant-baseline="hanging">3/2016</text><g transform="rotate(0,0,0) translate(-226,-241) translate(316,241) rotate(0,0,0)"><text fill="" stroke="none" font-family="helvetica" font-size="8pt" font-style="normal" font-weight="normal" text-decoration="normal" x="0" y="0" text-anchor="middle" dominant-baseline="hanging">4/2016</text><g transform="rotate(0,0,0) translate(-316,-241) translate(404,241) rotate(0,0,0)"><text fill="" stroke="none" font-family="helvetica" font-size="8pt" font-style="normal" font-weight="normal" text-decoration="normal" x="0" y="0" text-anchor="middle" dominant-baseline="hanging">5/2016</text><g transform="rotate(0,0,0) translate(-404,-241) translate(494,241) rotate(0,0,0)"><text fill="" stroke="none" font-family="helvetica" font-size="8pt" font-style="normal" font-weight="normal" text-decoration="normal" x="0" y="0" text-anchor="middle" dominant-baseline="hanging">6/2016</text><g transform="rotate(0,0,0) translate(-494,-241) translate(581,241) rotate(0,0,0)"><text fill="" stroke="none" font-family="helvetica" font-size="8pt" font-style="normal" font-weight="normal" text-decoration="normal" x="0" y="0" text-anchor="middle" dominant-baseline="hanging">7/2016</text><g transform="rotate(0,0,0) translate(-581,-241)"/></g></g></g></g></g></g></g></g></g><g><g fill="#444444"><path fill="none" stroke="black" paint-order="fill stroke markers" d=" M 26 230 L 26 22" stroke-linejoin="bevel" stroke-miterlimit="10"/><path fill="none" stroke="black" paint-order="fill stroke markers" d=" M 20 221 L 28 221" stroke-linejoin="bevel" stroke-miterlimit="10"/><path fill="none" stroke="black" paint-order="fill stroke markers" d=" M 20 193 L 28 193" stroke-linejoin="bevel" stroke-miterlimit="10"/><path fill="none" stroke="black" paint-order="fill stroke markers" d=" M 20 166 L 28 166" stroke-linejoin="bevel" stroke-miterlimit="10"/><path fill="none" stroke="black" paint-order="fill stroke markers" d=" M 20 139 L 28 139" stroke-linejoin="bevel" stroke-miterlimit="10"/><path fill="none" stroke="black" paint-order="fill stroke markers" d=" M 20 111 L 28 111" stroke-linejoin="bevel" stroke-miterlimit="10"/><path fill="none" stroke="black" paint-order="fill stroke markers" d=" M 20 84 L 28 84" stroke-linejoin="bevel" stroke-miterlimit="10"/><path fill="none" stroke="black" paint-order="fill stroke markers" d=" M 20 57 L 28 57" stroke-linejoin="bevel" stroke-miterlimit="10"/><path fill="none" stroke="black" paint-order="fill stroke markers" d=" M 20 30 L 28 30" stroke-linejoin="bevel" stroke-miterlimit="10"/><path fill="none" stroke="black" paint-order="fill stroke markers" d=" M 22 226 L 26 226" stroke-linejoin="bevel" stroke-miterlimit="10"/><path fill="none" stroke="black" paint-order="fill stroke markers" d=" M 22 221 L 26 221" stroke-linejoin="bevel" stroke-miterlimit="10"/><path fill="none" stroke="black" paint-order="fill stroke markers" d=" M 22 215 L 26 215" stroke-linejoin="bevel" stroke-miterlimit="10"/><path fill="none" stroke="black" paint-order="fill stroke markers" d=" M 22 210 L 26 210" stroke-linejoin="bevel" stroke-miterlimit="10"/><path fill="none" stroke="black" paint-order="fill stroke markers" d=" M 22 204 L 26 204" stroke-linejoin="bevel" stroke-miterlimit="10"/><path fill="none" stroke="black" paint-order="fill stroke markers" d=" M 22 199 L 26 199" stroke-linejoin="bevel" stroke-miterlimit="10"/><path fill="none" stroke="black" paint-order="fill stroke markers" d=" M 22 193 L 26 193" stroke-linejoin="bevel" stroke-miterlimit="10"/><path fill="none" stroke="black" paint-order="fill stroke markers" d=" M 22 188 L 26 188" stroke-linejoin="bevel" stroke-miterlimit="10"/><path fill="none" stroke="black" paint-order="fill stroke markers" d=" M 22 182 L 26 182" stroke-linejoin="bevel" stroke-miterlimit="10"/><path fill="none" stroke="black" paint-order="fill stroke markers" d=" M 22 177 L 26 177" stroke-linejoin="bevel" stroke-miterlimit="10"/><path fill="none" stroke="black" paint-order="fill stroke markers" d=" M 22 171 L 26 171" stroke-linejoin="bevel" stroke-miterlimit="10"/><path fill="none" stroke="black" paint-order="fill stroke markers" d=" M 22 166 L 26 166" stroke-linejoin="bevel" stroke-miterlimit="10"/><path fill="none" stroke="black" paint-order="fill stroke markers" d=" M 22 161 L 26 161" stroke-linejoin="bevel" stroke-miterlimit="10"/><path fill="none" stroke="black" paint-order="fill stroke markers" d=" M 22 155 L 26 155" stroke-linejoin="bevel" stroke-miterlimit="10"/><path fill="none" stroke="black" paint-order="fill stroke markers" d=" M 22 150 L 26 150" stroke-linejoin="bevel" stroke-miterlimit="10"/><path fill="none" stroke="black" paint-order="fill stroke markers" d=" M 22 144 L 26 144" stroke-linejoin="bevel" stroke-miterlimit="10"/><path fill="none" stroke="black" paint-order="fill stroke markers" d=" M 22 139 L 26 139" stroke-linejoin="bevel" stroke-miterlimit="10"/><path fill="none" stroke="black" paint-order="fill stroke markers" d=" M 22 133 L 26 133" stroke-linejoin="bevel" stroke-miterlimit="10"/><path fill="none" stroke="black" paint-order="fill stroke markers" d=" M 22 128 L 26 128" stroke-linejoin="bevel" stroke-miterlimit="10"/><path fill="none" stroke="black" paint-order="fill stroke markers" d=" M 22 122 L 26 122" stroke-linejoin="bevel" stroke-miterlimit="10"/><path fill="none" stroke="black" paint-order="fill stroke markers" d=" M 22 117 L 26 117" stroke-linejoin="bevel" stroke-miterlimit="10"/><path fill="none" stroke="black" paint-order="fill stroke markers" d=" M 22 111 L 26 111" stroke-linejoin="bevel" stroke-miterlimit="10"/><path fill="none" stroke="black" paint-order="fill stroke markers" d=" M 22 106 L 26 106" stroke-linejoin="bevel" stroke-miterlimit="10"/><path fill="none" stroke="black" paint-order="fill stroke markers" d=" M 22 101 L 26 101" stroke-linejoin="bevel" stroke-miterlimit="10"/><path fill="none" stroke="black" paint-order="fill stroke markers" d=" M 22 95 L 26 95" stroke-linejoin="bevel" stroke-miterlimit="10"/><path fill="none" stroke="black" paint-order="fill stroke markers" d=" M 22 90 L 26 90" stroke-linejoin="bevel" stroke-miterlimit="10"/><path fill="none" stroke="black" paint-order="fill stroke markers" d=" M 22 84 L 26 84" stroke-linejoin="bevel" stroke-miterlimit="10"/><path fill="none" stroke="black" paint-order="fill stroke markers" d=" M 22 79 L 26 79" stroke-linejoin="bevel" stroke-miterlimit="10"/><path fill="none" stroke="black" paint-order="fill stroke markers" d=" M 22 73 L 26 73" stroke-linejoin="bevel" stroke-miterlimit="10"/><path fill="none" stroke="black" paint-order="fill stroke markers" d=" M 22 68 L 26 68" stroke-linejoin="bevel" stroke-miterlimit="10"/><path fill="none" stroke="black" paint-order="fill stroke markers" d=" M 22 62 L 26 62" stroke-linejoin="bevel" stroke-miterlimit="10"/><path fill="none" stroke="black" paint-order="fill stroke markers" d=" M 22 57 L 26 57" stroke-linejoin="bevel" stroke-miterlimit="10"/><path fill="none" stroke="black" paint-order="fill stroke markers" d=" M 22 51 L 26 51" stroke-linejoin="bevel" stroke-miterlimit="10"/><path fill="none" stroke="black" paint-order="fill stroke markers" d=" M 22 46 L 26 46" stroke-linejoin="bevel" stroke-miterlimit="10"/><path fill="none" stroke="black" paint-order="fill stroke markers" d=" M 22 41 L 26 41" stroke-linejoin="bevel" stroke-miterlimit="10"/><path fill="none" stroke="black" paint-order="fill stroke markers" d=" M 22 35 L 26 35" stroke-linejoin="bevel" stroke-miterlimit="10"/><path fill="none" stroke="black" paint-order="fill stroke markers" d=" M 22 30 L 26 30" stroke-linejoin="bevel" stroke-miterlimit="10"/><path fill="" stroke="black" paint-order="fill stroke markers" d=" M 22 24 L 26 24" stroke-linejoin="bevel" stroke-miterlimit="10"/><g transform="translate(15,221) rotate(0,0,0)"><text fill="" stroke="none" font-family="helvetica" font-size="8pt" font-style="normal" font-weight="normal" text-decoration="normal" x="0" y="0" text-anchor="end" dominant-baseline="central">0</text><g transform="rotate(0,0,0) translate(-15,-221) translate(15,193) rotate(0,0,0)"><text fill="" stroke="none" font-family="helvetica" font-size="8pt" font-style="normal" font-weight="normal" text-decoration="normal" x="0" y="0" text-anchor="end" dominant-baseline="central">10</text><g transform="rotate(0,0,0) translate(-15,-193) translate(15,166) rotate(0,0,0)"><text fill="" stroke="none" font-family="helvetica" font-size="8pt" font-style="normal" font-weight="normal" text-decoration="normal" x="0" y="0" text-anchor="end" dominant-baseline="central">20</text><g transform="rotate(0,0,0) translate(-15,-166) translate(15,139) rotate(0,0,0)"><text fill="" stroke="none" font-family="helvetica" font-size="8pt" font-style="normal" font-weight="normal" text-decoration="normal" x="0" y="0" text-anchor="end" dominant-baseline="central">30</text><g transform="rotate(0,0,0) translate(-15,-139) translate(15,111) rotate(0,0,0)"><text fill="" stroke="none" font-family="helvetica" font-size="8pt" font-style="normal" font-weight="normal" text-decoration="normal" x="0" y="0" text-anchor="end" dominant-baseline="central">40</text><g transform="rotate(0,0,0) translate(-15,-111) translate(15,84) rotate(0,0,0)"><text fill="" stroke="none" font-family="helvetica" font-size="8pt" font-style="normal" font-weight="normal" text-decoration="normal" x="0" y="0" text-anchor="end" dominant-baseline="central">50</text><g transform="rotate(0,0,0) translate(-15,-84) translate(15,57) rotate(0,0,0)"><text fill="" stroke="none" font-family="helvetica" font-size="8pt" font-style="normal" font-weight="normal" text-decoration="normal" x="0" y="0" text-anchor="end" dominant-baseline="central">60</text><g transform="rotate(0,0,0) translate(-15,-57) translate(15,30) rotate(0,0,0)"><text fill="" stroke="none" font-family="helvetica" font-size="8pt" font-style="normal" font-weight="normal" text-decoration="normal" x="0" y="0" text-anchor="end" dominant-baseline="central">70</text><g transform="rotate(0,0,0) translate(-15,-30)"/></g></g></g></g></g></g></g></g></g></g><g clip-path="url(#cLezNIZyNPzZ)"><g/></g></g></g></svg>