<svg version="1.1" xmlns="http://www.w3.org/2000/svg" xmlns:xlink="http://www.w3.org/1999/xlink" width="800" height="250" style="width: 800px; height: 250px;"><defs><clipPath id="vcsVvNTOSGKC"><path fill="none" stroke="none" d=" M 56 30 L 673 30 L 673 213 L 56 213 L 56 30 Z"/></clipPath><clipPath id="hItlaTVMWdwR"><path fill="none" stroke="none" d=" M 56 30 L 673 30 L 673 213 L 56 213 L 56 30 Z"/></clipPath><clipPath id="sEBZfzIwtSEX"><path fill="none" stroke="none" d=" M 56 30 L 673 30 L 673 213 L 56 213 L 56 30 Z"/></clipPath><clipPath id="lhkrhRXSzPzW"><path fill="none" stroke="none" d=" M 56 30 L 673 30 L 673 213 L 56 213 L 56 30 Z"/></clipPath><clipPath id="JmXlMelNyNQq"><path fill="none" stroke="none" d=" M 56 30 L 673 30 L 673 213 L 56 213 L 56 30 Z"/></clipPath></defs><g><g/><g/><g/><g transform="scale(1,1) translate(0.5,0.5)"><rect fill="#FFFFFF" stroke="none" x="0" y="0" width="800" height="250"/><rect fill="#ffffff" stroke="none" x="0" y="0" width="800" height="250"/><rect fill="#FFFFFF" stroke="none" x="56" y="30" width="617" height="183"/><rect fill="#ffffff" stroke="none" x="56" y="30" width="617" height="183"/><g><rect fill="none" stroke="#e5e5e5" x="56" y="30" width="617" height="183" stroke-linejoin="bevel" stroke-miterlimit="10"/></g><g clip-path="url(#vcsVvNTOSGKC)"><g><g><path fill="none" stroke="#e5e5e5" paint-order="fill stroke markers" d=" M 84 213 L 84 30" stroke-linejoin="bevel" stroke-miterlimit="10"/><path fill="none" stroke="#e5e5e5" paint-order="fill stroke markers" d=" M 180 213 L 180 30" stroke-linejoin="bevel" stroke-miterlimit="10"/><path fill="none" stroke="#e5e5e5" paint-order="fill stroke markers" d=" M 270 213 L 270 30" stroke-linejoin="bevel" stroke-miterlimit="10"/><path fill="none" stroke="#e5e5e5" paint-order="fill stroke markers" d=" M 366 213 L 366 30" stroke-linejoin="bevel" stroke-miterlimit="10"/><path fill="none" stroke="#e5e5e5" paint-order="fill stroke markers" d=" M 459 213 L 459 30" stroke-linejoin="bevel" stroke-miterlimit="10"/><path fill="none" stroke="#e5e5e5" paint-order="fill stroke markers" d=" M 555 213 L 555 30" stroke-linejoin="bevel" stroke-miterlimit="10"/><path fill="none" stroke="#e5e5e5" paint-order="fill stroke markers" d=" M 648 213 L 648 30" stroke-linejoin="bevel" stroke-miterlimit="10"/></g></g></g><g clip-path="url(#hItlaTVMWdwR)"><g><g><path fill="none" stroke="#e5e5e5" paint-order="fill stroke markers" d=" M 56 190 L 673 190" stroke-linejoin="bevel" stroke-miterlimit="10"/><path fill="none" stroke="#e5e5e5" paint-order="fill stroke markers" d=" M 56 166 L 673 166" stroke-linejoin="bevel" stroke-miterlimit="10"/><path fill="none" stroke="#e5e5e5" paint-order="fill stroke markers" d=" M 56 141 L 673 141" stroke-linejoin="bevel" stroke-miterlimit="10"/><path fill="none" stroke="#e5e5e5" paint-order="fill stroke markers" d=" M 56 116 L 673 116" stroke-linejoin="bevel" stroke-miterlimit="10"/><path fill="none" stroke="#e5e5e5" paint-order="fill stroke markers" d=" M 56 91 L 673 91" stroke-linejoin="bevel" stroke-miterlimit="10"/><path fill="none" stroke="#e5e5e5" paint-order="fill stroke markers" d=" M 56 66 L 673 66" stroke-linejoin="bevel" stroke-miterlimit="10"/><path fill="none" stroke="#e5e5e5" paint-order="fill stroke markers" d=" M 56 41 L 673 41" stroke-linejoin="bevel" stroke-miterlimit="10"/></g></g></g><g clip-path="url(#sEBZfzIwtSEX)"><g><g><path fill="none" stroke="none"/><path fill="none" stroke="#2b83ba" paint-order="fill stroke markers" d=" M 84.04545454545587 200.54395684589974 L 87.14439979910094 201.84972523967446 L 90.24334505273873 200.64382102230473 L 93.34229030637653 201.65292054869082 L 96.4412355600216 42.8303586717206 L 99.54018081365939 197.8519878296816 L 102.63912606730446 193.71101043838092 L 105.73807132094225 195.52841157660822 L 108.83701657458732 201.7839964390925 L 111.93596182822512 203.8145678885321 L 115.03490708187019 196.15025980558428 L 118.13385233550798 196.81155445925205 L 121.23279758915305 196.33457613633936 L 124.33174284279085 191.3356229937678 L 127.43068809643592 188.9677060202653 L 130.5296333500737 201.50599586624455 L 133.62857860371878 202.43553760238788 L 136.72752385735657 204.6818181818182 L 139.82646911100164 189.02222492095802 L 142.92541436463944 188.83898205281668 L 146.0243596182845 184.95793848590625 L 149.1233048719223 189.95148463631995 L 152.22225012556737 188.57732198812613 L 155.32119537920516 197.47087089530027 L 158.42014063285023 164.49089206267908 L 161.51908588648803 159.41979350968296 L 164.6180311401331 174.4012072350841 L 167.7169763937709 177.50063786574196 L 170.81592164741596 184.11826352680566 L 173.91486690105376 193.7575793259585 L 177.01381215469883 196.54667008490821 L 180.11275740833662 189.63599188821192 L 183.2117026619817 190.40387161202926 L 186.31064791561948 183.31738925621954 L 189.40959316926455 184.69996122772355 L 192.50853842290235 195.1713319395027 L 195.60748367654742 199.27025995157499 L 198.7064289301852 204.05213335942656 L 201.80537418383028 200.13042154579404 L 204.90431943746808 193.31307701832603 L 208.00326469111315 192.9107985722668 L 211.10220994475094 187.30322265970153 L 214.201155198396 182.550739693604 L 217.3001004520338 38.31818181818181 L 220.39904570567887 200.51963008600768 L 223.49799095931667 203.96675554921262 L 226.59693621296174 185.17158183885692 L 229.69588146659953 187.20127407939435 L 232.7948267202446 189.2039381751144 L 235.8937719738824 188.19082241420153 L 238.99271722752746 195.17647465726117 L 242.09166248116526 198.9338844896604 L 245.19060773481033 192.49302520912318 L 248.28955298844812 187.13321869811614 L 251.3884982420932 185.87164901202146 L 254.487443495731 185.10291154557757 L 257.58638874937606 186.37334151724434 L 260.68533400301385 197.1251943806643 L 263.7842792566589 195.8275391306285 L 266.8832245102967 190.24507675586693 L 269.9821697639418 190.12523094462284 L 273.0811150175796 189.5914694077236 L 276.18006027122465 188.28072347017445 L 279.27900552486244 184.42633783637484 L 282.3779507785075 196.0842765296684 L 285.4768960321453 196.5429046683344 L 288.5758412857904 191.49244086393006 L 291.67478653942817 188.43965291108188 L 294.77373179307324 182.08305191353242 L 297.87267704671103 181.58189172775622 L 300.9716223003561 185.21103212522968 L 304.0705675539939 193.04077496541305 L 307.16951280763897 190.03307750601715 L 310.26845806127676 186.87561224319103 L 313.36740331492183 189.92804161199678 L 316.4663485685596 181.980582439949 L 319.5652938222047 180.7800095417191 L 322.6642390758425 180.1957999495003 L 325.76318432948756 194.47300392405768 L 328.86212958312535 200.26256434533306 L 331.9610748367704 195.986160879313 L 335.0600200904082 186.918109466437 L 338.158965344046 185.07630642428705 L 341.2579105976911 180.34738682230818 L 344.3568558513289 192.580245486342 L 347.45580110497394 196.7886159007308 L 350.55474635861174 199.44375864406328 L 353.6536916122568 191.4264862559791 L 356.7526368658946 190.94535860384042 L 359.85158211953967 184.5597210173138 L 362.95052737317747 180.08100620346374 L 366.04947262682253 180.5433467397484 L 369.14841788046033 193.48496785702991 L 372.2473631341054 197.46358337481718 L 375.3463083877432 186.05033625425943 L 378.44525364138826 179.78876097843627 L 381.54419889502606 182.16054117324524 L 384.6431441486711 179.47075149642384 L 387.7420894023089 181.03214886219283 L 390.841034655954 194.3862303374479 L 393.9399799095918 195.50599231253935 L 397.03892516323685 189.40062758712088 L 400.13787041687465 181.57945162544763 L 403.2368156705197 180.20940974807547 L 406.3357609241575 175.63813477924433 L 409.4347061778026 176.908651594611 L 412.5336514314404 188.41367786857833 L 415.63259668508545 189.5570555356659 L 418.73154193872324 187.02553372692677 L 421.8304871923683 182.8697968229619 L 424.9294324460061 181.91450867166031 L 428.0283776996512 168.26046874550582 L 431.12732295328897 171.91283401591292 L 434.22626820693404 190.9792438877106 L 437.32521346057183 196.1519831260248 L 440.4241587142169 192.06473423074146 L 443.5231039678547 191.6074774113173 L 446.62204922149976 183.07868936942594 L 449.72099447513756 184.81733009278452 L 452.81993972878263 183.78273520351996 L 455.9188849824204 191.7367059239465 L 459.0178302360655 198.28597468232076 L 462.1167754897033 188.78850121652664 L 465.21572074334836 178.1520557958373 L 468.31466599698615 176.6129988754526 L 471.4136112506312 175.02251752813277 L 474.512556504269 175.69725649799233 L 477.6115017579141 192.27502147050947 L 480.7104470115519 192.75105590857947 L 483.80939226519695 183.78571352447733 L 486.90833751883474 181.5485485852203 L 490.0072827724798 173.75003073841467 L 493.1062280261176 168.71610946197285 L 496.2051732797627 168.35968491011772 L 499.30411853340047 183.35863245937972 L 502.40306378704554 186.72740207714304 L 505.50200904068333 182.61106337755552 L 508.6009542943284 172.30098812029877 L 511.6998995479662 163.29538248547112 L 514.7988448016113 167.26121761773646 L 517.8977900552491 173.37992229522195 L 520.9967353088941 183.75548329805372 L 524.0956805625319 189.64884471019434 L 527.194625816177 187.43734825257508 L 530.2935710698148 179.14675753573695 L 533.3925163234599 172.88910708310723 L 536.4914615770977 173.658822890151 L 539.5904068307427 181.67843072368942 L 542.6893520843805 199.07488777595552 L 545.7882973380256 197.69275615684063 L 548.8872425916634 198.2177367393765 L 551.9861878453085 183.15365012782192 L 555.0851330989462 171.6312737403125 L 558.1840783525913 171.00680817517025 L 561.2830236062291 176.42277596494955 L 564.3819688598742 188.36196013267937 L 567.480914113512 185.93683190197459 L 570.579859367157 182.5512318385434 L 573.6788046207948 175.77038623345672 L 576.7777498744399 164.89094923296364 L 579.8766951280777 171.36108091147622 L 582.9756403817155 175.61729297196365 L 586.0745856353606 190.49335233073873 L 589.1735308889984 191.3265288881117 L 592.2724761426434 188.23247005128957 L 595.3714213962812 179.42630303246472 L 598.4703666499263 174.543814762922 L 601.5693119035641 173.35145031328548 L 604.6682571572092 177.58639422024436 L 607.767202410847 187.98548545098134 L 610.866147664492 196.55899241980325 L 613.9650929181298 184.36650365648478 L 617.0640381717749 185.2192649197923 L 620.1629834254127 174.682438446103 L 623.2619286790577 176.50682559746832 L 626.3608739326955 175.63285573138455 L 629.4598191863406 188.32246177858968 L 632.5587644399784 185.01365247184606 L 635.6577096936235 184.22643492688798 L 638.7566549472613 182.9297289521777 L 641.8556002009063 178.68422041493181 L 644.9545454545441 173.74551895383973" stroke-linejoin="bevel" stroke-miterlimit="10" stroke-width="2" stroke-opacity="0.8"/></g></g></g><g clip-path="url(#lhkrhRXSzPzW)"><g><g><path fill="none" stroke="none"/><path fill="none" stroke="#abdda4" paint-order="fill stroke markers" d=" M 84.04545454545587 156.5443812638288 L 87.14439979910094 172.16584258757757 L 90.24334505273873 153.05322051439666 L 93.34229030637653 168.25306642725957 L 96.4412355600216 165.53508194377912 L 99.54018081365939 174.98774893572352 L 102.63912606730446 179.81936985503114 L 105.73807132094225 169.0910792639655 L 108.83701657458732 178.78133973097385 L 111.93596182822512 190.77167681179608 L 115.03490708187019 170.205432368794 L 118.13385233550798 172.87011872394646 L 121.23279758915305 171.5059397504094 L 124.33174284279085 164.85321641920922 L 127.43068809643592 158.22547763561707 L 130.5296333500737 161.04436722301176 L 133.62857860371878 161.23420542587942 L 136.72752385735657 197.78179759523994 L 139.82646911100164 155.44884933635956 L 142.92541436463944 167.40569594826195 L 146.0243596182845 169.52026832937895 L 149.1233048719223 159.39521248672207 L 152.22225012556737 139.30424101768781 L 155.32119537920516 165.77136762112548 L 158.42014063285023 135.73508662654302 L 161.51908588648803 118.79427903797645 L 164.6180311401331 148.42920093411686 L 167.7169763937709 149.97806958500385 L 170.81592164741596 163.2644953409363 L 173.91486690105376 172.30038070022442 L 177.01381215469883 165.53135901557235 L 180.11275740833662 169.52352431739016 L 183.2117026619817 169.84454460261176 L 186.31064791561948 152.52737668411746 L 189.40959316926455 161.88603810820774 L 192.50853842290235 167.78653984786462 L 195.60748367654742 164.25266412420928 L 198.7064289301852 188.30023901806044 L 201.80537418383028 178.936808449957 L 204.90431943746808 180.3398792866276 L 208.00326469111315 168.2439879640505 L 211.10220994475094 168.85906508352724 L 214.201155198396 154.19658653552452 L 217.3001004520338 163.91276930650034 L 220.39904570567887 162.06298618791214 L 223.49799095931667 176.12499806101698 L 226.59693621296174 170.60536555737286 L 229.69588146659953 168.5085557209411 L 232.7948267202446 169.69435512304412 L 235.8937719738824 160.13267424656397 L 238.99271722752746 157.80941975921607 L 242.09166248116526 162.4474280258446 L 245.19060773481033 171.10350868530412 L 248.28955298844812 153.83507523652148 L 251.3884982420932 172.1449753963301 L 254.487443495731 161.1644499137773 L 257.58638874937606 176.57564455568883 L 260.68533400301385 161.39359528847027 L 263.7842792566589 163.03016927470628 L 266.8832245102967 161.02132963483544 L 269.9821697639418 167.89681003570144 L 273.0811150175796 160.77522306287648 L 276.18006027122465 169.15429230235702 L 279.27900552486244 155.2744347354095 L 282.3779507785075 173.56136132411248 L 285.4768960321453 153.75066856582745 L 288.5758412857904 174.34831731321358 L 291.67478653942817 166.48291089648947 L 294.77373179307324 158.25723332575564 L 297.87267704671103 154.58078113047915 L 300.9716223003561 146.99645415512197 L 304.0705675539939 169.54422499363636 L 307.16951280763897 163.4599524267221 L 310.26845806127676 157.0296111847962 L 313.36740331492183 156.10845264521637 L 316.4663485685596 166.6576286692386 L 319.5652938222047 145.1374211040847 L 322.6642390758425 148.247820745911 L 325.76318432948756 157.06845021267532 L 328.86212958312535 164.9153208305616 L 331.9610748367704 178.8702988095701 L 335.0600200904082 161.5613961839733 L 338.158965344046 162.96185490210235 L 341.2579105976911 137.72080539283996 L 344.3568558513289 145.21502679199108 L 347.45580110497394 159.25311009898314 L 350.55474635861174 154.9257445612637 L 353.6536916122568 160.9645119954337 L 356.7526368658946 171.1868000030247 L 359.85158211953967 173.53556050094818 L 362.95052737317747 146.90184994626054 L 366.04947262682253 166.62117849676088 L 369.14841788046033 158.52361704746593 L 372.2473631341054 154.59129715411808 L 375.3463083877432 166.15384118224944 L 378.44525364138826 150.2030554864287 L 381.54419889502606 170.35333977188873 L 384.6431441486711 153.38318201530018 L 387.7420894023089 146.22903513753033 L 390.841034655954 167.77044567013394 L 393.9399799095918 164.21451152900863 L 397.03892516323685 170.885717485496 L 400.13787041687465 165.72681010763773 L 403.2368156705197 140.93135034057184 L 406.3357609241575 153.13310838504484 L 409.4347061778026 146.18743386062678 L 412.5336514314404 148.7608159992221 L 415.63259668508545 155.12454144413343 L 418.73154193872324 163.30852122930037 L 421.8304871923683 162.03610559073945 L 424.9294324460061 150.75524471859646 L 428.0283776996512 147.5495390594843 L 431.12732295328897 141.98219601572015 L 434.22626820693404 145.43222209124156 L 437.32521346057183 161.0318790485145 L 440.4241587142169 177.60470827720636 L 443.5231039678547 163.4298894573391 L 446.62204922149976 154.3152912069714 L 449.72099447513756 148.4552805341519 L 452.81993972878263 155.11330077695686 L 455.9188849824204 163.54589901850892 L 459.0178302360655 139.1224841178184 L 462.1167754897033 174.0377320374437 L 465.21572074334836 146.68830477920224 L 468.31466599698615 152.76218265872882 L 471.4136112506312 140.08728405460775 L 474.512556504269 142.82449138688585 L 477.6115017579141 166.62317589180276 L 480.7104470115519 163.17341615229347 L 483.80939226519695 143.01027363906599 L 486.90833751883474 163.0249785532542 L 490.0072827724798 154.6106281974561 L 493.1062280261176 146.53190840230926 L 496.2051732797627 145.8918246784038 L 499.30411853340047 134.34484583631453 L 502.40306378704554 153.6255145301856 L 505.50200904068333 159.33880418355452 L 508.6009542943284 135.86317328177935 L 511.6998995479662 149.57897985108116 L 514.7988448016113 139.58946322157325 L 517.8977900552491 139.37418194404586 L 520.9967353088941 153.4355145088097 L 524.0956805625319 167.54590617042552 L 527.194625816177 178.04507682487602 L 530.2935710698148 142.4517676985778 L 533.3925163234599 149.1581915300074 L 536.4914615770977 146.56180456045598 L 539.5904068307427 161.37877946418885 L 542.6893520843805 145.50423026866116 L 545.7882973380256 168.24109766524901 L 548.8872425916634 179.03363887193825 L 551.9861878453085 153.50093330784156 L 555.0851330989462 138.294365394786 L 558.1840783525913 140.59540203898126 L 561.2830236062291 138.4268808835164 L 564.3819688598742 154.67824268742316 L 567.480914113512 165.01585163837333 L 570.579859367157 157.4812806483485 L 573.6788046207948 147.77445556666842 L 576.7777498744399 145.90356867475046 L 579.8766951280777 120.50179803668382 L 582.9756403817155 138.9907209965926 L 586.0745856353606 162.2347551685018 L 589.1735308889984 167.0593106769512 L 592.2724761426434 158.03072225116094 L 595.3714213962812 154.92818257505726 L 598.4703666499263 140.0669432071573 L 601.5693119035641 151.0569424998399 L 604.6682571572092 149.67597622688064 L 607.767202410847 140.21158519382553 L 610.866147664492 169.8709778327718 L 613.9650929181298 173.16506896460666 L 617.0640381717749 150.9731471192645 L 620.1629834254127 146.57121164693638 L 623.2619286790577 139.25018207628423 L 626.3608739326955 141.00568904442036 L 629.4598191863406 144.78862929892134 L 632.5587644399784 150.45677803305153 L 635.6577096936235 163.86126665296877 L 638.7566549472613 150.05985606928104 L 641.8556002009063 156.03385871863318 L 644.9545454545441 140.2635497347587" stroke-linejoin="bevel" stroke-miterlimit="10" stroke-width="2" stroke-opacity="0.8"/></g></g></g><g><g/><g><path fill="#ffffff" stroke="#e5e5e5" paint-order="fill stroke markers" d=" M 682.8125 90 L 790.1875 90 L 790.1875 153 L 682.8125 153 L 682.8125 90 Z" fill-opacity="0.95" stroke-linejoin="bevel" stroke-miterlimit="10" stroke-opacity="0.5"/><text fill="#444444" stroke="none" font-family="helvetica" font-size="10pt" font-style="normal" font-weight="normal" text-decoration="normal" x="717.8125" y="110" text-anchor="start" dominant-baseline="central">Vendor 1</text><g><path fill="none" stroke="#2b83ba" paint-order="fill stroke markers" d=" M 692.8125 110 L 712.8125 110" stroke-linejoin="bevel" stroke-miterlimit="10" stroke-width="2" stroke-opacity="0.8"/></g><text fill="#444444" stroke="none" font-family="helvetica" font-size="10pt" font-style="normal" font-weight="normal" text-decoration="normal" x="717.8125" y="133" text-anchor="start" dominant-baseline="central">Vendor 2</text><g><path fill="none" stroke="#abdda4" paint-order="fill stroke markers" d=" M 692.8125 133 L 712.8125 133" stroke-linejoin="bevel" stroke-miterlimit="10" stroke-width="2" stroke-opacity="0.8"/></g></g></g><g><g fill="#444444"><path fill="" stroke="none" d=""/><g transform="translate(56,17)"><path fill="none" stroke="none"/><text fill="" stroke="none" font-family="helvetica" font-size="10pt" font-style="normal" font-weight="bold" text-decoration="normal" x="0" y="0" text-anchor="start" dominant-baseline="text-after-edge">Average trip time</text></g></g></g><g/><g><g fill="#444444"><path fill="none" stroke="black" paint-order="fill stroke markers" d=" M 56 213 L 673 213" stroke-linejoin="bevel" stroke-miterlimit="10"/><path fill="none" stroke="black" paint-order="fill stroke markers" d=" M 84 219 L 84 211" stroke-linejoin="bevel" stroke-miterlimit="10"/><path fill="none" stroke="black" paint-order="fill stroke markers" d=" M 180 219 L 180 211" stroke-linejoin="bevel" stroke-miterlimit="10"/><path fill="none" stroke="black" paint-order="fill stroke markers" d=" M 270 219 L 270 211" stroke-linejoin="bevel" stroke-miterlimit="10"/><path fill="none" stroke="black" paint-order="fill stroke markers" d=" M 366 219 L 366 211" stroke-linejoin="bevel" stroke-miterlimit="10"/><path fill="none" stroke="black" paint-order="fill stroke markers" d=" M 459 219 L 459 211" stroke-linejoin="bevel" stroke-miterlimit="10"/><path fill="none" stroke="black" paint-order="fill stroke markers" d=" M 555 219 L 555 211" stroke-linejoin="bevel" stroke-miterlimit="10"/><path fill="" stroke="black" paint-order="fill stroke markers" d=" M 648 219 L 648 211" stroke-linejoin="bevel" stroke-miterlimit="10"/><g transform="translate(84,224) rotate(0,0,0)"><text fill="" stroke="none" font-family="helvetica" font-size="8pt" font-style="normal" font-weight="normal" text-decoration="normal" x="0" y="0" text-anchor="middle" dominant-baseline="hanging">1/2016</text><g transform="rotate(0,0,0) translate(-84,-224) translate(180,224) rotate(0,0,0)"><text fill="" stroke="none" font-family="helvetica" font-size="8pt" font-style="normal" font-weight="normal" text-decoration="normal" x="0" y="0" text-anchor="middle" dominant-baseline="hanging">2/2016</text><g transform="rotate(0,0,0) translate(-180,-224) translate(270,224) rotate(0,0,0)"><text fill="" stroke="none" font-family="helvetica" font-size="8pt" font-style="normal" font-weight="normal" text-decoration="normal" x="0" y="0" text-anchor="middle" dominant-baseline="hanging">3/2016</text><g transform="rotate(0,0,0) translate(-270,-224) translate(366,224) rotate(0,0,0)"><text fill="" stroke="none" font-family="helvetica" font-size="8pt" font-style="normal" font-weight="normal" text-decoration="normal" x="0" y="0" text-anchor="middle" dominant-baseline="hanging">4/2016</text><g transform="rotate(0,0,0) translate(-366,-224) translate(459,224) rotate(0,0,0)"><text fill="" stroke="none" font-family="helvetica" font-size="8pt" font-style="normal" font-weight="normal" text-decoration="normal" x="0" y="0" text-anchor="middle" dominant-baseline="hanging">5/2016</text><g transform="rotate(0,0,0) translate(-459,-224) translate(555,224) rotate(0,0,0)"><text fill="" stroke="none" font-family="helvetica" font-size="8pt" font-style="normal" font-weight="normal" text-decoration="normal" x="0" y="0" text-anchor="middle" dominant-baseline="hanging">6/2016</text><g transform="rotate(0,0,0) translate(-555,-224) translate(648,224) rotate(0,0,0)"><text fill="" stroke="none" font-family="helvetica" font-size="8pt" font-style="normal" font-weight="normal" text-decoration="normal" x="0" y="0" text-anchor="middle" dominant-baseline="hanging">7/2016</text><g transform="rotate(0,0,0) translate(-648,-224) translate(365,238) rotate(0,0,0)"><text fill="" stroke="none" font-family="helvetica" font-size="10pt" font-style="italic" font-weight="normal" text-decoration="normal" x="0" y="0" text-anchor="middle" dominant-baseline="hanging">Day</text><g transform="rotate(0,0,0) translate(-365,-238)"/></g></g></g></g></g></g></g></g></g></g><g><g fill="#444444"><path fill="none" stroke="black" paint-order="fill stroke markers" d=" M 56 213 L 56 30" stroke-linejoin="bevel" stroke-miterlimit="10"/><path fill="none" stroke="black" paint-order="fill stroke markers" d=" M 50 190 L 58 190" stroke-linejoin="bevel" stroke-miterlimit="10"/><path fill="none" stroke="black" paint-order="fill stroke markers" d=" M 50 166 L 58 166" stroke-linejoin="bevel" stroke-miterlimit="10"/><path fill="none" stroke="black" paint-order="fill stroke markers" d=" M 50 141 L 58 141" stroke-linejoin="bevel" stroke-miterlimit="10"/><path fill="none" stroke="black" paint-order="fill stroke markers" d=" M 50 116 L 58 116" stroke-linejoin="bevel" stroke-miterlimit="10"/><path fill="none" stroke="black" paint-order="fill stroke markers" d=" M 50 91 L 58 91" stroke-linejoin="bevel" stroke-miterlimit="10"/><path fill="none" stroke="black" paint-order="fill stroke markers" d=" M 50 66 L 58 66" stroke-linejoin="bevel" stroke-miterlimit="10"/><path fill="none" stroke="black" paint-order="fill stroke markers" d=" M 50 41 L 58 41" stroke-linejoin="bevel" stroke-miterlimit="10"/><path fill="none" stroke="black" paint-order="fill stroke markers" d=" M 52 195 L 56 195" stroke-linejoin="bevel" stroke-miterlimit="10"/><path fill="none" stroke="black" paint-order="fill stroke markers" d=" M 52 200 L 56 200" stroke-linejoin="bevel" stroke-miterlimit="10"/><path fill="none" stroke="black" paint-order="fill stroke markers" d=" M 52 205 L 56 205" stroke-linejoin="bevel" stroke-miterlimit="10"/><path fill="none" stroke="black" paint-order="fill stroke markers" d=" M 52 210 L 56 210" stroke-linejoin="bevel" stroke-miterlimit="10"/><path fill="none" stroke="black" paint-order="fill stroke markers" d=" M 52 190 L 56 190" stroke-linejoin="bevel" stroke-miterlimit="10"/><path fill="none" stroke="black" paint-order="fill stroke markers" d=" M 52 185 L 56 185" stroke-linejoin="bevel" stroke-miterlimit="10"/><path fill="none" stroke="black" paint-order="fill stroke markers" d=" M 52 180 L 56 180" stroke-linejoin="bevel" stroke-miterlimit="10"/><path fill="none" stroke="black" paint-order="fill stroke markers" d=" M 52 175 L 56 175" stroke-linejoin="bevel" stroke-miterlimit="10"/><path fill="none" stroke="black" paint-order="fill stroke markers" d=" M 52 171 L 56 171" stroke-linejoin="bevel" stroke-miterlimit="10"/><path fill="none" stroke="black" paint-order="fill stroke markers" d=" M 52 166 L 56 166" stroke-linejoin="bevel" stroke-miterlimit="10"/><path fill="none" stroke="black" paint-order="fill stroke markers" d=" M 52 161 L 56 161" stroke-linejoin="bevel" stroke-miterlimit="10"/><path fill="none" stroke="black" paint-order="fill stroke markers" d=" M 52 156 L 56 156" stroke-linejoin="bevel" stroke-miterlimit="10"/><path fill="none" stroke="black" paint-order="fill stroke markers" d=" M 52 151 L 56 151" stroke-linejoin="bevel" stroke-miterlimit="10"/><path fill="none" stroke="black" paint-order="fill stroke markers" d=" M 52 146 L 56 146" stroke-linejoin="bevel" stroke-miterlimit="10"/><path fill="none" stroke="black" paint-order="fill stroke markers" d=" M 52 141 L 56 141" stroke-linejoin="bevel" stroke-miterlimit="10"/><path fill="none" stroke="black" paint-order="fill stroke markers" d=" M 52 136 L 56 136" stroke-linejoin="bevel" stroke-miterlimit="10"/><path fill="none" stroke="black" paint-order="fill stroke markers" d=" M 52 131 L 56 131" stroke-linejoin="bevel" stroke-miterlimit="10"/><path fill="none" stroke="black" paint-order="fill stroke markers" d=" M 52 126 L 56 126" stroke-linejoin="bevel" stroke-miterlimit="10"/><path fill="none" stroke="black" paint-order="fill stroke markers" d=" M 52 121 L 56 121" stroke-linejoin="bevel" stroke-miterlimit="10"/><path fill="none" stroke="black" paint-order="fill stroke markers" d=" M 52 116 L 56 116" stroke-linejoin="bevel" stroke-miterlimit="10"/><path fill="none" stroke="black" paint-order="fill stroke markers" d=" M 52 111 L 56 111" stroke-linejoin="bevel" stroke-miterlimit="10"/><path fill="none" stroke="black" paint-order="fill stroke markers" d=" M 52 106 L 56 106" stroke-linejoin="bevel" stroke-miterlimit="10"/><path fill="none" stroke="black" paint-order="fill stroke markers" d=" M 52 101 L 56 101" stroke-linejoin="bevel" stroke-miterlimit="10"/><path fill="none" stroke="black" paint-order="fill stroke markers" d=" M 52 96 L 56 96" stroke-linejoin="bevel" stroke-miterlimit="10"/><path fill="none" stroke="black" paint-order="fill stroke markers" d=" M 52 91 L 56 91" stroke-linejoin="bevel" stroke-miterlimit="10"/><path fill="none" stroke="black" paint-order="fill stroke markers" d=" M 52 86 L 56 86" stroke-linejoin="bevel" stroke-miterlimit="10"/><path fill="none" stroke="black" paint-order="fill stroke markers" d=" M 52 81 L 56 81" stroke-linejoin="bevel" stroke-miterlimit="10"/><path fill="none" stroke="black" paint-order="fill stroke markers" d=" M 52 76 L 56 76" stroke-linejoin="bevel" stroke-miterlimit="10"/><path fill="none" stroke="black" paint-order="fill stroke markers" d=" M 52 71 L 56 71" stroke-linejoin="bevel" stroke-miterlimit="10"/><path fill="none" stroke="black" paint-order="fill stroke markers" d=" M 52 66 L 56 66" stroke-linejoin="bevel" stroke-miterlimit="10"/><path fill="none" stroke="black" paint-order="fill stroke markers" d=" M 52 61 L 56 61" stroke-linejoin="bevel" stroke-miterlimit="10"/><path fill="none" stroke="black" paint-order="fill stroke markers" d=" M 52 56 L 56 56" stroke-linejoin="bevel" stroke-miterlimit="10"/><path fill="none" stroke="black" paint-order="fill stroke markers" d=" M 52 51 L 56 51" stroke-linejoin="bevel" stroke-miterlimit="10"/><path fill="none" stroke="black" paint-order="fill stroke markers" d=" M 52 46 L 56 46" stroke-linejoin="bevel" stroke-miterlimit="10"/><path fill="none" stroke="black" paint-order="fill stroke markers" d=" M 52 41 L 56 41" stroke-linejoin="bevel" stroke-miterlimit="10"/><path fill="none" stroke="black" paint-order="fill stroke markers" d=" M 52 36 L 56 36" stroke-linejoin="bevel" stroke-miterlimit="10"/><path fill="" stroke="black" paint-order="fill stroke markers" d=" M 52 31 L 56 31" stroke-linejoin="bevel" stroke-miterlimit="10"/><g transform="translate(45,190) rotate(0,0,0)"><text fill="" stroke="none" font-family="helvetica" font-size="8pt" font-style="normal" font-weight="normal" text-decoration="normal" x="0" y="0" text-anchor="end" dominant-baseline="central">800</text><g transform="rotate(0,0,0) translate(-45,-190) translate(45,166) rotate(0,0,0)"><text fill="" stroke="none" font-family="helvetica" font-size="8pt" font-style="normal" font-weight="normal" text-decoration="normal" x="0" y="0" text-anchor="end" dominant-baseline="central">1000</text><g transform="rotate(0,0,0) translate(-45,-166) translate(45,141) rotate(0,0,0)"><text fill="" stroke="none" font-family="helvetica" font-size="8pt" font-style="normal" font-weight="normal" text-decoration="normal" x="0" y="0" text-anchor="end" dominant-baseline="central">1200</text><g transform="rotate(0,0,0) translate(-45,-141) translate(45,116) rotate(0,0,0)"><text fill="" stroke="none" font-family="helvetica" font-size="8pt" font-style="normal" font-weight="normal" text-decoration="normal" x="0" y="0" text-anchor="end" dominant-baseline="central">1400</text><g transform="rotate(0,0,0) translate(-45,-116) translate(45,91) rotate(0,0,0)"><text fill="" stroke="none" font-family="helvetica" font-size="8pt" font-style="normal" font-weight="normal" text-decoration="normal" x="0" y="0" text-anchor="end" dominant-baseline="central">1600</text><g transform="rotate(0,0,0) translate(-45,-91) translate(45,66) rotate(0,0,0)"><text fill="" stroke="none" font-family="helvetica" font-size="8pt" font-style="normal" font-weight="normal" text-decoration="normal" x="0" y="0" text-anchor="end" dominant-baseline="central">1800</text><g transform="rotate(0,0,0) translate(-45,-66) translate(45,41) rotate(0,0,0)"><text fill="" stroke="none" font-family="helvetica" font-size="8pt" font-style="normal" font-weight="normal" text-decoration="normal" x="0" y="0" text-anchor="end" dominant-baseline="central">2000</text><g transform="rotate(0,0,0) translate(-45,-41) translate(11,122) rotate(-90,0,0)"><text fill="" stroke="none" font-family="helvetica" font-size="10pt" font-style="italic" font-weight="normal" text-decoration="normal" x="0" y="0" text-anchor="middle" dominant-baseline="alphabetic">Time in seconds</text><g transform="rotate(90,0,0) translate(-11,-122)"/></g></g></g></g></g></g></g></g></g></g><g clip-path="url(#JmXlMelNyNQq)"><g/></g></g></g></svg>