<svg version="1.1" xmlns="http://www.w3.org/2000/svg" xmlns:xlink="http://www.w3.org/1999/xlink" width="800" height="250" style="width: 800px; height: 250px;"><defs><clipPath id="PrwELfatyqHB"><path fill="none" stroke="none" d=" M 56 22 L 770 22 L 770 213 L 56 213 L 56 22 Z"/></clipPath><clipPath id="ChbDWGeIChlB"><path fill="none" stroke="none" d=" M 56 22 L 770 22 L 770 213 L 56 213 L 56 22 Z"/></clipPath><clipPath id="iptobvTWPExQ"><path fill="none" stroke="none" d=" M 56 22 L 770 22 L 770 213 L 56 213 L 56 22 Z"/></clipPath><clipPath id="dcphmvuDXoas"><path fill="none" stroke="none" d=" M 56 22 L 770 22 L 770 213 L 56 213 L 56 22 Z"/></clipPath><clipPath id="mINvNyaeIpxi"><path fill="none" stroke="none" d=" M 56 22 L 770 22 L 770 213 L 56 213 L 56 22 Z"/></clipPath><clipPath id="TpOXwdqIAWKk"><path fill="none" stroke="none" d=" M 56 22 L 770 22 L 770 213 L 56 213 L 56 22 Z"/></clipPath></defs><g><g transform="scale(1,1) translate(0.5,0.5)"><rect fill="#FFFFFF" stroke="none" x="0" y="0" width="800" height="250"/><rect fill="#ffffff" stroke="none" x="0" y="0" width="800" height="250"/><rect fill="#FFFFFF" stroke="none" x="56" y="22" width="714" height="191"/><rect fill="#ffffff" stroke="none" x="56" y="22" width="714" height="191"/><g><rect fill="none" stroke="#e5e5e5" x="56" y="22" width="714" height="191" stroke-linejoin="bevel" stroke-miterlimit="10"/></g><g clip-path="url(#PrwELfatyqHB)"><g><g><path fill="none" stroke="#e5e5e5" paint-order="fill stroke markers" d=" M 88 213 L 88 22" stroke-linejoin="bevel" stroke-miterlimit="10"/><path fill="none" stroke="#e5e5e5" paint-order="fill stroke markers" d=" M 200 213 L 200 22" stroke-linejoin="bevel" stroke-miterlimit="10"/><path fill="none" stroke="#e5e5e5" paint-order="fill stroke markers" d=" M 304 213 L 304 22" stroke-linejoin="bevel" stroke-miterlimit="10"/><path fill="none" stroke="#e5e5e5" paint-order="fill stroke markers" d=" M 415 213 L 415 22" stroke-linejoin="bevel" stroke-miterlimit="10"/><path fill="none" stroke="#e5e5e5" paint-order="fill stroke markers" d=" M 522 213 L 522 22" stroke-linejoin="bevel" stroke-miterlimit="10"/><path fill="none" stroke="#e5e5e5" paint-order="fill stroke markers" d=" M 634 213 L 634 22" stroke-linejoin="bevel" stroke-miterlimit="10"/><path fill="none" stroke="#e5e5e5" paint-order="fill stroke markers" d=" M 741 213 L 741 22" stroke-linejoin="bevel" stroke-miterlimit="10"/></g></g></g><g clip-path="url(#ChbDWGeIChlB)"><g><g><path fill="none" stroke="#e5e5e5" paint-order="fill stroke markers" d=" M 56 189 L 770 189" stroke-linejoin="bevel" stroke-miterlimit="10"/><path fill="none" stroke="#e5e5e5" paint-order="fill stroke markers" d=" M 56 163 L 770 163" stroke-linejoin="bevel" stroke-miterlimit="10"/><path fill="none" stroke="#e5e5e5" paint-order="fill stroke markers" d=" M 56 138 L 770 138" stroke-linejoin="bevel" stroke-miterlimit="10"/><path fill="none" stroke="#e5e5e5" paint-order="fill stroke markers" d=" M 56 112 L 770 112" stroke-linejoin="bevel" stroke-miterlimit="10"/><path fill="none" stroke="#e5e5e5" paint-order="fill stroke markers" d=" M 56 86 L 770 86" stroke-linejoin="bevel" stroke-miterlimit="10"/><path fill="none" stroke="#e5e5e5" paint-order="fill stroke markers" d=" M 56 60 L 770 60" stroke-linejoin="bevel" stroke-miterlimit="10"/><path fill="none" stroke="#e5e5e5" paint-order="fill stroke markers" d=" M 56 34 L 770 34" stroke-linejoin="bevel" stroke-miterlimit="10"/></g></g></g><g clip-path="url(#iptobvTWPExQ)"><g><g><path fill="none" stroke="none"/><path fill="none" stroke="#2b83ba" paint-order="fill stroke markers" d=" M 88.45454545454413 199.99943036921778 L 92.04068307383568 201.36228153430505 L 95.62682069311995 200.10366019267872 L 99.2129583124115 201.15687335956255 L 102.79909593169577 35.391248668298545 L 106.38523355098005 197.18977964737263 L 109.9713711702716 192.867775922026 L 113.55750878955587 194.76462629033978 L 117.14364640884014 201.2936793435337 L 120.72978402813169 203.4130189437685 L 124.31592164741596 195.41365914134755 L 127.90205926670023 196.10386285091337 L 131.48819688599178 195.6060330166165 L 135.07433450527606 190.38854640333145 L 138.66047212456033 187.91711393371955 L 142.24660974385188 201.00352574017876 L 145.83274736313615 201.97370318063435 L 149.41888498242042 204.31818181818184 L 153.00502260171197 187.97401617433326 L 156.59116022099624 187.78276268900538 L 160.17729784028052 183.7320560153448 L 163.76343545957207 188.94389926523013 L 167.34957307885634 187.5096639329623 L 170.9357106981406 196.79200186340083 L 174.52184831743216 162.37027532224977 L 178.10798593671643 157.0774894008167 L 181.6941235560007 172.71382831639926 L 185.28026117529225 175.94875318227716 L 188.86639879457653 182.85567395420702 L 192.45253641386807 192.91638060796765 L 196.03867403315235 195.82739883178948 L 199.62481165243662 188.61461448441793 L 203.21094927172817 189.41606272075188 L 206.79708689101244 182.01978878654612 L 210.3832245102967 183.46280106281532 L 213.96936212958826 194.39193661445367 L 217.55549974887253 198.6700527363433 L 221.1416373681568 203.66096979043976 L 224.72777498744836 199.5678170232058 L 228.31391260673263 192.45244650546599 L 231.9000502260169 192.03258211640963 L 235.48618784530845 186.1798662732404 L 239.07232546459272 181.21962448895283 L 242.658463083877 30.681818181818187 L 246.24460070316854 199.9740401444124 L 249.83073832245282 203.5718596169378 L 253.4168759417371 183.95503896842447 L 257.00301356102864 186.07346092439522 L 260.5891511803129 188.1636731773052 L 264.1752887995972 187.1062682028005 L 267.76142641888873 194.39730415047478 L 271.347564038173 198.31897233620296 L 274.9337016574573 191.59654543684445 L 278.5198392767488 186.0024304444819 L 282.1059768960331 184.68571017101698 L 285.69211451532465 183.88336669511102 L 289.2782521346089 185.20933458903647 L 292.8643897538932 196.43121380714146 L 296.45052737318474 195.07683045874344 L 300.036664992469 189.25032601295405 L 303.6228026117533 189.12524104056266 L 307.20894023104483 188.5681456659848 L 310.7950778503291 187.20009935958103 L 314.3812154696134 183.17721599315627 L 317.96735308890493 195.3447913506375 L 321.5534907081892 195.82346880684082 L 325.1396283274735 190.55221969951174 L 328.725765946765 187.36597653561006 L 332.3119035660493 180.73149134144643 L 335.89804118533357 180.2084225136691 L 339.4841788046251 183.9962138574802 L 343.0703164239094 192.16824053767158 L 346.65645404319366 189.0290590363349 L 350.2425916624852 185.7335625051885 L 353.8287292817695 188.91943140924258 L 357.41486690105376 180.62454232803424 L 361.0010045203453 179.37148536867954 L 364.5871421396296 178.76173655931456 L 368.17327975891385 193.66308059833347 L 371.7594173782054 199.70573655715094 L 375.34555499748967 195.2423864915234 L 378.9316926167812 185.77791753054356 L 382.5178302360655 183.85559850840895 L 386.10396785534977 178.9199501806605 L 389.6901054746413 191.68757862235697 L 393.2762430939256 196.07992151387754 L 396.86238071320986 198.85113607112618 L 400.4485183325014 190.483381830011 L 404.0346559517857 189.98122127504658 L 407.62079357106995 183.3164301328248 L 411.2069311903615 178.64192450744034 L 414.7930688096458 179.12447665186858 L 418.37920642893005 192.63185169777444 L 421.9653440482216 196.7843957627873 L 425.55148166750587 184.87220887739647 L 429.13761928679014 178.33690353487066 L 432.7237569060817 180.81236810978055 L 436.30989452536596 178.00499199899977 L 439.89603214465023 179.63464717310836 L 443.4821697639418 193.57251363088827 L 447.06830738322606 194.74122694915312 L 450.65444500251033 188.36896103355244 L 454.2405826218019 180.20587574022133 L 457.82672024108615 178.77594132176188 L 461.4128578603704 174.00482919582333 L 464.99899547966197 175.33088772989458 L 468.58513309894624 187.3388659721228 L 472.1712707182378 188.5322273623617 L 475.75740833752207 185.8900379335684 L 479.34354595680634 181.55262947096026 L 482.9296835760979 180.55558008900067 L 486.51582119538216 166.30464224257713 L 490.10195881466643 170.11667375431352 L 493.688096433958 190.01658788280182 L 497.27423405324225 195.41545779820078 L 500.8603716725265 191.14953135558267 L 504.4465092918181 190.6722851670033 L 508.03264691110235 181.77065393202383 L 511.6187845303866 183.58530080722323 L 515.2049221496782 182.50547772607825 L 518.7910597689624 190.80716301351794 L 522.3771973882467 197.6427386028594 L 525.9633350075383 187.73007504019998 L 529.5494726268225 176.62864839893405 L 533.1356102461068 175.02231030170194 L 536.7217478653984 173.362299715155 L 540.3078854846826 174.0665354705822 L 543.8940231039669 191.36901148014925 L 547.4801607232585 191.86585616687805 L 551.0662983425427 182.5085862468589 L 554.652435961827 180.17362174741572 L 558.2385735811185 172.034185087635 L 561.8247112004028 166.78020167888974 L 565.4108488196871 166.4081957258606 L 568.9969864389786 182.0628349712652 L 572.5831240582629 185.57887320619852 L 576.1692616775545 181.28258527384213 L 579.7553992968387 170.521796344137 L 583.341536916123 161.12250303128408 L 586.9276745354146 165.2617080053971 L 590.5138121546988 171.64789704036826 L 594.0999497739831 182.4770344804823 L 597.6860873932746 188.62802917839957 L 601.2722250125589 186.31985528001007 L 604.8583626318432 177.66683436790032 L 608.4445002511347 171.1356254255382 L 612.030637870419 171.93899001103193 L 615.6167754897033 180.30918179357747 L 619.2029131089948 198.46613970058746 L 622.7890507282791 197.02358702708506 L 626.3751883475634 197.57151758044216 L 629.9613259668549 181.84889166346443 L 633.5474635861392 169.8228048327852 L 637.1336012054235 169.17104022654382 L 640.719738824715 174.8237716355485 L 644.3058764439993 187.28488735159436 L 647.8920140632836 184.75374258621395 L 651.4781516825751 181.22013814842512 L 655.0642893018594 174.14286213437288 L 658.6504269211437 162.78782133057956 L 662.2365645404352 169.54080029558446 L 665.8227021597195 173.98307627128452 L 669.408839779011 189.50945516486942 L 672.9949773982953 190.37905474114393 L 676.5811150175796 187.14973650161917 L 680.1672526368711 177.95860043279106 L 683.7533902561554 172.86267005310444 L 687.3395278754397 171.61818038162585 L 690.9256654947312 176.0382584484518 L 694.5118031140155 186.89195476031387 L 698.0979407332998 195.84025984799138 L 701.6840783525913 183.11476611141308 L 705.2702159718756 184.00480655563024 L 708.8563535911599 173.00735378800914 L 712.4424912104514 174.91149556894237 L 716.0286288297357 173.99931936991504 L 719.61476644902 187.24366229350073 L 723.2009040683115 183.7902055853694 L 726.7870416875958 182.96857415866452 L 730.37317930688 181.6151815839669 L 733.9593169261716 177.18407704509278 L 737.5454545454559 172.0294760665759" stroke-linejoin="bevel" stroke-miterlimit="10" stroke-width="2" stroke-opacity="0.8"/></g></g></g><g clip-path="url(#dcphmvuDXoas)"><g><g><path fill="none" stroke="none"/><path fill="none" stroke="#abdda4" paint-order="fill stroke markers" d=" M 88.45454545454413 154.0763760731765 L 92.04068307383568 170.38074280998535 L 95.62682069311995 150.4325962745889 L 99.2129583124115 166.29691632571905 L 102.79909593169577 163.4601128484252 L 106.38523355098005 173.32601118427976 L 109.9713711702716 178.3688505044314 L 113.55750878955587 167.17156360337384 L 117.14364640884014 177.28544201429514 L 120.72978402813169 189.7999468363555 L 124.31592164741596 168.3346315980309 L 127.90205926670023 171.11580697417364 L 131.48819688599178 169.6919917613563 L 135.07433450527606 162.7484389949124 L 138.66047212456033 155.83096299673696 L 142.24660974385188 158.77308273002868 L 145.83274736313615 158.97121987072663 L 149.41888498242042 197.1165209873816 L 153.00502260171197 152.93295203958843 L 156.59116022099624 165.41250232851388 L 160.17729784028052 167.61951503230262 L 163.76343545957207 157.05183379761704 L 167.34957307885634 136.0825684938709 L 170.9357106981406 163.70672795428948 L 174.52184831743216 132.35738549546298 L 178.10798593671643 114.67599615439076 L 181.6941235560007 145.60643376183785 L 185.28026117529225 147.2230125176816 L 188.86639879457653 161.09026562906467 L 192.45253641386807 170.52116237017964 L 196.03867403315235 163.4562271692586 L 199.62481165243662 167.62291335858757 L 203.21094927172817 167.95796731748004 L 206.79708689101244 149.88376473588218 L 210.3832245102967 159.65154797086166 L 213.96936212958826 165.8099951417604 L 217.55549974887253 162.12163304767202 L 221.1416373681568 187.2204680461724 L 224.72777498744836 177.4477071800098 L 228.31391260673263 178.91211444669875 L 231.9000502260169 166.28744098980135 L 235.48618784530845 166.92940672652298 L 239.07232546459272 151.6259455097551 L 242.658463083877 161.76687944011786 L 246.24460070316854 159.8362314857444 L 249.83073832245282 174.51297611832922 L 253.4168759417371 168.75204820468974 L 257.00301356102864 166.56357455027188 L 260.5891511803129 167.80121217760345 L 264.1752887995972 157.8215343229165 L 267.76142641888873 155.39671679787037 L 271.347564038173 160.2374795242422 L 274.9337016574573 169.27196808138302 L 278.5198392767488 151.24863043811808 L 282.1059768960331 170.3589633917981 L 285.69211451532465 158.89841493733041 L 289.2782521346089 174.98332300621075 L 292.8643897538932 159.13757759616297 L 296.45052737318474 160.84569580037652 L 300.036664992469 158.74903803417251 L 303.6228026117533 165.9250858842567 L 307.20894023104483 158.49217270496945 L 310.7950778503291 167.23754005327976 L 314.3812154696134 152.75091275662962 L 317.96735308890493 171.83726783008464 L 321.5534907081892 151.16053385832265 L 325.1396283274735 172.65862626679672 L 328.725765946765 164.44937694660925 L 332.3119035660493 155.86410691376685 L 335.89804118533357 152.02693549683895 L 339.4841788046251 144.1110532438705 L 343.0703164239094 167.6445189824292 L 346.65645404319366 161.2942672869067 L 350.2425916624852 154.58281823112614 L 353.8287292817695 153.6213904657723 L 357.41486690105376 164.63173265477909 L 361.0010045203453 142.1707509884163 L 364.5871421396296 145.41712438507656 L 368.17327975891385 154.6233551400054 L 371.7594173782054 162.8132583532091 L 375.34555499748967 177.3782900143601 L 378.9316926167812 159.31271404993936 L 382.5178302360655 160.7743950071123 L 386.10396785534977 134.42991163952152 L 389.6901054746413 142.2517492747011 L 393.2762430939256 156.90351928363816 L 396.86238071320986 152.38697929618237 L 400.4485183325014 158.6897365635401 L 404.0346559517857 169.35890054960504 L 407.62079357106995 171.81033910208257 L 411.2069311903615 144.01231333188943 L 414.7930688096458 164.59368903213846 L 418.37920642893005 156.14213582549726 L 421.9653440482216 152.03791123735823 L 425.55148166750587 164.10592167109095 L 429.13761928679014 147.4578338683491 L 432.7237569060817 168.4890048985287 L 436.30989452536596 150.77698232198 L 439.89603214465023 143.3100858539251 L 443.4821697639418 165.7931973934185 L 447.06830738322606 162.08181257945714 L 450.65444500251033 169.0446559548073 L 454.2405826218019 163.66022257135964 L 457.82672024108615 137.78080827895752 L 461.4128578603704 150.51597651116705 L 464.99899547966197 143.2666659419657 L 468.58513309894624 145.9525456603903 L 472.1712707182378 152.5944667531666 L 475.75740833752207 161.13621614642827 L 479.34354595680634 159.8081757804986 L 482.9296835760979 148.03416252050235 L 486.51582119538216 144.6883167232869 L 490.10195881466643 138.87759256285548 L 493.688096433958 142.47843945042155 L 497.27423405324225 158.76004862440587 L 500.8603716725265 176.05737311992578 L 504.4465092918181 161.26289008935396 L 508.03264691110235 151.7498394564565 L 511.6187845303866 145.6336534536777 L 515.2049221496782 152.58273469070363 L 518.7910597689624 161.38397110674978 L 522.3771973882467 135.89286593717662 L 525.9633350075383 172.33446349263252 L 529.5494726268225 143.7894328569816 L 533.1356102461068 150.12883545255306 L 536.7217478653984 136.89984292038298 L 540.3078854846826 139.75670958959125 L 543.8940231039669 164.59577374499636 L 547.4801607232585 160.99520483654678 L 551.0662983425427 139.950613470282 L 554.652435961827 160.8402781621396 L 558.2385735811185 152.05808735362905 L 561.8247112004028 143.62619948000588 L 565.4108488196871 142.95813395396243 L 568.9969864389786 130.90636915156327 L 572.5831240582629 151.02990860800793 L 576.1692616775545 156.99295955769898 L 579.7553992968387 132.49107156732165 L 583.341536916123 146.8064762380137 L 586.9276745354146 136.38025942798086 L 590.5138121546988 136.1555669470643 L 594.0999497739831 150.8316025747686 L 597.6860873932746 165.55884195929661 L 601.2722250125589 176.51699275164657 L 604.8583626318432 139.36769196955393 L 608.4445002511347 146.36729279907877 L 612.030637870419 143.65740257402786 L 615.6167754897033 159.12211408557417 L 619.2029131089948 142.55359552630756 L 622.7890507282791 166.2844243391397 L 626.3751883475634 177.54877062590276 L 629.9613259668549 150.89988121200952 L 633.5474635861392 135.02854530275482 L 637.1336012054235 137.43017371281653 L 640.719738824715 135.16685381831493 L 644.3058764439993 152.12865766829412 L 647.8920140632836 162.9181839504334 L 651.4781516825751 155.05423280783918 L 655.0642893018594 144.92306564608566 L 658.6504269211437 142.9703913490565 L 662.2365645404352 116.45816079238585 L 665.8227021597195 135.75534267950374 L 669.408839779011 160.0155094928079 L 672.9949773982953 165.05097453168133 L 676.5811150175796 155.62769371569257 L 680.1672526368711 152.3895238898139 L 683.7533902561554 136.87861285555763 L 687.3395278754397 148.34904927578918 L 690.9256654947312 146.90771289253664 L 694.5118031140155 137.02957798918405 L 698.0979407332998 167.98555609868532 L 701.6840783525913 171.42365121442555 L 705.2702159718756 148.2615907091777 L 708.8563535911599 143.66722089926148 L 712.4424912104514 136.02614632005626 L 716.0286288297357 137.85839676220925 L 719.61476644902 141.80671145406546 L 723.2009040683115 147.7226481109992 L 726.7870416875958 161.7131253044647 L 730.37317930688 147.3083743673917 L 733.9593169261716 153.5435356025079 L 737.5454545454559 137.0838142040378" stroke-linejoin="bevel" stroke-miterlimit="10" stroke-width="2" stroke-opacity="0.8"/></g></g></g><g clip-path="url(#mINvNyaeIpxi)"><g><g/><g><path fill="#ffffff" stroke="#e5e5e5" paint-order="fill stroke markers" d=" M 66 32 L 173.375 32 L 173.375 95 L 66 95 L 66 32 Z" fill-opacity="0.95" stroke-linejoin="bevel" stroke-miterlimit="10" stroke-opacity="0.5"/><text fill="#444444" stroke="none" font-family="helvetica" font-size="10pt" font-style="normal" font-weight="normal" text-decoration="normal" x="101" y="52" text-anchor="start" dominant-baseline="central">vendor 1</text><g><path fill="none" stroke="#2b83ba" paint-order="fill stroke markers" d=" M 76 52 L 96 52" stroke-linejoin="bevel" stroke-miterlimit="10" stroke-width="2" stroke-opacity="0.8"/></g><text fill="#444444" stroke="none" font-family="helvetica" font-size="10pt" font-style="normal" font-weight="normal" text-decoration="normal" x="101" y="75" text-anchor="start" dominant-baseline="central">vendor 2</text><g><path fill="none" stroke="#abdda4" paint-order="fill stroke markers" d=" M 76 75 L 96 75" stroke-linejoin="bevel" stroke-miterlimit="10" stroke-width="2" stroke-opacity="0.8"/></g></g></g></g><g><g fill="#444444"><path fill="" stroke="none" d=""/><g transform="translate(56,17)"><path fill="none" stroke="none"/><text fill="" stroke="none" font-family="helvetica" font-size="10pt" font-style="normal" font-weight="bold" text-decoration="normal" x="0" y="0" text-anchor="start" dominant-baseline="text-after-edge">Average trip time</text></g></g></g><g/><g><g fill="#444444"><path fill="none" stroke="black" paint-order="fill stroke markers" d=" M 56 213 L 770 213" stroke-linejoin="bevel" stroke-miterlimit="10"/><path fill="none" stroke="black" paint-order="fill stroke markers" d=" M 88 219 L 88 211" stroke-linejoin="bevel" stroke-miterlimit="10"/><path fill="none" stroke="black" paint-order="fill stroke markers" d=" M 200 219 L 200 211" stroke-linejoin="bevel" stroke-miterlimit="10"/><path fill="none" stroke="black" paint-order="fill stroke markers" d=" M 304 219 L 304 211" stroke-linejoin="bevel" stroke-miterlimit="10"/><path fill="none" stroke="black" paint-order="fill stroke markers" d=" M 415 219 L 415 211" stroke-linejoin="bevel" stroke-miterlimit="10"/><path fill="none" stroke="black" paint-order="fill stroke markers" d=" M 522 219 L 522 211" stroke-linejoin="bevel" stroke-miterlimit="10"/><path fill="none" stroke="black" paint-order="fill stroke markers" d=" M 634 219 L 634 211" stroke-linejoin="bevel" stroke-miterlimit="10"/><path fill="" stroke="black" paint-order="fill stroke markers" d=" M 741 219 L 741 211" stroke-linejoin="bevel" stroke-miterlimit="10"/><g transform="translate(88,224) rotate(0,0,0)"><text fill="" stroke="none" font-family="helvetica" font-size="8pt" font-style="normal" font-weight="normal" text-decoration="normal" x="0" y="0" text-anchor="middle" dominant-baseline="hanging">1/2016</text><g transform="rotate(0,0,0) translate(-88,-224) translate(200,224) rotate(0,0,0)"><text fill="" stroke="none" font-family="helvetica" font-size="8pt" font-style="normal" font-weight="normal" text-decoration="normal" x="0" y="0" text-anchor="middle" dominant-baseline="hanging">2/2016</text><g transform="rotate(0,0,0) translate(-200,-224) translate(304,224) rotate(0,0,0)"><text fill="" stroke="none" font-family="helvetica" font-size="8pt" font-style="normal" font-weight="normal" text-decoration="normal" x="0" y="0" text-anchor="middle" dominant-baseline="hanging">3/2016</text><g transform="rotate(0,0,0) translate(-304,-224) translate(415,224) rotate(0,0,0)"><text fill="" stroke="none" font-family="helvetica" font-size="8pt" font-style="normal" font-weight="normal" text-decoration="normal" x="0" y="0" text-anchor="middle" dominant-baseline="hanging">4/2016</text><g transform="rotate(0,0,0) translate(-415,-224) translate(522,224) rotate(0,0,0)"><text fill="" stroke="none" font-family="helvetica" font-size="8pt" font-style="normal" font-weight="normal" text-decoration="normal" x="0" y="0" text-anchor="middle" dominant-baseline="hanging">5/2016</text><g transform="rotate(0,0,0) translate(-522,-224) translate(634,224) rotate(0,0,0)"><text fill="" stroke="none" font-family="helvetica" font-size="8pt" font-style="normal" font-weight="normal" text-decoration="normal" x="0" y="0" text-anchor="middle" dominant-baseline="hanging">6/2016</text><g transform="rotate(0,0,0) translate(-634,-224) translate(741,224) rotate(0,0,0)"><text fill="" stroke="none" font-family="helvetica" font-size="8pt" font-style="normal" font-weight="normal" text-decoration="normal" x="0" y="0" text-anchor="middle" dominant-baseline="hanging">7/2016</text><g transform="rotate(0,0,0) translate(-741,-224) translate(413,238) rotate(0,0,0)"><text fill="" stroke="none" font-family="helvetica" font-size="10pt" font-style="italic" font-weight="normal" text-decoration="normal" x="0" y="0" text-anchor="middle" dominant-baseline="hanging">Day</text><g transform="rotate(0,0,0) translate(-413,-238)"/></g></g></g></g></g></g></g></g></g></g><g><g fill="#444444"><path fill="none" stroke="black" paint-order="fill stroke markers" d=" M 56 213 L 56 22" stroke-linejoin="bevel" stroke-miterlimit="10"/><path fill="none" stroke="black" paint-order="fill stroke markers" d=" M 50 189 L 58 189" stroke-linejoin="bevel" stroke-miterlimit="10"/><path fill="none" stroke="black" paint-order="fill stroke markers" d=" M 50 163 L 58 163" stroke-linejoin="bevel" stroke-miterlimit="10"/><path fill="none" stroke="black" paint-order="fill stroke markers" d=" M 50 138 L 58 138" stroke-linejoin="bevel" stroke-miterlimit="10"/><path fill="none" stroke="black" paint-order="fill stroke markers" d=" M 50 112 L 58 112" stroke-linejoin="bevel" stroke-miterlimit="10"/><path fill="none" stroke="black" paint-order="fill stroke markers" d=" M 50 86 L 58 86" stroke-linejoin="bevel" stroke-miterlimit="10"/><path fill="none" stroke="black" paint-order="fill stroke markers" d=" M 50 60 L 58 60" stroke-linejoin="bevel" stroke-miterlimit="10"/><path fill="none" stroke="black" paint-order="fill stroke markers" d=" M 50 34 L 58 34" stroke-linejoin="bevel" stroke-miterlimit="10"/><path fill="none" stroke="black" paint-order="fill stroke markers" d=" M 52 195 L 56 195" stroke-linejoin="bevel" stroke-miterlimit="10"/><path fill="none" stroke="black" paint-order="fill stroke markers" d=" M 52 200 L 56 200" stroke-linejoin="bevel" stroke-miterlimit="10"/><path fill="none" stroke="black" paint-order="fill stroke markers" d=" M 52 205 L 56 205" stroke-linejoin="bevel" stroke-miterlimit="10"/><path fill="none" stroke="black" paint-order="fill stroke markers" d=" M 52 210 L 56 210" stroke-linejoin="bevel" stroke-miterlimit="10"/><path fill="none" stroke="black" paint-order="fill stroke markers" d=" M 52 189 L 56 189" stroke-linejoin="bevel" stroke-miterlimit="10"/><path fill="none" stroke="black" paint-order="fill stroke markers" d=" M 52 184 L 56 184" stroke-linejoin="bevel" stroke-miterlimit="10"/><path fill="none" stroke="black" paint-order="fill stroke markers" d=" M 52 179 L 56 179" stroke-linejoin="bevel" stroke-miterlimit="10"/><path fill="none" stroke="black" paint-order="fill stroke markers" d=" M 52 174 L 56 174" stroke-linejoin="bevel" stroke-miterlimit="10"/><path fill="none" stroke="black" paint-order="fill stroke markers" d=" M 52 169 L 56 169" stroke-linejoin="bevel" stroke-miterlimit="10"/><path fill="none" stroke="black" paint-order="fill stroke markers" d=" M 52 163 L 56 163" stroke-linejoin="bevel" stroke-miterlimit="10"/><path fill="none" stroke="black" paint-order="fill stroke markers" d=" M 52 158 L 56 158" stroke-linejoin="bevel" stroke-miterlimit="10"/><path fill="none" stroke="black" paint-order="fill stroke markers" d=" M 52 153 L 56 153" stroke-linejoin="bevel" stroke-miterlimit="10"/><path fill="none" stroke="black" paint-order="fill stroke markers" d=" M 52 148 L 56 148" stroke-linejoin="bevel" stroke-miterlimit="10"/><path fill="none" stroke="black" paint-order="fill stroke markers" d=" M 52 143 L 56 143" stroke-linejoin="bevel" stroke-miterlimit="10"/><path fill="none" stroke="black" paint-order="fill stroke markers" d=" M 52 138 L 56 138" stroke-linejoin="bevel" stroke-miterlimit="10"/><path fill="none" stroke="black" paint-order="fill stroke markers" d=" M 52 132 L 56 132" stroke-linejoin="bevel" stroke-miterlimit="10"/><path fill="none" stroke="black" paint-order="fill stroke markers" d=" M 52 127 L 56 127" stroke-linejoin="bevel" stroke-miterlimit="10"/><path fill="none" stroke="black" paint-order="fill stroke markers" d=" M 52 122 L 56 122" stroke-linejoin="bevel" stroke-miterlimit="10"/><path fill="none" stroke="black" paint-order="fill stroke markers" d=" M 52 117 L 56 117" stroke-linejoin="bevel" stroke-miterlimit="10"/><path fill="none" stroke="black" paint-order="fill stroke markers" d=" M 52 112 L 56 112" stroke-linejoin="bevel" stroke-miterlimit="10"/><path fill="none" stroke="black" paint-order="fill stroke markers" d=" M 52 106 L 56 106" stroke-linejoin="bevel" stroke-miterlimit="10"/><path fill="none" stroke="black" paint-order="fill stroke markers" d=" M 52 101 L 56 101" stroke-linejoin="bevel" stroke-miterlimit="10"/><path fill="none" stroke="black" paint-order="fill stroke markers" d=" M 52 96 L 56 96" stroke-linejoin="bevel" stroke-miterlimit="10"/><path fill="none" stroke="black" paint-order="fill stroke markers" d=" M 52 91 L 56 91" stroke-linejoin="bevel" stroke-miterlimit="10"/><path fill="none" stroke="black" paint-order="fill stroke markers" d=" M 52 86 L 56 86" stroke-linejoin="bevel" stroke-miterlimit="10"/><path fill="none" stroke="black" paint-order="fill stroke markers" d=" M 52 80 L 56 80" stroke-linejoin="bevel" stroke-miterlimit="10"/><path fill="none" stroke="black" paint-order="fill stroke markers" d=" M 52 75 L 56 75" stroke-linejoin="bevel" stroke-miterlimit="10"/><path fill="none" stroke="black" paint-order="fill stroke markers" d=" M 52 70 L 56 70" stroke-linejoin="bevel" stroke-miterlimit="10"/><path fill="none" stroke="black" paint-order="fill stroke markers" d=" M 52 65 L 56 65" stroke-linejoin="bevel" stroke-miterlimit="10"/><path fill="none" stroke="black" paint-order="fill stroke markers" d=" M 52 60 L 56 60" stroke-linejoin="bevel" stroke-miterlimit="10"/><path fill="none" stroke="black" paint-order="fill stroke markers" d=" M 52 55 L 56 55" stroke-linejoin="bevel" stroke-miterlimit="10"/><path fill="none" stroke="black" paint-order="fill stroke markers" d=" M 52 49 L 56 49" stroke-linejoin="bevel" stroke-miterlimit="10"/><path fill="none" stroke="black" paint-order="fill stroke markers" d=" M 52 44 L 56 44" stroke-linejoin="bevel" stroke-miterlimit="10"/><path fill="none" stroke="black" paint-order="fill stroke markers" d=" M 52 39 L 56 39" stroke-linejoin="bevel" stroke-miterlimit="10"/><path fill="none" stroke="black" paint-order="fill stroke markers" d=" M 52 34 L 56 34" stroke-linejoin="bevel" stroke-miterlimit="10"/><path fill="none" stroke="black" paint-order="fill stroke markers" d=" M 52 29 L 56 29" stroke-linejoin="bevel" stroke-miterlimit="10"/><path fill="" stroke="black" paint-order="fill stroke markers" d=" M 52 23 L 56 23" stroke-linejoin="bevel" stroke-miterlimit="10"/><g transform="translate(45,189) rotate(0,0,0)"><text fill="" stroke="none" font-family="helvetica" font-size="8pt" font-style="normal" font-weight="normal" text-decoration="normal" x="0" y="0" text-anchor="end" dominant-baseline="central">800</text><g transform="rotate(0,0,0) translate(-45,-189) translate(45,163) rotate(0,0,0)"><text fill="" stroke="none" font-family="helvetica" font-size="8pt" font-style="normal" font-weight="normal" text-decoration="normal" x="0" y="0" text-anchor="end" dominant-baseline="central">1000</text><g transform="rotate(0,0,0) translate(-45,-163) translate(45,138) rotate(0,0,0)"><text fill="" stroke="none" font-family="helvetica" font-size="8pt" font-style="normal" font-weight="normal" text-decoration="normal" x="0" y="0" text-anchor="end" dominant-baseline="central">1200</text><g transform="rotate(0,0,0) translate(-45,-138) translate(45,112) rotate(0,0,0)"><text fill="" stroke="none" font-family="helvetica" font-size="8pt" font-style="normal" font-weight="normal" text-decoration="normal" x="0" y="0" text-anchor="end" dominant-baseline="central">1400</text><g transform="rotate(0,0,0) translate(-45,-112) translate(45,86) rotate(0,0,0)"><text fill="" stroke="none" font-family="helvetica" font-size="8pt" font-style="normal" font-weight="normal" text-decoration="normal" x="0" y="0" text-anchor="end" dominant-baseline="central">1600</text><g transform="rotate(0,0,0) translate(-45,-86) translate(45,60) rotate(0,0,0)"><text fill="" stroke="none" font-family="helvetica" font-size="8pt" font-style="normal" font-weight="normal" text-decoration="normal" x="0" y="0" text-anchor="end" dominant-baseline="central">1800</text><g transform="rotate(0,0,0) translate(-45,-60) translate(45,34) rotate(0,0,0)"><text fill="" stroke="none" font-family="helvetica" font-size="8pt" font-style="normal" font-weight="normal" text-decoration="normal" x="0" y="0" text-anchor="end" dominant-baseline="central">2000</text><g transform="rotate(0,0,0) translate(-45,-34) translate(11,118) rotate(-90,0,0)"><text fill="" stroke="none" font-family="helvetica" font-size="10pt" font-style="italic" font-weight="normal" text-decoration="normal" x="0" y="0" text-anchor="middle" dominant-baseline="alphabetic">Number of trips</text><g transform="rotate(90,0,0) translate(-11,-118)"/></g></g></g></g></g></g></g></g></g></g><g clip-path="url(#TpOXwdqIAWKk)"><g/></g></g></g></svg>