<svg version="1.1" xmlns="http://www.w3.org/2000/svg" xmlns:xlink="http://www.w3.org/1999/xlink" width="800" height="250" style="width: 800px; height: 250px;"><defs><clipPath id="BMTscyxgORIl"><path fill="none" stroke="none" d=" M 69 22 L 596 22 L 596 230 L 69 230 L 69 22 Z"/></clipPath><clipPath id="xllbZhqrCkqt"><path fill="none" stroke="none" d=" M 69 22 L 596 22 L 596 230 L 69 230 L 69 22 Z"/></clipPath><clipPath id="mUXBhBcsPbHJ"><path fill="none" stroke="none" d=" M 69 22 L 596 22 L 596 230 L 69 230 L 69 22 Z"/></clipPath><clipPath id="aoQGZngSZWHh"><path fill="none" stroke="none" d=" M 69 22 L 596 22 L 596 230 L 69 230 L 69 22 Z"/></clipPath></defs><g><g/><g/><g/><g transform="scale(1,1) translate(0.5,0.5)"><rect fill="#FFFFFF" stroke="none" x="0" y="0" width="800" height="250"/><rect fill="#ffffff" stroke="none" x="0" y="0" width="800" height="250"/><rect fill="#FFFFFF" stroke="none" x="69" y="22" width="527" height="208"/><rect fill="#ffffff" stroke="none" x="69" y="22" width="527" height="208"/><g><rect fill="none" stroke="#e5e5e5" x="69" y="22" width="527" height="208" stroke-linejoin="bevel" stroke-miterlimit="10"/></g><g clip-path="url(#BMTscyxgORIl)"><g><g><path fill="none" stroke="#e5e5e5" paint-order="fill stroke markers" d=" M 93 230 L 93 22" stroke-linejoin="bevel" stroke-miterlimit="10"/><path fill="none" stroke="#e5e5e5" paint-order="fill stroke markers" d=" M 175 230 L 175 22" stroke-linejoin="bevel" stroke-miterlimit="10"/><path fill="none" stroke="#e5e5e5" paint-order="fill stroke markers" d=" M 252 230 L 252 22" stroke-linejoin="bevel" stroke-miterlimit="10"/><path fill="none" stroke="#e5e5e5" paint-order="fill stroke markers" d=" M 334 230 L 334 22" stroke-linejoin="bevel" stroke-miterlimit="10"/><path fill="none" stroke="#e5e5e5" paint-order="fill stroke markers" d=" M 413 230 L 413 22" stroke-linejoin="bevel" stroke-miterlimit="10"/><path fill="none" stroke="#e5e5e5" paint-order="fill stroke markers" d=" M 495 230 L 495 22" stroke-linejoin="bevel" stroke-miterlimit="10"/><path fill="none" stroke="#e5e5e5" paint-order="fill stroke markers" d=" M 575 230 L 575 22" stroke-linejoin="bevel" stroke-miterlimit="10"/></g></g></g><g clip-path="url(#xllbZhqrCkqt)"><g><g><path fill="none" stroke="#e5e5e5" paint-order="fill stroke markers" d=" M 69 205 L 596 205" stroke-linejoin="bevel" stroke-miterlimit="10"/><path fill="none" stroke="#e5e5e5" paint-order="fill stroke markers" d=" M 69 154 L 596 154" stroke-linejoin="bevel" stroke-miterlimit="10"/><path fill="none" stroke="#e5e5e5" paint-order="fill stroke markers" d=" M 69 102 L 596 102" stroke-linejoin="bevel" stroke-miterlimit="10"/><path fill="none" stroke="#e5e5e5" paint-order="fill stroke markers" d=" M 69 51 L 596 51" stroke-linejoin="bevel" stroke-miterlimit="10"/></g></g></g><g clip-path="url(#mUXBhBcsPbHJ)"><g><g><path fill="none" stroke="none"/><path fill="none" stroke="#2b83ba" paint-order="fill stroke markers" d=" M 92.95454545454413 67.10046142895922 L 95.60145655449014 96.92340772411168 L 98.24836765444343 82.73163029764879 L 100.89527875438944 91.80935878299445 L 103.54218985434272 91.96971639611868 L 106.18910095429601 91.05235844570615 L 108.83601205424202 83.380619366286 L 111.4829231541953 73.61439268535884 L 114.12983425414131 71.02770131417395 L 116.7767453540946 69.58931607805124 L 119.42365645404061 86.6847295256313 L 122.0705675539939 83.63455260613298 L 124.7174786539399 75.87278042347018 L 127.36438975389319 62.95600737900284 L 130.0113008538392 55.66039163374751 L 132.6582119537925 60.13125914911183 L 135.3051230537385 67.27041318389394 L 137.95203415369178 84.46588584147531 L 140.5989452536378 73.09831270806546 L 143.24585635359108 69.83945768264695 L 145.8927674535371 66.78723650572553 L 148.53967855349038 62.89843533728643 L 151.18658965343639 220.54545454545456 L 153.83350075338967 178.85800079171992 L 156.48041185333568 97.88283525957178 L 159.12732295328897 84.39686030823293 L 161.77423405323498 83.03386553952018 L 164.42114515318826 68.67579855797794 L 167.06805625313427 61.60861111623902 L 169.71496735308756 56.88755063302642 L 172.36187845303357 65.38984119909611 L 175.00878955298685 84.33163360109626 L 177.65570065293286 82.46684965264691 L 180.30261175288615 83.48414148672603 L 182.94952285283944 62.53262060776416 L 185.59643395278545 69.35667701515021 L 188.24334505273873 67.08105485151901 L 190.89025615268474 66.08982627231816 L 193.53716725263803 90.31857738004265 L 196.18407835258404 87.85668895179649 L 198.83098945253732 68.07103170827233 L 201.47790055248333 58.9512120653136 L 204.12481165243662 48.67822013281253 L 206.77172275238263 54.810047831636155 L 209.41863385233592 62.855348246219876 L 212.06554495228193 81.2693827219887 L 214.7124560522352 73.53977728941976 L 217.35936715218122 63.13549266711041 L 220.0062782521345 62.7234453609787 L 222.65318935208052 56.02864971315941 L 225.3001004520338 53.59025689083262 L 227.9470115519798 63.75295548540461 L 230.5939226519331 81.85906623916117 L 233.2408337518791 78.27077399369944 L 235.8877448518324 77.51694379631425 L 238.5346559517784 53.572726099349296 L 241.1815670517317 50.596226169179005 L 243.8284781516777 52.06853786040381 L 246.475389251631 49.631120426228705 L 249.122300351577 74.94611442455977 L 251.76921145153028 78.08441476159899 L 254.4161225514763 65.80372782327575 L 257.0630336514296 54.58052189542914 L 259.70994475138286 46.69596020929802 L 262.3568558513289 44.17062481059099 L 265.00376695128216 48.27436218355422 L 267.65067805122817 78.55881910998619 L 270.29758915118146 72.68112496769143 L 272.94450025112747 60.23806697677139 L 275.59141135108075 53.567874840213165 L 278.23832245102676 48.42539531194032 L 280.88523355098005 43.50852784008492 L 283.53214465092606 55.53848660547595 L 286.17905575087934 66.76074025863431 L 288.82596685082535 73.93359423657694 L 291.47287795077864 61.841639512589325 L 294.11978905072465 56.80006206527966 L 296.76670015067793 36.34133511975949 L 299.41361125062394 46.81393646243657 L 302.06052235057723 50.50323711079386 L 304.70743345052324 79.24979147340875 L 307.3543445504765 76.30473458511452 L 310.00125565042254 68.83808794300418 L 312.6481667503758 49.781391837591116 L 315.29507785032183 58.38273386665975 L 317.9419889502751 60.38605426432318 L 320.5889000502211 63.11404131861423 L 323.2358111501744 76.82279872482653 L 325.8827222501204 71.4606657909817 L 328.5296333500737 71.2896713620348 L 331.1765444500197 56.356613835140166 L 333.823455549973 55.680545546502344 L 336.4703666499263 43.26692023978114 L 339.1172777498723 53.08262925026082 L 341.7641888498256 73.5950826708326 L 344.4110999497716 58.527793448858915 L 347.0580110497249 65.4246685656349 L 349.7049221496709 52.62999418889751 L 352.3518332496242 41.28841291544586 L 354.9987443495702 42.70959094857207 L 357.6456554495235 46.02285763482155 L 360.2925665494695 74.09728943380594 L 362.93947764942277 66.81081018378714 L 365.5863887493688 65.13651866831432 L 368.23329984932207 45.871293410410715 L 370.8802109492681 34.9353765317849 L 373.52712204922136 31.454545454545467 L 376.17403314916737 36.16305327264243 L 378.82094424912066 72.37161874389037 L 381.46785534906667 75.29438089909391 L 384.11476644901995 63.58438283378166 L 386.76167754896596 60.30897908225424 L 389.40858864891925 60.181135948438026 L 392.05549974886526 63.32632461118078 L 394.70241084881854 54.661545370667824 L 397.34932194876455 80.32212622268321 L 399.99623304871784 79.74303278077434 L 402.64314414866385 71.32040970009558 L 405.29005524861714 50.581953862391345 L 407.93696634856315 51.31655930824817 L 410.58387744851643 51.75828686945104 L 413.2307885484697 55.07635910154187 L 415.8776996484157 70.47260529715393 L 418.524610748369 63.32291100946304 L 421.171521848315 56.24000692629522 L 423.8184329482683 45.703340199605236 L 426.4653440482143 43.953049562188454 L 429.1122551481676 42.949094196448385 L 431.7591662481136 53.73717787727742 L 434.4060773480669 68.26076139695826 L 437.0529884480129 74.48184815481952 L 439.6998995479662 66.97549412361428 L 442.3468106479122 49.84875063331205 L 444.9937217478655 52.0842791561937 L 447.6406328478115 40.89090397774774 L 450.2875439477648 31.951015969555158 L 452.9344550477108 53.11126323589369 L 455.5813661476641 48.559565371117145 L 458.2282772476101 61.51576330679589 L 460.8751883475634 42.11771627507676 L 463.5220994475094 41.61120578523111 L 466.1690105474627 38.170693319786665 L 468.8159216474087 46.203468805409614 L 471.462832747362 77.5817513793167 L 474.109743847308 76.07058441534491 L 476.75665494726127 63.698108264197884 L 479.4035660472073 65.0179969374411 L 482.05047714716056 76.4873155364098 L 484.6973882471066 85.10253283433013 L 487.34429934705986 91.89837489385053 L 489.99121044701315 91.92298097327466 L 492.63812154695916 80.6923771962665 L 495.28503264691244 68.11731256633803 L 497.93194374685845 57.33282842219717 L 500.57885484681174 62.34754648422407 L 503.22576594675775 48.81232496065945 L 505.87267704671103 62.53849553650892 L 508.51958814665704 67.87554779448283 L 511.16649924661033 73.1889441931923 L 513.8134103465563 69.7412824767232 L 516.4603214465096 54.713041653323415 L 519.1072325464556 46.77500260391318 L 521.7541436464089 65.55021884388898 L 524.4010547463549 62.51454690670815 L 527.0479658463082 73.25751670255374 L 529.6948769462542 76.58879391305939 L 532.3417880462075 71.4157137002413 L 534.9886991461535 54.95204205496526 L 537.6356102461068 64.39175511214339 L 540.2825213460528 70.39444480957283 L 542.9294324460061 68.3989660395666 L 545.5763435459521 80.67160230179698 L 548.2232546459054 73.82195004512505 L 550.8701657458514 70.96562420163937 L 553.5170768458047 56.968729738918626 L 556.1639879457507 53.55535504757836 L 558.810899045704 56.649877457813346 L 561.45781014565 63.595566154603404 L 564.1047212456033 74.16986827681035 L 566.7516323455566 90.34405252568737 L 569.3985434455026 77.94691636370351 L 572.0454545454559 74.38604798566058" stroke-linejoin="bevel" stroke-miterlimit="10" stroke-width="2" stroke-opacity="0.8"/></g></g></g><g><g/><g><path fill="#ffffff" stroke="#e5e5e5" paint-order="fill stroke markers" d=" M 605.921875 106 L 760.078125 106 L 760.078125 146 L 605.921875 146 L 605.921875 106 Z" fill-opacity="0.95" stroke-linejoin="bevel" stroke-miterlimit="10" stroke-opacity="0.5"/><text fill="#444444" stroke="none" font-family="helvetica" font-size="10pt" font-style="normal" font-weight="normal" text-decoration="normal" x="640.921875" y="126" text-anchor="start" dominant-baseline="central">total_distance</text><g><path fill="none" stroke="#2b83ba" paint-order="fill stroke markers" d=" M 615.921875 126 L 635.921875 126" stroke-linejoin="bevel" stroke-miterlimit="10" stroke-width="2" stroke-opacity="0.8"/></g></g></g><g><g fill="#444444"><path fill="" stroke="none" d=""/><g transform="translate(69,17)"><path fill="none" stroke="none"/><text fill="" stroke="none" font-family="helvetica" font-size="10pt" font-style="normal" font-weight="bold" text-decoration="normal" x="0" y="0" text-anchor="start" dominant-baseline="text-after-edge">Somma delle distaze per ogni giorno</text></g></g></g><g/><g><g fill="#444444"><path fill="none" stroke="black" paint-order="fill stroke markers" d=" M 69 230 L 596 230" stroke-linejoin="bevel" stroke-miterlimit="10"/><path fill="none" stroke="black" paint-order="fill stroke markers" d=" M 93 236 L 93 228" stroke-linejoin="bevel" stroke-miterlimit="10"/><path fill="none" stroke="black" paint-order="fill stroke markers" d=" M 175 236 L 175 228" stroke-linejoin="bevel" stroke-miterlimit="10"/><path fill="none" stroke="black" paint-order="fill stroke markers" d=" M 252 236 L 252 228" stroke-linejoin="bevel" stroke-miterlimit="10"/><path fill="none" stroke="black" paint-order="fill stroke markers" d=" M 334 236 L 334 228" stroke-linejoin="bevel" stroke-miterlimit="10"/><path fill="none" stroke="black" paint-order="fill stroke markers" d=" M 413 236 L 413 228" stroke-linejoin="bevel" stroke-miterlimit="10"/><path fill="none" stroke="black" paint-order="fill stroke markers" d=" M 495 236 L 495 228" stroke-linejoin="bevel" stroke-miterlimit="10"/><path fill="" stroke="black" paint-order="fill stroke markers" d=" M 575 236 L 575 228" stroke-linejoin="bevel" stroke-miterlimit="10"/><g transform="translate(93,241) rotate(0,0,0)"><text fill="" stroke="none" font-family="helvetica" font-size="8pt" font-style="normal" font-weight="normal" text-decoration="normal" x="0" y="0" text-anchor="middle" dominant-baseline="hanging">1/2016</text><g transform="rotate(0,0,0) translate(-93,-241) translate(175,241) rotate(0,0,0)"><text fill="" stroke="none" font-family="helvetica" font-size="8pt" font-style="normal" font-weight="normal" text-decoration="normal" x="0" y="0" text-anchor="middle" dominant-baseline="hanging">2/2016</text><g transform="rotate(0,0,0) translate(-175,-241) translate(252,241) rotate(0,0,0)"><text fill="" stroke="none" font-family="helvetica" font-size="8pt" font-style="normal" font-weight="normal" text-decoration="normal" x="0" y="0" text-anchor="middle" dominant-baseline="hanging">3/2016</text><g transform="rotate(0,0,0) translate(-252,-241) translate(334,241) rotate(0,0,0)"><text fill="" stroke="none" font-family="helvetica" font-size="8pt" font-style="normal" font-weight="normal" text-decoration="normal" x="0" y="0" text-anchor="middle" dominant-baseline="hanging">4/2016</text><g transform="rotate(0,0,0) translate(-334,-241) translate(413,241) rotate(0,0,0)"><text fill="" stroke="none" font-family="helvetica" font-size="8pt" font-style="normal" font-weight="normal" text-decoration="normal" x="0" y="0" text-anchor="middle" dominant-baseline="hanging">5/2016</text><g transform="rotate(0,0,0) translate(-413,-241) translate(495,241) rotate(0,0,0)"><text fill="" stroke="none" font-family="helvetica" font-size="8pt" font-style="normal" font-weight="normal" text-decoration="normal" x="0" y="0" text-anchor="middle" dominant-baseline="hanging">6/2016</text><g transform="rotate(0,0,0) translate(-495,-241) translate(575,241) rotate(0,0,0)"><text fill="" stroke="none" font-family="helvetica" font-size="8pt" font-style="normal" font-weight="normal" text-decoration="normal" x="0" y="0" text-anchor="middle" dominant-baseline="hanging">7/2016</text><g transform="rotate(0,0,0) translate(-575,-241)"/></g></g></g></g></g></g></g></g></g><g><g fill="#444444"><path fill="none" stroke="black" paint-order="fill stroke markers" d=" M 69 230 L 69 22" stroke-linejoin="bevel" stroke-miterlimit="10"/><path fill="none" stroke="black" paint-order="fill stroke markers" d=" M 63 205 L 71 205" stroke-linejoin="bevel" stroke-miterlimit="10"/><path fill="none" stroke="black" paint-order="fill stroke markers" d=" M 63 154 L 71 154" stroke-linejoin="bevel" stroke-miterlimit="10"/><path fill="none" stroke="black" paint-order="fill stroke markers" d=" M 63 102 L 71 102" stroke-linejoin="bevel" stroke-miterlimit="10"/><path fill="none" stroke="black" paint-order="fill stroke markers" d=" M 63 51 L 71 51" stroke-linejoin="bevel" stroke-miterlimit="10"/><path fill="none" stroke="black" paint-order="fill stroke markers" d=" M 65 215 L 69 215" stroke-linejoin="bevel" stroke-miterlimit="10"/><path fill="none" stroke="black" paint-order="fill stroke markers" d=" M 65 226 L 69 226" stroke-linejoin="bevel" stroke-miterlimit="10"/><path fill="none" stroke="black" paint-order="fill stroke markers" d=" M 65 205 L 69 205" stroke-linejoin="bevel" stroke-miterlimit="10"/><path fill="none" stroke="black" paint-order="fill stroke markers" d=" M 65 195 L 69 195" stroke-linejoin="bevel" stroke-miterlimit="10"/><path fill="none" stroke="black" paint-order="fill stroke markers" d=" M 65 184 L 69 184" stroke-linejoin="bevel" stroke-miterlimit="10"/><path fill="none" stroke="black" paint-order="fill stroke markers" d=" M 65 174 L 69 174" stroke-linejoin="bevel" stroke-miterlimit="10"/><path fill="none" stroke="black" paint-order="fill stroke markers" d=" M 65 164 L 69 164" stroke-linejoin="bevel" stroke-miterlimit="10"/><path fill="none" stroke="black" paint-order="fill stroke markers" d=" M 65 154 L 69 154" stroke-linejoin="bevel" stroke-miterlimit="10"/><path fill="none" stroke="black" paint-order="fill stroke markers" d=" M 65 143 L 69 143" stroke-linejoin="bevel" stroke-miterlimit="10"/><path fill="none" stroke="black" paint-order="fill stroke markers" d=" M 65 133 L 69 133" stroke-linejoin="bevel" stroke-miterlimit="10"/><path fill="none" stroke="black" paint-order="fill stroke markers" d=" M 65 123 L 69 123" stroke-linejoin="bevel" stroke-miterlimit="10"/><path fill="none" stroke="black" paint-order="fill stroke markers" d=" M 65 113 L 69 113" stroke-linejoin="bevel" stroke-miterlimit="10"/><path fill="none" stroke="black" paint-order="fill stroke markers" d=" M 65 102 L 69 102" stroke-linejoin="bevel" stroke-miterlimit="10"/><path fill="none" stroke="black" paint-order="fill stroke markers" d=" M 65 92 L 69 92" stroke-linejoin="bevel" stroke-miterlimit="10"/><path fill="none" stroke="black" paint-order="fill stroke markers" d=" M 65 82 L 69 82" stroke-linejoin="bevel" stroke-miterlimit="10"/><path fill="none" stroke="black" paint-order="fill stroke markers" d=" M 65 71 L 69 71" stroke-linejoin="bevel" stroke-miterlimit="10"/><path fill="none" stroke="black" paint-order="fill stroke markers" d=" M 65 61 L 69 61" stroke-linejoin="bevel" stroke-miterlimit="10"/><path fill="none" stroke="black" paint-order="fill stroke markers" d=" M 65 51 L 69 51" stroke-linejoin="bevel" stroke-miterlimit="10"/><path fill="none" stroke="black" paint-order="fill stroke markers" d=" M 65 41 L 69 41" stroke-linejoin="bevel" stroke-miterlimit="10"/><path fill="" stroke="black" paint-order="fill stroke markers" d=" M 65 30 L 69 30" stroke-linejoin="bevel" stroke-miterlimit="10"/><g transform="translate(58,205) rotate(0,0,0)"><text fill="" stroke="none" font-family="helvetica" font-size="8pt" font-style="normal" font-weight="normal" text-decoration="normal" x="0" y="0" text-anchor="end" dominant-baseline="central">1.000e+7</text><g transform="rotate(0,0,0) translate(-58,-205) translate(58,154) rotate(0,0,0)"><text fill="" stroke="none" font-family="helvetica" font-size="8pt" font-style="normal" font-weight="normal" text-decoration="normal" x="0" y="0" text-anchor="end" dominant-baseline="central">2.000e+7</text><g transform="rotate(0,0,0) translate(-58,-154) translate(58,102) rotate(0,0,0)"><text fill="" stroke="none" font-family="helvetica" font-size="8pt" font-style="normal" font-weight="normal" text-decoration="normal" x="0" y="0" text-anchor="end" dominant-baseline="central">3.000e+7</text><g transform="rotate(0,0,0) translate(-58,-102) translate(58,51) rotate(0,0,0)"><text fill="" stroke="none" font-family="helvetica" font-size="8pt" font-style="normal" font-weight="normal" text-decoration="normal" x="0" y="0" text-anchor="end" dominant-baseline="central">4.000e+7</text><g transform="rotate(0,0,0) translate(-58,-51)"/></g></g></g></g></g></g><g clip-path="url(#aoQGZngSZWHh)"><g/></g></g></g></svg>