<svg version="1.1" xmlns="http://www.w3.org/2000/svg" xmlns:xlink="http://www.w3.org/1999/xlink" width="800" height="250" style="width: 800px; height: 250px;"><defs><clipPath id="dzTHposiVlCu"><path fill="none" stroke="none" d=" M 63 30 L 665 30 L 665 213 L 63 213 L 63 30 Z"/></clipPath><clipPath id="VgcTzTRcZziQ"><path fill="none" stroke="none" d=" M 63 30 L 665 30 L 665 213 L 63 213 L 63 30 Z"/></clipPath><clipPath id="pryGlRyZIadv"><path fill="none" stroke="none" d=" M 63 30 L 665 30 L 665 213 L 63 213 L 63 30 Z"/></clipPath><clipPath id="CqspCwqKcvSq"><path fill="none" stroke="none" d=" M 63 30 L 665 30 L 665 213 L 63 213 L 63 30 Z"/></clipPath><clipPath id="vRSXzGBLZVoC"><path fill="none" stroke="none" d=" M 63 30 L 665 30 L 665 213 L 63 213 L 63 30 Z"/></clipPath><clipPath id="aqSBwhJytuIL"><path fill="none" stroke="none" d=" M 63 30 L 665 30 L 665 213 L 63 213 L 63 30 Z"/></clipPath><clipPath id="ZuqnOHCxkxrD"><path fill="none" stroke="none" d=" M 63 30 L 665 30 L 665 213 L 63 213 L 63 30 Z"/></clipPath><clipPath id="dTXgwQiaPeIp"><path fill="none" stroke="none" d=" M 63 30 L 665 30 L 665 213 L 63 213 L 63 30 Z"/></clipPath><clipPath id="ntqvLXHhZHvv"><path fill="none" stroke="none" d=" M 63 30 L 665 30 L 665 213 L 63 213 L 63 30 Z"/></clipPath><clipPath id="ExhTHrdzhRAk"><path fill="none" stroke="none" d=" M 63 30 L 665 30 L 665 213 L 63 213 L 63 30 Z"/></clipPath></defs><g><g/><g/><g/><g transform="scale(1,1) translate(0.5,0.5)"><rect fill="#FFFFFF" stroke="none" x="0" y="0" width="800" height="250"/><rect fill="#ffffff" stroke="none" x="0" y="0" width="800" height="250"/><rect fill="#FFFFFF" stroke="none" x="63" y="30" width="602" height="183"/><rect fill="#ffffff" stroke="none" x="63" y="30" width="602" height="183"/><g><rect fill="none" stroke="#e5e5e5" x="63" y="30" width="602" height="183" stroke-linejoin="bevel" stroke-miterlimit="10"/></g><g clip-path="url(#dzTHposiVlCu)"><g><g><path fill="none" stroke="#e5e5e5" paint-order="fill stroke markers" d=" M 90 213 L 90 30" stroke-linejoin="bevel" stroke-miterlimit="10"/><path fill="none" stroke="#e5e5e5" paint-order="fill stroke markers" d=" M 209 213 L 209 30" stroke-linejoin="bevel" stroke-miterlimit="10"/><path fill="none" stroke="#e5e5e5" paint-order="fill stroke markers" d=" M 328 213 L 328 30" stroke-linejoin="bevel" stroke-miterlimit="10"/><path fill="none" stroke="#e5e5e5" paint-order="fill stroke markers" d=" M 447 213 L 447 30" stroke-linejoin="bevel" stroke-miterlimit="10"/><path fill="none" stroke="#e5e5e5" paint-order="fill stroke markers" d=" M 566 213 L 566 30" stroke-linejoin="bevel" stroke-miterlimit="10"/></g></g></g><g clip-path="url(#VgcTzTRcZziQ)"><g><g><path fill="none" stroke="#e5e5e5" paint-order="fill stroke markers" d=" M 63 192 L 665 192" stroke-linejoin="bevel" stroke-miterlimit="10"/><path fill="none" stroke="#e5e5e5" paint-order="fill stroke markers" d=" M 63 167 L 665 167" stroke-linejoin="bevel" stroke-miterlimit="10"/><path fill="none" stroke="#e5e5e5" paint-order="fill stroke markers" d=" M 63 142 L 665 142" stroke-linejoin="bevel" stroke-miterlimit="10"/><path fill="none" stroke="#e5e5e5" paint-order="fill stroke markers" d=" M 63 116 L 665 116" stroke-linejoin="bevel" stroke-miterlimit="10"/><path fill="none" stroke="#e5e5e5" paint-order="fill stroke markers" d=" M 63 91 L 665 91" stroke-linejoin="bevel" stroke-miterlimit="10"/><path fill="none" stroke="#e5e5e5" paint-order="fill stroke markers" d=" M 63 66 L 665 66" stroke-linejoin="bevel" stroke-miterlimit="10"/><path fill="none" stroke="#e5e5e5" paint-order="fill stroke markers" d=" M 63 41 L 665 41" stroke-linejoin="bevel" stroke-miterlimit="10"/></g></g></g><g clip-path="url(#pryGlRyZIadv)"><g><g><path fill="none" stroke="none"/><path fill="none" stroke="#3288bd" paint-order="fill stroke markers" d=" M 90.36363636363637 163.141460180658 L 114.15810276679844 184.89106654512304 L 137.9525691699605 196.5178171873705 L 161.74703557312256 201.9773348802519 L 185.54150197628462 200.3976133255987 L 209.33596837944668 190.33794646556723 L 233.13043478260872 149.7706969420734 L 256.92490118577075 108.53364547940663 L 280.71936758893287 86.77140134250433 L 304.5138339920949 91.00505510897487 L 328.308300395257 108.4704566172205 L 352.102766798419 106.47368857213888 L 375.89723320158106 102.08838153642164 L 399.6916996047431 102.25267257810556 L 423.4861660079052 92.23091903538575 L 447.28063241106724 91.6116681859617 L 471.0750988142293 101.70924836330487 L 494.86956521739137 80.26294853733322 L 518.6640316205535 53.69835087428524 L 542.4584980237155 62.86073589127372 L 566.2529644268775 74.23473108477666 L 590.0474308300396 76.02929477086266 L 613.8418972332016 96.04752631142784 L 637.6363636363637 129.44915886301482" stroke-linejoin="bevel" stroke-miterlimit="10" stroke-width="5" stroke-opacity="0.8"/></g></g></g><g clip-path="url(#CqspCwqKcvSq)"><g><g><path fill="none" stroke="none"/><path fill="none" stroke="#99d594" paint-order="fill stroke markers" d=" M 90.36363636363637 160.5254412861523 L 114.15810276679844 184.94161763487193 L 137.9525691699605 198.41348305295432 L 161.74703557312256 204.68181818181816 L 185.54150197628462 203.03890776497886 L 209.33596837944668 190.60333968674897 L 233.13043478260872 144.43755697356426 L 256.92490118577075 90.46163089417418 L 280.71936758893287 70.77198143697686 L 304.5138339920949 79.02444683848512 L 328.308300395257 97.48823236927156 L 352.102766798419 94.13922267340679 L 375.89723320158106 94.30351371509073 L 399.6916996047431 93.12820087842876 L 423.4861660079052 85.7603795475263 L 447.28063241106724 89.8802933620618 L 471.0750988142293 104.38845611999668 L 494.86956521739137 77.36889864920857 L 518.6640316205535 47.151984751802416 L 542.4584980237155 52.62414021712107 L 566.2529644268775 56.642951852158774 L 590.0474308300396 57.05999834258722 L 613.8418972332016 72.09894754288555 L 637.6363636363637 108.07868567166652" stroke-linejoin="bevel" stroke-miterlimit="10" stroke-width="5" stroke-opacity="0.8"/></g></g></g><g clip-path="url(#vRSXzGBLZVoC)"><g><g><path fill="none" stroke="none"/><path fill="none" stroke="#e6f598" paint-order="fill stroke markers" d=" M 90.36363636363637 150.14983011519018 L 114.15810276679844 177.8644650700257 L 137.9525691699605 193.58585398193418 L 161.74703557312256 201.29489516864174 L 185.54150197628462 201.64875279688405 L 209.33596837944668 191.09621281180077 L 233.13043478260872 143.75511726195407 L 256.92490118577075 86.7461257976299 L 280.71936758893287 67.22076738211649 L 304.5138339920949 78.54421148587053 L 328.308300395257 94.49308030164912 L 352.102766798419 92.76170547774922 L 375.89723320158106 86.08896163089418 L 399.6916996047431 89.18521587801442 L 423.4861660079052 83.37184055689067 L 447.28063241106724 90.72702411535592 L 471.0750988142293 106.1830198060827 L 494.86956521739137 80.17448413027265 L 518.6640316205535 50.7158365791 L 542.4584980237155 44.42222590536173 L 566.2529644268775 50.86748984834671 L 590.0474308300396 47.64485787685422 L 613.8418972332016 60.6744012596337 L 637.6363636363637 94.44252921190021" stroke-linejoin="bevel" stroke-miterlimit="10" stroke-width="5" stroke-opacity="0.8"/></g></g></g><g clip-path="url(#aqSBwhJytuIL)"><g><g><path fill="none" stroke="none"/><path fill="none" stroke="#ffffbf" paint-order="fill stroke markers" d=" M 90.36363636363637 137.865915306207 L 114.15810276679844 171.5708543962874 L 137.9525691699605 190.3632220104417 L 161.74703557312256 197.88269661059084 L 185.54150197628462 199.96792906273305 L 209.33596837944668 189.39011353277533 L 233.13043478260872 141.00008287063892 L 256.92490118577075 85.93730836164747 L 280.71936758893287 66.6267920775669 L 304.5138339920949 79.47940664622524 L 328.308300395257 91.68749482058506 L 352.102766798419 90.90395292947707 L 375.89723320158106 85.53289964365624 L 399.6916996047431 87.8456119996685 L 423.4861660079052 79.39094223916464 L 447.28063241106724 85.4697107814701 L 471.0750988142293 106.76435733819507 L 494.86956521739137 82.44928316897321 L 518.6640316205535 46.393718405568904 L 542.4584980237155 39.70833678627662 L 566.2529644268775 45.167854479158024 L 590.0474308300396 38.38137068036792 L 613.8418972332016 47.82178669097539 L 637.6363636363637 69.41973978619373" stroke-linejoin="bevel" stroke-miterlimit="10" stroke-width="5" stroke-opacity="0.8"/></g></g></g><g clip-path="url(#ZuqnOHCxkxrD)"><g><g><path fill="none" stroke="none"/><path fill="none" stroke="#fee08b" paint-order="fill stroke markers" d=" M 90.36363636363637 106.52423966188778 L 114.15810276679844 144.1216126626336 L 137.9525691699605 167.5646805336869 L 161.74703557312256 180.51839728184302 L 185.54150197628462 188.2400762409878 L 209.33596837944668 186.3696859202784 L 233.13043478260872 147.40743349631225 L 256.92490118577075 96.06016408386508 L 280.71936758893287 72.57918289550011 L 304.5138339920949 84.10483135824975 L 328.308300395257 96.84370597497305 L 352.102766798419 95.25134664788264 L 375.89723320158106 87.42856550924006 L 399.6916996047431 89.47588464407059 L 423.4861660079052 78.96125797629898 L 447.28063241106724 88.31320957984585 L 471.0750988142293 105.91762658490096 L 494.86956521739137 78.11452722300487 L 518.6640316205535 47.98607773265931 L 542.4584980237155 38.31818181818181 L 566.2529644268775 55.31598574625008 L 590.0474308300396 58.4880666279937 L 613.8418972332016 49.553161514875256 L 637.6363636363637 50.89276539322117" stroke-linejoin="bevel" stroke-miterlimit="10" stroke-width="5" stroke-opacity="0.8"/></g></g></g><g clip-path="url(#dTXgwQiaPeIp)"><g><g><path fill="none" stroke="none"/><path fill="none" stroke="#fc8d59" paint-order="fill stroke markers" d=" M 90.36363636363637 68.74993784702079 L 114.15810276679844 91.23253501284493 L 137.9525691699605 113.33599900555232 L 161.74703557312256 141.1770116847601 L 185.54150197628462 168.82845777740945 L 209.33596837944668 192.23361233115105 L 233.13043478260872 185.43449075992373 L 256.92490118577075 170.37026601475097 L 280.71936758893287 148.21625093229466 L 304.5138339920949 117.89823485539073 L 328.308300395257 98.76464738543133 L 352.102766798419 87.70659650285901 L 375.89723320158106 75.43531946631308 L 399.6916996047431 73.96933786359492 L 423.4861660079052 80.06074417833761 L 447.28063241106724 80.1618463578354 L 471.0750988142293 91.14407060578436 L 494.86956521739137 75.04354852075909 L 518.6640316205535 54.19122399933701 L 542.4584980237155 52.56095135493493 L 566.2529644268775 75.57433496312257 L 590.0474308300396 73.72922018728764 L 613.8418972332016 61.12936106737382 L 637.6363636363637 51.08233197977955" stroke-linejoin="bevel" stroke-miterlimit="10" stroke-width="5" stroke-opacity="0.8"/></g></g></g><g clip-path="url(#ntqvLXHhZHvv)"><g><g><path fill="none" stroke="none"/><path fill="none" stroke="#d53e4f" paint-order="fill stroke markers" d=" M 90.36363636363637 62.405776083533596 L 114.15810276679844 80.22503522002154 L 137.9525691699605 109.0138808320212 L 161.74703557312256 130.70029833430016 L 185.54150197628462 160.60126792077565 L 209.33596837944668 192.67593436645396 L 233.13043478260872 190.31267092069277 L 256.92490118577075 181.52941907682106 L 280.71936758893287 162.7117759177923 L 304.5138339920949 137.13292450484792 L 328.308300395257 107.57317477417749 L 352.102766798419 89.6780890030662 L 375.89723320158106 83.10644733570894 L 399.6916996047431 83.18227397033229 L 423.4861660079052 83.63723377807241 L 447.28063241106724 88.60387834590205 L 471.0750988142293 93.41886964448494 L 494.86956521739137 82.31026767216375 L 518.6640316205535 77.17933206265019 L 542.4584980237155 90.51218198392309 L 566.2529644268775 102.01255490179828 L 590.0474308300396 107.05502610425125 L 613.8418972332016 117.73394381370679 L 637.6363636363637 137.00654678047567" stroke-linejoin="bevel" stroke-miterlimit="10" stroke-width="5" stroke-opacity="0.8"/></g></g></g><g><g/><g><path fill="#ffffff" stroke="#e5e5e5" paint-order="fill stroke markers" d=" M 674.9140625 32.5 L 790.0859375 32.5 L 790.0859375 210.5 L 674.9140625 210.5 L 674.9140625 32.5 Z" fill-opacity="0.95" stroke-linejoin="bevel" stroke-miterlimit="10" stroke-opacity="0.5"/><text fill="#444444" stroke="none" font-family="helvetica" font-size="10pt" font-style="normal" font-weight="normal" text-decoration="normal" x="709.9140625" y="52.5" text-anchor="start" dominant-baseline="central">Monday</text><g><path fill="none" stroke="#3288bd" paint-order="fill stroke markers" d=" M 684.9140625 52.5 L 704.9140625 52.5" stroke-linejoin="bevel" stroke-miterlimit="10" stroke-width="5" stroke-opacity="0.8"/></g><text fill="#444444" stroke="none" font-family="helvetica" font-size="10pt" font-style="normal" font-weight="normal" text-decoration="normal" x="709.9140625" y="75.5" text-anchor="start" dominant-baseline="central">Tuesday</text><g><path fill="none" stroke="#99d594" paint-order="fill stroke markers" d=" M 684.9140625 75.5 L 704.9140625 75.5" stroke-linejoin="bevel" stroke-miterlimit="10" stroke-width="5" stroke-opacity="0.8"/></g><text fill="#444444" stroke="none" font-family="helvetica" font-size="10pt" font-style="normal" font-weight="normal" text-decoration="normal" x="709.9140625" y="98.5" text-anchor="start" dominant-baseline="central">Wednesday</text><g><path fill="none" stroke="#e6f598" paint-order="fill stroke markers" d=" M 684.9140625 98.5 L 704.9140625 98.5" stroke-linejoin="bevel" stroke-miterlimit="10" stroke-width="5" stroke-opacity="0.8"/></g><text fill="#444444" stroke="none" font-family="helvetica" font-size="10pt" font-style="normal" font-weight="normal" text-decoration="normal" x="709.9140625" y="121.5" text-anchor="start" dominant-baseline="central">Thursday</text><g><path fill="none" stroke="#ffffbf" paint-order="fill stroke markers" d=" M 684.9140625 121.5 L 704.9140625 121.5" stroke-linejoin="bevel" stroke-miterlimit="10" stroke-width="5" stroke-opacity="0.8"/></g><text fill="#444444" stroke="none" font-family="helvetica" font-size="10pt" font-style="normal" font-weight="normal" text-decoration="normal" x="709.9140625" y="144.5" text-anchor="start" dominant-baseline="central">Friday</text><g><path fill="none" stroke="#fee08b" paint-order="fill stroke markers" d=" M 684.9140625 144.5 L 704.9140625 144.5" stroke-linejoin="bevel" stroke-miterlimit="10" stroke-width="5" stroke-opacity="0.8"/></g><text fill="#444444" stroke="none" font-family="helvetica" font-size="10pt" font-style="normal" font-weight="normal" text-decoration="normal" x="709.9140625" y="167.5" text-anchor="start" dominant-baseline="central">Saturday</text><g><path fill="none" stroke="#fc8d59" paint-order="fill stroke markers" d=" M 684.9140625 167.5 L 704.9140625 167.5" stroke-linejoin="bevel" stroke-miterlimit="10" stroke-width="5" stroke-opacity="0.8"/></g><text fill="#444444" stroke="none" font-family="helvetica" font-size="10pt" font-style="normal" font-weight="normal" text-decoration="normal" x="709.9140625" y="190.5" text-anchor="start" dominant-baseline="central">Sunday</text><g><path fill="none" stroke="#d53e4f" paint-order="fill stroke markers" d=" M 684.9140625 190.5 L 704.9140625 190.5" stroke-linejoin="bevel" stroke-miterlimit="10" stroke-width="5" stroke-opacity="0.8"/></g></g></g><g><g fill="#444444"><path fill="" stroke="none" d=""/><g transform="translate(63,17)"><path fill="none" stroke="none"/><text fill="" stroke="none" font-family="helvetica" font-size="10pt" font-style="normal" font-weight="bold" text-decoration="normal" x="0" y="0" text-anchor="start" dominant-baseline="text-after-edge">Number of trips by hour and week day</text></g></g></g><g/><g><g fill="#444444"><path fill="none" stroke="black" paint-order="fill stroke markers" d=" M 63 213 L 665 213" stroke-linejoin="bevel" stroke-miterlimit="10"/><path fill="none" stroke="black" paint-order="fill stroke markers" d=" M 90 219 L 90 211" stroke-linejoin="bevel" stroke-miterlimit="10"/><path fill="none" stroke="black" paint-order="fill stroke markers" d=" M 209 219 L 209 211" stroke-linejoin="bevel" stroke-miterlimit="10"/><path fill="none" stroke="black" paint-order="fill stroke markers" d=" M 328 219 L 328 211" stroke-linejoin="bevel" stroke-miterlimit="10"/><path fill="none" stroke="black" paint-order="fill stroke markers" d=" M 447 219 L 447 211" stroke-linejoin="bevel" stroke-miterlimit="10"/><path fill="none" stroke="black" paint-order="fill stroke markers" d=" M 566 219 L 566 211" stroke-linejoin="bevel" stroke-miterlimit="10"/><path fill="none" stroke="black" paint-order="fill stroke markers" d=" M 67 217 L 67 213" stroke-linejoin="bevel" stroke-miterlimit="10"/><path fill="none" stroke="black" paint-order="fill stroke markers" d=" M 90 217 L 90 213" stroke-linejoin="bevel" stroke-miterlimit="10"/><path fill="none" stroke="black" paint-order="fill stroke markers" d=" M 114 217 L 114 213" stroke-linejoin="bevel" stroke-miterlimit="10"/><path fill="none" stroke="black" paint-order="fill stroke markers" d=" M 138 217 L 138 213" stroke-linejoin="bevel" stroke-miterlimit="10"/><path fill="none" stroke="black" paint-order="fill stroke markers" d=" M 162 217 L 162 213" stroke-linejoin="bevel" stroke-miterlimit="10"/><path fill="none" stroke="black" paint-order="fill stroke markers" d=" M 186 217 L 186 213" stroke-linejoin="bevel" stroke-miterlimit="10"/><path fill="none" stroke="black" paint-order="fill stroke markers" d=" M 209 217 L 209 213" stroke-linejoin="bevel" stroke-miterlimit="10"/><path fill="none" stroke="black" paint-order="fill stroke markers" d=" M 233 217 L 233 213" stroke-linejoin="bevel" stroke-miterlimit="10"/><path fill="none" stroke="black" paint-order="fill stroke markers" d=" M 257 217 L 257 213" stroke-linejoin="bevel" stroke-miterlimit="10"/><path fill="none" stroke="black" paint-order="fill stroke markers" d=" M 281 217 L 281 213" stroke-linejoin="bevel" stroke-miterlimit="10"/><path fill="none" stroke="black" paint-order="fill stroke markers" d=" M 305 217 L 305 213" stroke-linejoin="bevel" stroke-miterlimit="10"/><path fill="none" stroke="black" paint-order="fill stroke markers" d=" M 328 217 L 328 213" stroke-linejoin="bevel" stroke-miterlimit="10"/><path fill="none" stroke="black" paint-order="fill stroke markers" d=" M 352 217 L 352 213" stroke-linejoin="bevel" stroke-miterlimit="10"/><path fill="none" stroke="black" paint-order="fill stroke markers" d=" M 376 217 L 376 213" stroke-linejoin="bevel" stroke-miterlimit="10"/><path fill="none" stroke="black" paint-order="fill stroke markers" d=" M 400 217 L 400 213" stroke-linejoin="bevel" stroke-miterlimit="10"/><path fill="none" stroke="black" paint-order="fill stroke markers" d=" M 423 217 L 423 213" stroke-linejoin="bevel" stroke-miterlimit="10"/><path fill="none" stroke="black" paint-order="fill stroke markers" d=" M 447 217 L 447 213" stroke-linejoin="bevel" stroke-miterlimit="10"/><path fill="none" stroke="black" paint-order="fill stroke markers" d=" M 471 217 L 471 213" stroke-linejoin="bevel" stroke-miterlimit="10"/><path fill="none" stroke="black" paint-order="fill stroke markers" d=" M 495 217 L 495 213" stroke-linejoin="bevel" stroke-miterlimit="10"/><path fill="none" stroke="black" paint-order="fill stroke markers" d=" M 519 217 L 519 213" stroke-linejoin="bevel" stroke-miterlimit="10"/><path fill="none" stroke="black" paint-order="fill stroke markers" d=" M 542 217 L 542 213" stroke-linejoin="bevel" stroke-miterlimit="10"/><path fill="none" stroke="black" paint-order="fill stroke markers" d=" M 566 217 L 566 213" stroke-linejoin="bevel" stroke-miterlimit="10"/><path fill="none" stroke="black" paint-order="fill stroke markers" d=" M 590 217 L 590 213" stroke-linejoin="bevel" stroke-miterlimit="10"/><path fill="none" stroke="black" paint-order="fill stroke markers" d=" M 614 217 L 614 213" stroke-linejoin="bevel" stroke-miterlimit="10"/><path fill="none" stroke="black" paint-order="fill stroke markers" d=" M 638 217 L 638 213" stroke-linejoin="bevel" stroke-miterlimit="10"/><path fill="" stroke="black" paint-order="fill stroke markers" d=" M 661 217 L 661 213" stroke-linejoin="bevel" stroke-miterlimit="10"/><g transform="translate(90,224) rotate(0,0,0)"><text fill="" stroke="none" font-family="helvetica" font-size="8pt" font-style="normal" font-weight="normal" text-decoration="normal" x="0" y="0" text-anchor="middle" dominant-baseline="hanging">0</text><g transform="rotate(0,0,0) translate(-90,-224) translate(209,224) rotate(0,0,0)"><text fill="" stroke="none" font-family="helvetica" font-size="8pt" font-style="normal" font-weight="normal" text-decoration="normal" x="0" y="0" text-anchor="middle" dominant-baseline="hanging">5</text><g transform="rotate(0,0,0) translate(-209,-224) translate(328,224) rotate(0,0,0)"><text fill="" stroke="none" font-family="helvetica" font-size="8pt" font-style="normal" font-weight="normal" text-decoration="normal" x="0" y="0" text-anchor="middle" dominant-baseline="hanging">10</text><g transform="rotate(0,0,0) translate(-328,-224) translate(447,224) rotate(0,0,0)"><text fill="" stroke="none" font-family="helvetica" font-size="8pt" font-style="normal" font-weight="normal" text-decoration="normal" x="0" y="0" text-anchor="middle" dominant-baseline="hanging">15</text><g transform="rotate(0,0,0) translate(-447,-224) translate(566,224) rotate(0,0,0)"><text fill="" stroke="none" font-family="helvetica" font-size="8pt" font-style="normal" font-weight="normal" text-decoration="normal" x="0" y="0" text-anchor="middle" dominant-baseline="hanging">20</text><g transform="rotate(0,0,0) translate(-566,-224) translate(364,238) rotate(0,0,0)"><text fill="" stroke="none" font-family="helvetica" font-size="10pt" font-style="italic" font-weight="normal" text-decoration="normal" x="0" y="0" text-anchor="middle" dominant-baseline="hanging">Hour of the day</text><g transform="rotate(0,0,0) translate(-364,-238)"/></g></g></g></g></g></g></g></g><g><g fill="#444444"><path fill="none" stroke="black" paint-order="fill stroke markers" d=" M 63 213 L 63 30" stroke-linejoin="bevel" stroke-miterlimit="10"/><path fill="none" stroke="black" paint-order="fill stroke markers" d=" M 57 192 L 65 192" stroke-linejoin="bevel" stroke-miterlimit="10"/><path fill="none" stroke="black" paint-order="fill stroke markers" d=" M 57 167 L 65 167" stroke-linejoin="bevel" stroke-miterlimit="10"/><path fill="none" stroke="black" paint-order="fill stroke markers" d=" M 57 142 L 65 142" stroke-linejoin="bevel" stroke-miterlimit="10"/><path fill="none" stroke="black" paint-order="fill stroke markers" d=" M 57 116 L 65 116" stroke-linejoin="bevel" stroke-miterlimit="10"/><path fill="none" stroke="black" paint-order="fill stroke markers" d=" M 57 91 L 65 91" stroke-linejoin="bevel" stroke-miterlimit="10"/><path fill="none" stroke="black" paint-order="fill stroke markers" d=" M 57 66 L 65 66" stroke-linejoin="bevel" stroke-miterlimit="10"/><path fill="none" stroke="black" paint-order="fill stroke markers" d=" M 57 41 L 65 41" stroke-linejoin="bevel" stroke-miterlimit="10"/><path fill="none" stroke="black" paint-order="fill stroke markers" d=" M 59 197 L 63 197" stroke-linejoin="bevel" stroke-miterlimit="10"/><path fill="none" stroke="black" paint-order="fill stroke markers" d=" M 59 202 L 63 202" stroke-linejoin="bevel" stroke-miterlimit="10"/><path fill="none" stroke="black" paint-order="fill stroke markers" d=" M 59 207 L 63 207" stroke-linejoin="bevel" stroke-miterlimit="10"/><path fill="none" stroke="black" paint-order="fill stroke markers" d=" M 59 212 L 63 212" stroke-linejoin="bevel" stroke-miterlimit="10"/><path fill="none" stroke="black" paint-order="fill stroke markers" d=" M 59 192 L 63 192" stroke-linejoin="bevel" stroke-miterlimit="10"/><path fill="none" stroke="black" paint-order="fill stroke markers" d=" M 59 187 L 63 187" stroke-linejoin="bevel" stroke-miterlimit="10"/><path fill="none" stroke="black" paint-order="fill stroke markers" d=" M 59 182 L 63 182" stroke-linejoin="bevel" stroke-miterlimit="10"/><path fill="none" stroke="black" paint-order="fill stroke markers" d=" M 59 177 L 63 177" stroke-linejoin="bevel" stroke-miterlimit="10"/><path fill="none" stroke="black" paint-order="fill stroke markers" d=" M 59 172 L 63 172" stroke-linejoin="bevel" stroke-miterlimit="10"/><path fill="none" stroke="black" paint-order="fill stroke markers" d=" M 59 167 L 63 167" stroke-linejoin="bevel" stroke-miterlimit="10"/><path fill="none" stroke="black" paint-order="fill stroke markers" d=" M 59 162 L 63 162" stroke-linejoin="bevel" stroke-miterlimit="10"/><path fill="none" stroke="black" paint-order="fill stroke markers" d=" M 59 157 L 63 157" stroke-linejoin="bevel" stroke-miterlimit="10"/><path fill="none" stroke="black" paint-order="fill stroke markers" d=" M 59 152 L 63 152" stroke-linejoin="bevel" stroke-miterlimit="10"/><path fill="none" stroke="black" paint-order="fill stroke markers" d=" M 59 147 L 63 147" stroke-linejoin="bevel" stroke-miterlimit="10"/><path fill="none" stroke="black" paint-order="fill stroke markers" d=" M 59 142 L 63 142" stroke-linejoin="bevel" stroke-miterlimit="10"/><path fill="none" stroke="black" paint-order="fill stroke markers" d=" M 59 137 L 63 137" stroke-linejoin="bevel" stroke-miterlimit="10"/><path fill="none" stroke="black" paint-order="fill stroke markers" d=" M 59 132 L 63 132" stroke-linejoin="bevel" stroke-miterlimit="10"/><path fill="none" stroke="black" paint-order="fill stroke markers" d=" M 59 126 L 63 126" stroke-linejoin="bevel" stroke-miterlimit="10"/><path fill="none" stroke="black" paint-order="fill stroke markers" d=" M 59 121 L 63 121" stroke-linejoin="bevel" stroke-miterlimit="10"/><path fill="none" stroke="black" paint-order="fill stroke markers" d=" M 59 116 L 63 116" stroke-linejoin="bevel" stroke-miterlimit="10"/><path fill="none" stroke="black" paint-order="fill stroke markers" d=" M 59 111 L 63 111" stroke-linejoin="bevel" stroke-miterlimit="10"/><path fill="none" stroke="black" paint-order="fill stroke markers" d=" M 59 106 L 63 106" stroke-linejoin="bevel" stroke-miterlimit="10"/><path fill="none" stroke="black" paint-order="fill stroke markers" d=" M 59 101 L 63 101" stroke-linejoin="bevel" stroke-miterlimit="10"/><path fill="none" stroke="black" paint-order="fill stroke markers" d=" M 59 96 L 63 96" stroke-linejoin="bevel" stroke-miterlimit="10"/><path fill="none" stroke="black" paint-order="fill stroke markers" d=" M 59 91 L 63 91" stroke-linejoin="bevel" stroke-miterlimit="10"/><path fill="none" stroke="black" paint-order="fill stroke markers" d=" M 59 86 L 63 86" stroke-linejoin="bevel" stroke-miterlimit="10"/><path fill="none" stroke="black" paint-order="fill stroke markers" d=" M 59 81 L 63 81" stroke-linejoin="bevel" stroke-miterlimit="10"/><path fill="none" stroke="black" paint-order="fill stroke markers" d=" M 59 76 L 63 76" stroke-linejoin="bevel" stroke-miterlimit="10"/><path fill="none" stroke="black" paint-order="fill stroke markers" d=" M 59 71 L 63 71" stroke-linejoin="bevel" stroke-miterlimit="10"/><path fill="none" stroke="black" paint-order="fill stroke markers" d=" M 59 66 L 63 66" stroke-linejoin="bevel" stroke-miterlimit="10"/><path fill="none" stroke="black" paint-order="fill stroke markers" d=" M 59 61 L 63 61" stroke-linejoin="bevel" stroke-miterlimit="10"/><path fill="none" stroke="black" paint-order="fill stroke markers" d=" M 59 56 L 63 56" stroke-linejoin="bevel" stroke-miterlimit="10"/><path fill="none" stroke="black" paint-order="fill stroke markers" d=" M 59 51 L 63 51" stroke-linejoin="bevel" stroke-miterlimit="10"/><path fill="none" stroke="black" paint-order="fill stroke markers" d=" M 59 46 L 63 46" stroke-linejoin="bevel" stroke-miterlimit="10"/><path fill="none" stroke="black" paint-order="fill stroke markers" d=" M 59 41 L 63 41" stroke-linejoin="bevel" stroke-miterlimit="10"/><path fill="none" stroke="black" paint-order="fill stroke markers" d=" M 59 35 L 63 35" stroke-linejoin="bevel" stroke-miterlimit="10"/><path fill="" stroke="black" paint-order="fill stroke markers" d=" M 59 30 L 63 30" stroke-linejoin="bevel" stroke-miterlimit="10"/><g transform="translate(52,192) rotate(0,0,0)"><text fill="" stroke="none" font-family="helvetica" font-size="8pt" font-style="normal" font-weight="normal" text-decoration="normal" x="0" y="0" text-anchor="end" dominant-baseline="central">2000</text><g transform="rotate(0,0,0) translate(-52,-192) translate(52,167) rotate(0,0,0)"><text fill="" stroke="none" font-family="helvetica" font-size="8pt" font-style="normal" font-weight="normal" text-decoration="normal" x="0" y="0" text-anchor="end" dominant-baseline="central">4000</text><g transform="rotate(0,0,0) translate(-52,-167) translate(52,142) rotate(0,0,0)"><text fill="" stroke="none" font-family="helvetica" font-size="8pt" font-style="normal" font-weight="normal" text-decoration="normal" x="0" y="0" text-anchor="end" dominant-baseline="central">6000</text><g transform="rotate(0,0,0) translate(-52,-142) translate(52,116) rotate(0,0,0)"><text fill="" stroke="none" font-family="helvetica" font-size="8pt" font-style="normal" font-weight="normal" text-decoration="normal" x="0" y="0" text-anchor="end" dominant-baseline="central">8000</text><g transform="rotate(0,0,0) translate(-52,-116) translate(52,91) rotate(0,0,0)"><text fill="" stroke="none" font-family="helvetica" font-size="8pt" font-style="normal" font-weight="normal" text-decoration="normal" x="0" y="0" text-anchor="end" dominant-baseline="central">10000</text><g transform="rotate(0,0,0) translate(-52,-91) translate(52,66) rotate(0,0,0)"><text fill="" stroke="none" font-family="helvetica" font-size="8pt" font-style="normal" font-weight="normal" text-decoration="normal" x="0" y="0" text-anchor="end" dominant-baseline="central">12000</text><g transform="rotate(0,0,0) translate(-52,-66) translate(52,41) rotate(0,0,0)"><text fill="" stroke="none" font-family="helvetica" font-size="8pt" font-style="normal" font-weight="normal" text-decoration="normal" x="0" y="0" text-anchor="end" dominant-baseline="central">14000</text><g transform="rotate(0,0,0) translate(-52,-41) translate(11,122) rotate(-90,0,0)"><text fill="" stroke="none" font-family="helvetica" font-size="10pt" font-style="italic" font-weight="normal" text-decoration="normal" x="0" y="0" text-anchor="middle" dominant-baseline="alphabetic">Number of trips</text><g transform="rotate(90,0,0) translate(-11,-122)"/></g></g></g></g></g></g></g></g></g></g><g clip-path="url(#ExhTHrdzhRAk)"><g/></g></g></g></svg>