<svg version="1.1" xmlns="http://www.w3.org/2000/svg" xmlns:xlink="http://www.w3.org/1999/xlink" width="800" height="250" style="width: 800px; height: 250px;"><defs><clipPath id="LmxTWTmBTVND"><path fill="none" stroke="none" d=" M 85 30 L 673 30 L 673 213 L 85 213 L 85 30 Z"/></clipPath><clipPath id="zhpPbPmNqPwW"><path fill="none" stroke="none" d=" M 85 30 L 673 30 L 673 213 L 85 213 L 85 30 Z"/></clipPath><clipPath id="KxLDwCWsxROD"><path fill="none" stroke="none" d=" M 85 30 L 673 30 L 673 213 L 85 213 L 85 30 Z"/></clipPath><clipPath id="iNJgHdrwIpht"><path fill="none" stroke="none" d=" M 85 30 L 673 30 L 673 213 L 85 213 L 85 30 Z"/></clipPath><clipPath id="EJWtrEbEURaQ"><path fill="none" stroke="none" d=" M 85 30 L 673 30 L 673 213 L 85 213 L 85 30 Z"/></clipPath></defs><g><g/><g/><g/><g transform="scale(1,1) translate(0.5,0.5)"><rect fill="#FFFFFF" stroke="none" x="0" y="0" width="800" height="250"/><rect fill="#ffffff" stroke="none" x="0" y="0" width="800" height="250"/><rect fill="#FFFFFF" stroke="none" x="85" y="30" width="588" height="183"/><rect fill="#ffffff" stroke="none" x="85" y="30" width="588" height="183"/><g><rect fill="none" stroke="#e5e5e5" x="85" y="30" width="588" height="183" stroke-linejoin="bevel" stroke-miterlimit="10"/></g><g clip-path="url(#LmxTWTmBTVND)"><g><g><path fill="none" stroke="#e5e5e5" paint-order="fill stroke markers" d=" M 127 213 L 127 30" stroke-linejoin="bevel" stroke-miterlimit="10"/><path fill="none" stroke="#e5e5e5" paint-order="fill stroke markers" d=" M 211 213 L 211 30" stroke-linejoin="bevel" stroke-miterlimit="10"/><path fill="none" stroke="#e5e5e5" paint-order="fill stroke markers" d=" M 295 213 L 295 30" stroke-linejoin="bevel" stroke-miterlimit="10"/><path fill="none" stroke="#e5e5e5" paint-order="fill stroke markers" d=" M 379 213 L 379 30" stroke-linejoin="bevel" stroke-miterlimit="10"/><path fill="none" stroke="#e5e5e5" paint-order="fill stroke markers" d=" M 463 213 L 463 30" stroke-linejoin="bevel" stroke-miterlimit="10"/><path fill="none" stroke="#e5e5e5" paint-order="fill stroke markers" d=" M 547 213 L 547 30" stroke-linejoin="bevel" stroke-miterlimit="10"/><path fill="none" stroke="#e5e5e5" paint-order="fill stroke markers" d=" M 631 213 L 631 30" stroke-linejoin="bevel" stroke-miterlimit="10"/></g></g></g><g clip-path="url(#zhpPbPmNqPwW)"><g><g><path fill="none" stroke="#e5e5e5" paint-order="fill stroke markers" d=" M 85 191 L 673 191" stroke-linejoin="bevel" stroke-miterlimit="10"/><path fill="none" stroke="#e5e5e5" paint-order="fill stroke markers" d=" M 85 164 L 673 164" stroke-linejoin="bevel" stroke-miterlimit="10"/><path fill="none" stroke="#e5e5e5" paint-order="fill stroke markers" d=" M 85 138 L 673 138" stroke-linejoin="bevel" stroke-miterlimit="10"/><path fill="none" stroke="#e5e5e5" paint-order="fill stroke markers" d=" M 85 112 L 673 112" stroke-linejoin="bevel" stroke-miterlimit="10"/><path fill="none" stroke="#e5e5e5" paint-order="fill stroke markers" d=" M 85 86 L 673 86" stroke-linejoin="bevel" stroke-miterlimit="10"/><path fill="none" stroke="#e5e5e5" paint-order="fill stroke markers" d=" M 85 60 L 673 60" stroke-linejoin="bevel" stroke-miterlimit="10"/><path fill="none" stroke="#e5e5e5" paint-order="fill stroke markers" d=" M 85 34 L 673 34" stroke-linejoin="bevel" stroke-miterlimit="10"/></g></g></g><g clip-path="url(#KxLDwCWsxROD)"><g><g><path fill="none" stroke="none"/><path fill="#2b83ba" stroke="#2b83ba" paint-order="fill stroke markers" d=" M 465 115.76826628076901 A 2 2 0 1 1 464.99999900000006 115.76626628110235" fill-opacity="0.8" stroke-linejoin="bevel" stroke-miterlimit="10" stroke-width="8" stroke-opacity="0.8"/><path fill="#2b83ba" stroke="#2b83ba" paint-order="fill stroke markers" d=" M 129 204.68181818181824 A 2 2 0 1 1 128.9999990000001 204.67981818215156" fill-opacity="0.8" stroke-linejoin="bevel" stroke-miterlimit="10" stroke-width="8" stroke-opacity="0.8"/><path fill="#2b83ba" stroke="#2b83ba" paint-order="fill stroke markers" d=" M 549 124.7451152707788 A 2 2 0 1 1 548.9999990000001 124.74311527111213" fill-opacity="0.8" stroke-linejoin="bevel" stroke-miterlimit="10" stroke-width="8" stroke-opacity="0.8"/><path fill="#2b83ba" stroke="#2b83ba" paint-order="fill stroke markers" d=" M 633 189.84030303979858 A 2 2 0 1 1 632.9999990000001 189.8383030401319" fill-opacity="0.8" stroke-linejoin="bevel" stroke-miterlimit="10" stroke-width="8" stroke-opacity="0.8"/><path fill="#2b83ba" stroke="#2b83ba" paint-order="fill stroke markers" d=" M 381 127.79995470640358 A 2 2 0 1 1 380.99999900000006 127.79795470673692" fill-opacity="0.8" stroke-linejoin="bevel" stroke-miterlimit="10" stroke-width="8" stroke-opacity="0.8"/><path fill="#2b83ba" stroke="#2b83ba" paint-order="fill stroke markers" d=" M 213 170.4061026711828 A 2 2 0 1 1 212.9999990000001 170.4041026715161" fill-opacity="0.8" stroke-linejoin="bevel" stroke-miterlimit="10" stroke-width="8" stroke-opacity="0.8"/><path fill="#2b83ba" stroke="#2b83ba" paint-order="fill stroke markers" d=" M 297 148.33931882988696 A 2 2 0 1 1 296.99999900000006 148.33731883022028" fill-opacity="0.8" stroke-linejoin="bevel" stroke-miterlimit="10" stroke-width="8" stroke-opacity="0.8"/></g></g></g><g clip-path="url(#iNJgHdrwIpht)"><g><g><path fill="none" stroke="none"/><path fill="#abdda4" stroke="#abdda4" paint-order="fill stroke markers" d=" M 465 38.31818181818187 A 2 2 0 1 1 464.99999900000006 38.316181818515204" fill-opacity="0.8" stroke-linejoin="bevel" stroke-miterlimit="10" stroke-width="8" stroke-opacity="0.8"/><path fill="#abdda4" stroke="#abdda4" paint-order="fill stroke markers" d=" M 129 137.67344598809836 A 2 2 0 1 1 128.9999990000001 137.67144598843169" fill-opacity="0.8" stroke-linejoin="bevel" stroke-miterlimit="10" stroke-width="8" stroke-opacity="0.8"/><path fill="#abdda4" stroke="#abdda4" paint-order="fill stroke markers" d=" M 549 43.23407531271096 A 2 2 0 1 1 548.9999990000001 43.23207531304429" fill-opacity="0.8" stroke-linejoin="bevel" stroke-miterlimit="10" stroke-width="8" stroke-opacity="0.8"/><path fill="#abdda4" stroke="#abdda4" paint-order="fill stroke markers" d=" M 633 111.08174639574077 A 2 2 0 1 1 632.9999990000001 111.0797463960741" fill-opacity="0.8" stroke-linejoin="bevel" stroke-miterlimit="10" stroke-width="8" stroke-opacity="0.8"/><path fill="#abdda4" stroke="#abdda4" paint-order="fill stroke markers" d=" M 381 52.137941790606874 A 2 2 0 1 1 380.99999900000006 52.13594179094021" fill-opacity="0.8" stroke-linejoin="bevel" stroke-miterlimit="10" stroke-width="8" stroke-opacity="0.8"/><path fill="#abdda4" stroke="#abdda4" paint-order="fill stroke markers" d=" M 213 92.02809769743305 A 2 2 0 1 1 212.9999990000001 92.02609769776639" fill-opacity="0.8" stroke-linejoin="bevel" stroke-miterlimit="10" stroke-width="8" stroke-opacity="0.8"/><path fill="#abdda4" stroke="#abdda4" paint-order="fill stroke markers" d=" M 297 75.58618032548725 A 2 2 0 1 1 296.99999900000006 75.58418032582058" fill-opacity="0.8" stroke-linejoin="bevel" stroke-miterlimit="10" stroke-width="8" stroke-opacity="0.8"/></g></g></g><g><g/><g><path fill="#ffffff" stroke="#e5e5e5" paint-order="fill stroke markers" d=" M 682.8125 90 L 790.1875 90 L 790.1875 153 L 682.8125 153 L 682.8125 90 Z" fill-opacity="0.95" stroke-linejoin="bevel" stroke-miterlimit="10" stroke-opacity="0.5"/><text fill="#444444" stroke="none" font-family="helvetica" font-size="10pt" font-style="normal" font-weight="normal" text-decoration="normal" x="717.8125" y="110" text-anchor="start" dominant-baseline="central">Vendor 1</text><path fill="#2b83ba" stroke="#2b83ba" paint-order="fill stroke markers" d=" M 706.8125 110 A 4 4 0 1 1 706.8124980000001 109.99600000066667" fill-opacity="0.8" stroke-linejoin="bevel" stroke-miterlimit="10" stroke-width="8" stroke-opacity="0.8"/><text fill="#444444" stroke="none" font-family="helvetica" font-size="10pt" font-style="normal" font-weight="normal" text-decoration="normal" x="717.8125" y="133" text-anchor="start" dominant-baseline="central">Vendor 2</text><path fill="#abdda4" stroke="#abdda4" paint-order="fill stroke markers" d=" M 706.8125 133 A 4 4 0 1 1 706.8124980000001 132.99600000066667" fill-opacity="0.8" stroke-linejoin="bevel" stroke-miterlimit="10" stroke-width="8" stroke-opacity="0.8"/></g></g><g><g fill="#444444"><path fill="" stroke="none" d=""/><g transform="translate(85,17)"><path fill="none" stroke="none"/><text fill="" stroke="none" font-family="helvetica" font-size="10pt" font-style="normal" font-weight="bold" text-decoration="normal" x="0" y="0" text-anchor="start" dominant-baseline="text-after-edge">Number of trips by week day</text></g></g></g><g/><g><g fill="#444444"><path fill="none" stroke="black" paint-order="fill stroke markers" d=" M 85 213 L 673 213" stroke-linejoin="bevel" stroke-miterlimit="10"/><path fill="none" stroke="black" paint-order="fill stroke markers" d=" M 127 219 L 127 211" stroke-linejoin="bevel" stroke-miterlimit="10"/><path fill="none" stroke="black" paint-order="fill stroke markers" d=" M 211 219 L 211 211" stroke-linejoin="bevel" stroke-miterlimit="10"/><path fill="none" stroke="black" paint-order="fill stroke markers" d=" M 295 219 L 295 211" stroke-linejoin="bevel" stroke-miterlimit="10"/><path fill="none" stroke="black" paint-order="fill stroke markers" d=" M 379 219 L 379 211" stroke-linejoin="bevel" stroke-miterlimit="10"/><path fill="none" stroke="black" paint-order="fill stroke markers" d=" M 463 219 L 463 211" stroke-linejoin="bevel" stroke-miterlimit="10"/><path fill="none" stroke="black" paint-order="fill stroke markers" d=" M 547 219 L 547 211" stroke-linejoin="bevel" stroke-miterlimit="10"/><path fill="" stroke="black" paint-order="fill stroke markers" d=" M 631 219 L 631 211" stroke-linejoin="bevel" stroke-miterlimit="10"/><g transform="translate(127,224) rotate(0,0,0)"><text fill="" stroke="none" font-family="helvetica" font-size="8pt" font-style="normal" font-weight="normal" text-decoration="normal" x="0" y="0" text-anchor="middle" dominant-baseline="hanging">Monday</text><g transform="rotate(0,0,0) translate(-127,-224) translate(211,224) rotate(0,0,0)"><text fill="" stroke="none" font-family="helvetica" font-size="8pt" font-style="normal" font-weight="normal" text-decoration="normal" x="0" y="0" text-anchor="middle" dominant-baseline="hanging">Tuesday</text><g transform="rotate(0,0,0) translate(-211,-224) translate(295,224) rotate(0,0,0)"><text fill="" stroke="none" font-family="helvetica" font-size="8pt" font-style="normal" font-weight="normal" text-decoration="normal" x="0" y="0" text-anchor="middle" dominant-baseline="hanging">Wednesday</text><g transform="rotate(0,0,0) translate(-295,-224) translate(379,224) rotate(0,0,0)"><text fill="" stroke="none" font-family="helvetica" font-size="8pt" font-style="normal" font-weight="normal" text-decoration="normal" x="0" y="0" text-anchor="middle" dominant-baseline="hanging">Thursday</text><g transform="rotate(0,0,0) translate(-379,-224) translate(463,224) rotate(0,0,0)"><text fill="" stroke="none" font-family="helvetica" font-size="8pt" font-style="normal" font-weight="normal" text-decoration="normal" x="0" y="0" text-anchor="middle" dominant-baseline="hanging">Friday</text><g transform="rotate(0,0,0) translate(-463,-224) translate(547,224) rotate(0,0,0)"><text fill="" stroke="none" font-family="helvetica" font-size="8pt" font-style="normal" font-weight="normal" text-decoration="normal" x="0" y="0" text-anchor="middle" dominant-baseline="hanging">Saturday</text><g transform="rotate(0,0,0) translate(-547,-224) translate(631,224) rotate(0,0,0)"><text fill="" stroke="none" font-family="helvetica" font-size="8pt" font-style="normal" font-weight="normal" text-decoration="normal" x="0" y="0" text-anchor="middle" dominant-baseline="hanging">Sunday</text><g transform="rotate(0,0,0) translate(-631,-224) translate(379,238) rotate(0,0,0)"><text fill="" stroke="none" font-family="helvetica" font-size="10pt" font-style="italic" font-weight="normal" text-decoration="normal" x="0" y="0" text-anchor="middle" dominant-baseline="hanging">Day of the week</text><g transform="rotate(0,0,0) translate(-379,-238)"/></g></g></g></g></g></g></g></g></g></g><g><g fill="#444444"><path fill="none" stroke="black" paint-order="fill stroke markers" d=" M 85 213 L 85 30" stroke-linejoin="bevel" stroke-miterlimit="10"/><path fill="none" stroke="black" paint-order="fill stroke markers" d=" M 79 191 L 87 191" stroke-linejoin="bevel" stroke-miterlimit="10"/><path fill="none" stroke="black" paint-order="fill stroke markers" d=" M 79 164 L 87 164" stroke-linejoin="bevel" stroke-miterlimit="10"/><path fill="none" stroke="black" paint-order="fill stroke markers" d=" M 79 138 L 87 138" stroke-linejoin="bevel" stroke-miterlimit="10"/><path fill="none" stroke="black" paint-order="fill stroke markers" d=" M 79 112 L 87 112" stroke-linejoin="bevel" stroke-miterlimit="10"/><path fill="none" stroke="black" paint-order="fill stroke markers" d=" M 79 86 L 87 86" stroke-linejoin="bevel" stroke-miterlimit="10"/><path fill="none" stroke="black" paint-order="fill stroke markers" d=" M 79 60 L 87 60" stroke-linejoin="bevel" stroke-miterlimit="10"/><path fill="none" stroke="black" paint-order="fill stroke markers" d=" M 79 34 L 87 34" stroke-linejoin="bevel" stroke-miterlimit="10"/><path fill="none" stroke="black" paint-order="fill stroke markers" d=" M 81 196 L 85 196" stroke-linejoin="bevel" stroke-miterlimit="10"/><path fill="none" stroke="black" paint-order="fill stroke markers" d=" M 81 201 L 85 201" stroke-linejoin="bevel" stroke-miterlimit="10"/><path fill="none" stroke="black" paint-order="fill stroke markers" d=" M 81 206 L 85 206" stroke-linejoin="bevel" stroke-miterlimit="10"/><path fill="none" stroke="black" paint-order="fill stroke markers" d=" M 81 211 L 85 211" stroke-linejoin="bevel" stroke-miterlimit="10"/><path fill="none" stroke="black" paint-order="fill stroke markers" d=" M 81 191 L 85 191" stroke-linejoin="bevel" stroke-miterlimit="10"/><path fill="none" stroke="black" paint-order="fill stroke markers" d=" M 81 185 L 85 185" stroke-linejoin="bevel" stroke-miterlimit="10"/><path fill="none" stroke="black" paint-order="fill stroke markers" d=" M 81 180 L 85 180" stroke-linejoin="bevel" stroke-miterlimit="10"/><path fill="none" stroke="black" paint-order="fill stroke markers" d=" M 81 175 L 85 175" stroke-linejoin="bevel" stroke-miterlimit="10"/><path fill="none" stroke="black" paint-order="fill stroke markers" d=" M 81 170 L 85 170" stroke-linejoin="bevel" stroke-miterlimit="10"/><path fill="none" stroke="black" paint-order="fill stroke markers" d=" M 81 164 L 85 164" stroke-linejoin="bevel" stroke-miterlimit="10"/><path fill="none" stroke="black" paint-order="fill stroke markers" d=" M 81 159 L 85 159" stroke-linejoin="bevel" stroke-miterlimit="10"/><path fill="none" stroke="black" paint-order="fill stroke markers" d=" M 81 154 L 85 154" stroke-linejoin="bevel" stroke-miterlimit="10"/><path fill="none" stroke="black" paint-order="fill stroke markers" d=" M 81 149 L 85 149" stroke-linejoin="bevel" stroke-miterlimit="10"/><path fill="none" stroke="black" paint-order="fill stroke markers" d=" M 81 144 L 85 144" stroke-linejoin="bevel" stroke-miterlimit="10"/><path fill="none" stroke="black" paint-order="fill stroke markers" d=" M 81 138 L 85 138" stroke-linejoin="bevel" stroke-miterlimit="10"/><path fill="none" stroke="black" paint-order="fill stroke markers" d=" M 81 133 L 85 133" stroke-linejoin="bevel" stroke-miterlimit="10"/><path fill="none" stroke="black" paint-order="fill stroke markers" d=" M 81 128 L 85 128" stroke-linejoin="bevel" stroke-miterlimit="10"/><path fill="none" stroke="black" paint-order="fill stroke markers" d=" M 81 123 L 85 123" stroke-linejoin="bevel" stroke-miterlimit="10"/><path fill="none" stroke="black" paint-order="fill stroke markers" d=" M 81 118 L 85 118" stroke-linejoin="bevel" stroke-miterlimit="10"/><path fill="none" stroke="black" paint-order="fill stroke markers" d=" M 81 112 L 85 112" stroke-linejoin="bevel" stroke-miterlimit="10"/><path fill="none" stroke="black" paint-order="fill stroke markers" d=" M 81 107 L 85 107" stroke-linejoin="bevel" stroke-miterlimit="10"/><path fill="none" stroke="black" paint-order="fill stroke markers" d=" M 81 102 L 85 102" stroke-linejoin="bevel" stroke-miterlimit="10"/><path fill="none" stroke="black" paint-order="fill stroke markers" d=" M 81 97 L 85 97" stroke-linejoin="bevel" stroke-miterlimit="10"/><path fill="none" stroke="black" paint-order="fill stroke markers" d=" M 81 91 L 85 91" stroke-linejoin="bevel" stroke-miterlimit="10"/><path fill="none" stroke="black" paint-order="fill stroke markers" d=" M 81 86 L 85 86" stroke-linejoin="bevel" stroke-miterlimit="10"/><path fill="none" stroke="black" paint-order="fill stroke markers" d=" M 81 81 L 85 81" stroke-linejoin="bevel" stroke-miterlimit="10"/><path fill="none" stroke="black" paint-order="fill stroke markers" d=" M 81 76 L 85 76" stroke-linejoin="bevel" stroke-miterlimit="10"/><path fill="none" stroke="black" paint-order="fill stroke markers" d=" M 81 71 L 85 71" stroke-linejoin="bevel" stroke-miterlimit="10"/><path fill="none" stroke="black" paint-order="fill stroke markers" d=" M 81 65 L 85 65" stroke-linejoin="bevel" stroke-miterlimit="10"/><path fill="none" stroke="black" paint-order="fill stroke markers" d=" M 81 60 L 85 60" stroke-linejoin="bevel" stroke-miterlimit="10"/><path fill="none" stroke="black" paint-order="fill stroke markers" d=" M 81 55 L 85 55" stroke-linejoin="bevel" stroke-miterlimit="10"/><path fill="none" stroke="black" paint-order="fill stroke markers" d=" M 81 50 L 85 50" stroke-linejoin="bevel" stroke-miterlimit="10"/><path fill="none" stroke="black" paint-order="fill stroke markers" d=" M 81 45 L 85 45" stroke-linejoin="bevel" stroke-miterlimit="10"/><path fill="none" stroke="black" paint-order="fill stroke markers" d=" M 81 39 L 85 39" stroke-linejoin="bevel" stroke-miterlimit="10"/><path fill="" stroke="black" paint-order="fill stroke markers" d=" M 81 34 L 85 34" stroke-linejoin="bevel" stroke-miterlimit="10"/><g transform="translate(74,191) rotate(0,0,0)"><text fill="" stroke="none" font-family="helvetica" font-size="8pt" font-style="normal" font-weight="normal" text-decoration="normal" x="0" y="0" text-anchor="end" dominant-baseline="central">9.000e+4</text><g transform="rotate(0,0,0) translate(-74,-191) translate(74,164) rotate(0,0,0)"><text fill="" stroke="none" font-family="helvetica" font-size="8pt" font-style="normal" font-weight="normal" text-decoration="normal" x="0" y="0" text-anchor="end" dominant-baseline="central">9.500e+4</text><g transform="rotate(0,0,0) translate(-74,-164) translate(74,138) rotate(0,0,0)"><text fill="" stroke="none" font-family="helvetica" font-size="8pt" font-style="normal" font-weight="normal" text-decoration="normal" x="0" y="0" text-anchor="end" dominant-baseline="central">1.000e+5</text><g transform="rotate(0,0,0) translate(-74,-138) translate(74,112) rotate(0,0,0)"><text fill="" stroke="none" font-family="helvetica" font-size="8pt" font-style="normal" font-weight="normal" text-decoration="normal" x="0" y="0" text-anchor="end" dominant-baseline="central">1.050e+5</text><g transform="rotate(0,0,0) translate(-74,-112) translate(74,86) rotate(0,0,0)"><text fill="" stroke="none" font-family="helvetica" font-size="8pt" font-style="normal" font-weight="normal" text-decoration="normal" x="0" y="0" text-anchor="end" dominant-baseline="central">1.100e+5</text><g transform="rotate(0,0,0) translate(-74,-86) translate(74,60) rotate(0,0,0)"><text fill="" stroke="none" font-family="helvetica" font-size="8pt" font-style="normal" font-weight="normal" text-decoration="normal" x="0" y="0" text-anchor="end" dominant-baseline="central">1.150e+5</text><g transform="rotate(0,0,0) translate(-74,-60) translate(74,34) rotate(0,0,0)"><text fill="" stroke="none" font-family="helvetica" font-size="8pt" font-style="normal" font-weight="normal" text-decoration="normal" x="0" y="0" text-anchor="end" dominant-baseline="central">1.200e+5</text><g transform="rotate(0,0,0) translate(-74,-34) translate(11,122) rotate(-90,0,0)"><text fill="" stroke="none" font-family="helvetica" font-size="10pt" font-style="italic" font-weight="normal" text-decoration="normal" x="0" y="0" text-anchor="middle" dominant-baseline="alphabetic">Number of trips</text><g transform="rotate(90,0,0) translate(-11,-122)"/></g></g></g></g></g></g></g></g></g></g><g clip-path="url(#EJWtrEbEURaQ)"><g/></g></g></g></svg>