<svg version="1.1" xmlns="http://www.w3.org/2000/svg" xmlns:xlink="http://www.w3.org/1999/xlink" width="800" height="250" style="width: 800px; height: 250px;"><defs><clipPath id="kcaBIDJNbBKx"><path fill="none" stroke="none" d=" M 63 30 L 673 30 L 673 213 L 63 213 L 63 30 Z"/></clipPath><clipPath id="eILHHtAMQVLP"><path fill="none" stroke="none" d=" M 63 30 L 673 30 L 673 213 L 63 213 L 63 30 Z"/></clipPath><clipPath id="ADueevanMegD"><path fill="none" stroke="none" d=" M 63 30 L 673 30 L 673 213 L 63 213 L 63 30 Z"/></clipPath><clipPath id="SfswMGnCyTKq"><path fill="none" stroke="none" d=" M 63 30 L 673 30 L 673 213 L 63 213 L 63 30 Z"/></clipPath><clipPath id="sxpWQQMoCnaa"><path fill="none" stroke="none" d=" M 63 30 L 673 30 L 673 213 L 63 213 L 63 30 Z"/></clipPath></defs><g><g/><g/><g/><g transform="scale(1,1) translate(0.5,0.5)"><rect fill="#FFFFFF" stroke="none" x="0" y="0" width="800" height="250"/><rect fill="#ffffff" stroke="none" x="0" y="0" width="800" height="250"/><rect fill="#FFFFFF" stroke="none" x="63" y="30" width="610" height="183"/><rect fill="#ffffff" stroke="none" x="63" y="30" width="610" height="183"/><g><rect fill="none" stroke="#e5e5e5" x="63" y="30" width="610" height="183" stroke-linejoin="bevel" stroke-miterlimit="10"/></g><g clip-path="url(#kcaBIDJNbBKx)"><g><g><path fill="none" stroke="#e5e5e5" paint-order="fill stroke markers" d=" M 91 213 L 91 30" stroke-linejoin="bevel" stroke-miterlimit="10"/><path fill="none" stroke="#e5e5e5" paint-order="fill stroke markers" d=" M 211 213 L 211 30" stroke-linejoin="bevel" stroke-miterlimit="10"/><path fill="none" stroke="#e5e5e5" paint-order="fill stroke markers" d=" M 332 213 L 332 30" stroke-linejoin="bevel" stroke-miterlimit="10"/><path fill="none" stroke="#e5e5e5" paint-order="fill stroke markers" d=" M 452 213 L 452 30" stroke-linejoin="bevel" stroke-miterlimit="10"/><path fill="none" stroke="#e5e5e5" paint-order="fill stroke markers" d=" M 573 213 L 573 30" stroke-linejoin="bevel" stroke-miterlimit="10"/></g></g></g><g clip-path="url(#eILHHtAMQVLP)"><g><g><path fill="none" stroke="#e5e5e5" paint-order="fill stroke markers" d=" M 63 194 L 673 194" stroke-linejoin="bevel" stroke-miterlimit="10"/><path fill="none" stroke="#e5e5e5" paint-order="fill stroke markers" d=" M 63 155 L 673 155" stroke-linejoin="bevel" stroke-miterlimit="10"/><path fill="none" stroke="#e5e5e5" paint-order="fill stroke markers" d=" M 63 115 L 673 115" stroke-linejoin="bevel" stroke-miterlimit="10"/><path fill="none" stroke="#e5e5e5" paint-order="fill stroke markers" d=" M 63 75 L 673 75" stroke-linejoin="bevel" stroke-miterlimit="10"/><path fill="none" stroke="#e5e5e5" paint-order="fill stroke markers" d=" M 63 36 L 673 36" stroke-linejoin="bevel" stroke-miterlimit="10"/></g></g></g><g clip-path="url(#ADueevanMegD)"><g><g><path fill="none" stroke="none"/><path fill="#2b83ba" stroke="#2b83ba" paint-order="fill stroke markers" d=" M 92.72727272727273 136.68761909097412 A 2 2 0 1 1 92.72727172727282 136.68561909130744" fill-opacity="0.8" stroke-linejoin="bevel" stroke-miterlimit="10" stroke-width="5" stroke-opacity="0.8"/><path fill="#2b83ba" stroke="#2b83ba" paint-order="fill stroke markers" d=" M 116.83794466403162 162.35800779090715 A 2 2 0 1 1 116.83794366403171 162.35600779124047" fill-opacity="0.8" stroke-linejoin="bevel" stroke-miterlimit="10" stroke-width="5" stroke-opacity="0.8"/><path fill="#2b83ba" stroke="#2b83ba" paint-order="fill stroke markers" d=" M 140.94861660079053 180.28880008324174 A 2 2 0 1 1 140.94861560079062 180.28680008357506" fill-opacity="0.8" stroke-linejoin="bevel" stroke-miterlimit="10" stroke-width="5" stroke-opacity="0.8"/><path fill="#2b83ba" stroke="#2b83ba" paint-order="fill stroke markers" d=" M 165.05928853754943 192.8681236139924 A 2 2 0 1 1 165.05928753754952 192.86612361432572" fill-opacity="0.8" stroke-linejoin="bevel" stroke-miterlimit="10" stroke-width="5" stroke-opacity="0.8"/><path fill="#2b83ba" stroke="#2b83ba" paint-order="fill stroke markers" d=" M 189.1699604743083 203.07122046706422 A 2 2 0 1 1 189.1699594743084 203.06922046739754" fill-opacity="0.8" stroke-linejoin="bevel" stroke-miterlimit="10" stroke-width="5" stroke-opacity="0.8"/><path fill="#2b83ba" stroke="#2b83ba" paint-order="fill stroke markers" d=" M 213.2806324110672 204.0470998705851 A 2 2 0 1 1 213.28063141106728 204.04509987091842" fill-opacity="0.8" stroke-linejoin="bevel" stroke-miterlimit="10" stroke-width="5" stroke-opacity="0.8"/><path fill="#2b83ba" stroke="#2b83ba" paint-order="fill stroke markers" d=" M 237.39130434782612 169.7842120323342 A 2 2 0 1 1 237.3913033478262 169.78221203266753" fill-opacity="0.8" stroke-linejoin="bevel" stroke-miterlimit="10" stroke-width="5" stroke-opacity="0.8"/><path fill="#2b83ba" stroke="#2b83ba" paint-order="fill stroke markers" d=" M 261.501976284585 130.70936599704754 A 2 2 0 1 1 261.50197528458506 130.70736599738086" fill-opacity="0.8" stroke-linejoin="bevel" stroke-miterlimit="10" stroke-width="5" stroke-opacity="0.8"/><path fill="#2b83ba" stroke="#2b83ba" paint-order="fill stroke markers" d=" M 285.6126482213439 110.73557414043144 A 2 2 0 1 1 285.61264722134393 110.73357414076477" fill-opacity="0.8" stroke-linejoin="bevel" stroke-miterlimit="10" stroke-width="5" stroke-opacity="0.8"/><path fill="#2b83ba" stroke="#2b83ba" paint-order="fill stroke markers" d=" M 309.7233201581028 110.56896058373275 A 2 2 0 1 1 309.72331915810287 110.56696058406608" fill-opacity="0.8" stroke-linejoin="bevel" stroke-miterlimit="10" stroke-width="5" stroke-opacity="0.8"/><path fill="#2b83ba" stroke="#2b83ba" paint-order="fill stroke markers" d=" M 333.8339920948617 115.9323303136523 A 2 2 0 1 1 333.83399109486174 115.93033031398564" fill-opacity="0.8" stroke-linejoin="bevel" stroke-miterlimit="10" stroke-width="5" stroke-opacity="0.8"/><path fill="#2b83ba" stroke="#2b83ba" paint-order="fill stroke markers" d=" M 357.94466403162056 110.10482281864356 A 2 2 0 1 1 357.9446630316206 110.10282281897689" fill-opacity="0.8" stroke-linejoin="bevel" stroke-miterlimit="10" stroke-width="5" stroke-opacity="0.8"/><path fill="#2b83ba" stroke="#2b83ba" paint-order="fill stroke markers" d=" M 382.0553359683795 102.23034876990812 A 2 2 0 1 1 382.05533496837955 102.22834877024145" fill-opacity="0.8" stroke-linejoin="bevel" stroke-miterlimit="10" stroke-width="5" stroke-opacity="0.8"/><path fill="#2b83ba" stroke="#2b83ba" paint-order="fill stroke markers" d=" M 406.1660079051384 100.36586373066095 A 2 2 0 1 1 406.16600690513843 100.36386373099428" fill-opacity="0.8" stroke-linejoin="bevel" stroke-miterlimit="10" stroke-width="5" stroke-opacity="0.8"/><path fill="#2b83ba" stroke="#2b83ba" paint-order="fill stroke markers" d=" M 430.27667984189725 94.50662032009055 A 2 2 0 1 1 430.2766788418973 94.50462032042388" fill-opacity="0.8" stroke-linejoin="bevel" stroke-miterlimit="10" stroke-width="5" stroke-opacity="0.8"/><path fill="#2b83ba" stroke="#2b83ba" paint-order="fill stroke markers" d=" M 454.3873517786562 98.48154374418772 A 2 2 0 1 1 454.38735077865624 98.47954374452105" fill-opacity="0.8" stroke-linejoin="bevel" stroke-miterlimit="10" stroke-width="5" stroke-opacity="0.8"/><path fill="#2b83ba" stroke="#2b83ba" paint-order="fill stroke markers" d=" M 478.49802371541506 114.75016745898068 A 2 2 0 1 1 478.4980227154151 114.74816745931402" fill-opacity="0.8" stroke-linejoin="bevel" stroke-miterlimit="10" stroke-width="5" stroke-opacity="0.8"/><path fill="#2b83ba" stroke="#2b83ba" paint-order="fill stroke markers" d=" M 502.60869565217394 94.91125324350162 A 2 2 0 1 1 502.608694652174 94.90925324383495" fill-opacity="0.8" stroke-linejoin="bevel" stroke-miterlimit="10" stroke-width="5" stroke-opacity="0.8"/><path fill="#2b83ba" stroke="#2b83ba" paint-order="fill stroke markers" d=" M 526.7193675889329 70.51426815547998 A 2 2 0 1 1 526.719366588933 70.51226815581332" fill-opacity="0.8" stroke-linejoin="bevel" stroke-miterlimit="10" stroke-width="5" stroke-opacity="0.8"/><path fill="#2b83ba" stroke="#2b83ba" paint-order="fill stroke markers" d=" M 550.8300395256917 69.593926604192 A 2 2 0 1 1 550.8300385256919 69.59192660452534" fill-opacity="0.8" stroke-linejoin="bevel" stroke-miterlimit="10" stroke-width="5" stroke-opacity="0.8"/><path fill="#2b83ba" stroke="#2b83ba" paint-order="fill stroke markers" d=" M 574.9407114624506 80.8919125441409 A 2 2 0 1 1 574.9407104624507 80.88991254447423" fill-opacity="0.8" stroke-linejoin="bevel" stroke-miterlimit="10" stroke-width="5" stroke-opacity="0.8"/><path fill="#2b83ba" stroke="#2b83ba" paint-order="fill stroke markers" d=" M 599.0513833992095 81.00695523805189 A 2 2 0 1 1 599.0513823992096 81.00495523838522" fill-opacity="0.8" stroke-linejoin="bevel" stroke-miterlimit="10" stroke-width="5" stroke-opacity="0.8"/><path fill="#2b83ba" stroke="#2b83ba" paint-order="fill stroke markers" d=" M 623.1620553359684 87.54455384375265 A 2 2 0 1 1 623.1620543359685 87.54255384408599" fill-opacity="0.8" stroke-linejoin="bevel" stroke-miterlimit="10" stroke-width="5" stroke-opacity="0.8"/><path fill="#2b83ba" stroke="#2b83ba" paint-order="fill stroke markers" d=" M 647.2727272727274 105.97121981673811 A 2 2 0 1 1 647.2727262727275 105.96921981707145" fill-opacity="0.8" stroke-linejoin="bevel" stroke-miterlimit="10" stroke-width="5" stroke-opacity="0.8"/></g></g></g><g clip-path="url(#SfswMGnCyTKq)"><g><g><path fill="none" stroke="none"/><path fill="#abdda4" stroke="#abdda4" paint-order="fill stroke markers" d=" M 92.72727272727273 120.31982064005099 A 2 2 0 1 1 92.72727172727282 120.31782064038433" fill-opacity="0.8" stroke-linejoin="bevel" stroke-miterlimit="10" stroke-width="5" stroke-opacity="0.8"/><path fill="#abdda4" stroke="#abdda4" paint-order="fill stroke markers" d=" M 116.83794466403162 152.87293602741775 A 2 2 0 1 1 116.83794366403171 152.87093602775107" fill-opacity="0.8" stroke-linejoin="bevel" stroke-miterlimit="10" stroke-width="5" stroke-opacity="0.8"/><path fill="#abdda4" stroke="#abdda4" paint-order="fill stroke markers" d=" M 140.94861660079053 176.98826486482972 A 2 2 0 1 1 140.94861560079062 176.98626486516304" fill-opacity="0.8" stroke-linejoin="bevel" stroke-miterlimit="10" stroke-width="5" stroke-opacity="0.8"/><path fill="#abdda4" stroke="#abdda4" paint-order="fill stroke markers" d=" M 165.05928853754943 192.48332563780735 A 2 2 0 1 1 165.05928753754952 192.48132563814067" fill-opacity="0.8" stroke-linejoin="bevel" stroke-miterlimit="10" stroke-width="5" stroke-opacity="0.8"/><path fill="#abdda4" stroke="#abdda4" paint-order="fill stroke markers" d=" M 189.1699604743083 202.5237759236257 A 2 2 0 1 1 189.1699594743084 202.521775923959" fill-opacity="0.8" stroke-linejoin="bevel" stroke-miterlimit="10" stroke-width="5" stroke-opacity="0.8"/><path fill="#abdda4" stroke="#abdda4" paint-order="fill stroke markers" d=" M 213.2806324110672 204.6818181818182 A 2 2 0 1 1 213.28063141106728 204.6798181821515" fill-opacity="0.8" stroke-linejoin="bevel" stroke-miterlimit="10" stroke-width="5" stroke-opacity="0.8"/><path fill="#abdda4" stroke="#abdda4" paint-order="fill stroke markers" d=" M 237.39130434782612 166.5630166028263 A 2 2 0 1 1 237.3913033478262 166.56101660315963" fill-opacity="0.8" stroke-linejoin="bevel" stroke-miterlimit="10" stroke-width="5" stroke-opacity="0.8"/><path fill="#abdda4" stroke="#abdda4" paint-order="fill stroke markers" d=" M 261.501976284585 116.96771455885127 A 2 2 0 1 1 261.50197528458506 116.9657145591846" fill-opacity="0.8" stroke-linejoin="bevel" stroke-miterlimit="10" stroke-width="5" stroke-opacity="0.8"/><path fill="#abdda4" stroke="#abdda4" paint-order="fill stroke markers" d=" M 285.6126482213439 91.50757629951423 A 2 2 0 1 1 285.61264722134393 91.50557629984756" fill-opacity="0.8" stroke-linejoin="bevel" stroke-miterlimit="10" stroke-width="5" stroke-opacity="0.8"/><path fill="#abdda4" stroke="#abdda4" paint-order="fill stroke markers" d=" M 309.7233201581028 89.25432629463677 A 2 2 0 1 1 309.72331915810287 89.2523262949701" fill-opacity="0.8" stroke-linejoin="bevel" stroke-miterlimit="10" stroke-width="5" stroke-opacity="0.8"/><path fill="#abdda4" stroke="#abdda4" paint-order="fill stroke markers" d=" M 333.8339920948617 92.7214750697475 A 2 2 0 1 1 333.83399109486174 92.71947507008083" fill-opacity="0.8" stroke-linejoin="bevel" stroke-miterlimit="10" stroke-width="5" stroke-opacity="0.8"/><path fill="#abdda4" stroke="#abdda4" paint-order="fill stroke markers" d=" M 357.94466403162056 86.49330164077287 A 2 2 0 1 1 357.9446630316206 86.4913016411062" fill-opacity="0.8" stroke-linejoin="bevel" stroke-miterlimit="10" stroke-width="5" stroke-opacity="0.8"/><path fill="#abdda4" stroke="#abdda4" paint-order="fill stroke markers" d=" M 382.0553359683795 80.8919125441409 A 2 2 0 1 1 382.05533496837955 80.88991254447423" fill-opacity="0.8" stroke-linejoin="bevel" stroke-miterlimit="10" stroke-width="5" stroke-opacity="0.8"/><path fill="#abdda4" stroke="#abdda4" paint-order="fill stroke markers" d=" M 406.1660079051384 84.34319336147078 A 2 2 0 1 1 406.16600690513843 84.34119336180412" fill-opacity="0.8" stroke-linejoin="bevel" stroke-miterlimit="10" stroke-width="5" stroke-opacity="0.8"/><path fill="#abdda4" stroke="#abdda4" paint-order="fill stroke markers" d=" M 430.27667984189725 79.01949352600332 A 2 2 0 1 1 430.2766788418973 79.01749352633665" fill-opacity="0.8" stroke-linejoin="bevel" stroke-miterlimit="10" stroke-width="5" stroke-opacity="0.8"/><path fill="#abdda4" stroke="#abdda4" paint-order="fill stroke markers" d=" M 454.3873517786562 84.88667091546412 A 2 2 0 1 1 454.38735077865624 84.88467091579746" fill-opacity="0.8" stroke-linejoin="bevel" stroke-miterlimit="10" stroke-width="5" stroke-opacity="0.8"/><path fill="#abdda4" stroke="#abdda4" paint-order="fill stroke markers" d=" M 478.49802371541506 98.3625340608315 A 2 2 0 1 1 478.4980227154151 98.36053406116484" fill-opacity="0.8" stroke-linejoin="bevel" stroke-miterlimit="10" stroke-width="5" stroke-opacity="0.8"/><path fill="#abdda4" stroke="#abdda4" paint-order="fill stroke markers" d=" M 502.60869565217394 69.92318672814417 A 2 2 0 1 1 502.608694652174 69.92118672847751" fill-opacity="0.8" stroke-linejoin="bevel" stroke-miterlimit="10" stroke-width="5" stroke-opacity="0.8"/><path fill="#abdda4" stroke="#abdda4" paint-order="fill stroke markers" d=" M 526.7193675889329 38.31818181818184 A 2 2 0 1 1 526.719366588933 38.316181818515176" fill-opacity="0.8" stroke-linejoin="bevel" stroke-miterlimit="10" stroke-width="5" stroke-opacity="0.8"/><path fill="#abdda4" stroke="#abdda4" paint-order="fill stroke markers" d=" M 550.8300395256917 40.396884287470186 A 2 2 0 1 1 550.8300385256919 40.39488428780352" fill-opacity="0.8" stroke-linejoin="bevel" stroke-miterlimit="10" stroke-width="5" stroke-opacity="0.8"/><path fill="#abdda4" stroke="#abdda4" paint-order="fill stroke markers" d=" M 574.9407114624506 53.83704452783073 A 2 2 0 1 1 574.9407104624507 53.83504452816406" fill-opacity="0.8" stroke-linejoin="bevel" stroke-miterlimit="10" stroke-width="5" stroke-opacity="0.8"/><path fill="#abdda4" stroke="#abdda4" paint-order="fill stroke markers" d=" M 599.0513833992095 53.273732026611356 A 2 2 0 1 1 599.0513823992096 53.27173202694469" fill-opacity="0.8" stroke-linejoin="bevel" stroke-miterlimit="10" stroke-width="5" stroke-opacity="0.8"/><path fill="#abdda4" stroke="#abdda4" paint-order="fill stroke markers" d=" M 623.1620553359684 61.386225442059214 A 2 2 0 1 1 623.1620543359685 61.38422544239255" fill-opacity="0.8" stroke-linejoin="bevel" stroke-miterlimit="10" stroke-width="5" stroke-opacity="0.8"/><path fill="#abdda4" stroke="#abdda4" paint-order="fill stroke markers" d=" M 647.2727272727274 85.43411545890265 A 2 2 0 1 1 647.2727262727275 85.43211545923599" fill-opacity="0.8" stroke-linejoin="bevel" stroke-miterlimit="10" stroke-width="5" stroke-opacity="0.8"/></g></g></g><g><g/><g><path fill="#ffffff" stroke="#e5e5e5" paint-order="fill stroke markers" d=" M 682.8125 90 L 790.1875 90 L 790.1875 153 L 682.8125 153 L 682.8125 90 Z" fill-opacity="0.95" stroke-linejoin="bevel" stroke-miterlimit="10" stroke-opacity="0.5"/><text fill="#444444" stroke="none" font-family="helvetica" font-size="10pt" font-style="normal" font-weight="normal" text-decoration="normal" x="717.8125" y="110" text-anchor="start" dominant-baseline="central">Vendor 1</text><path fill="#2b83ba" stroke="#2b83ba" paint-order="fill stroke markers" d=" M 706.8125 110 A 4 4 0 1 1 706.8124980000001 109.99600000066667" fill-opacity="0.8" stroke-linejoin="bevel" stroke-miterlimit="10" stroke-width="5" stroke-opacity="0.8"/><text fill="#444444" stroke="none" font-family="helvetica" font-size="10pt" font-style="normal" font-weight="normal" text-decoration="normal" x="717.8125" y="133" text-anchor="start" dominant-baseline="central">Vendor 2</text><path fill="#abdda4" stroke="#abdda4" paint-order="fill stroke markers" d=" M 706.8125 133 A 4 4 0 1 1 706.8124980000001 132.99600000066667" fill-opacity="0.8" stroke-linejoin="bevel" stroke-miterlimit="10" stroke-width="5" stroke-opacity="0.8"/></g></g><g><g fill="#444444"><path fill="" stroke="none" d=""/><g transform="translate(63,17)"><path fill="none" stroke="none"/><text fill="" stroke="none" font-family="helvetica" font-size="10pt" font-style="normal" font-weight="bold" text-decoration="normal" x="0" y="0" text-anchor="start" dominant-baseline="text-after-edge">Number of trips during the day</text></g></g></g><g/><g><g fill="#444444"><path fill="none" stroke="black" paint-order="fill stroke markers" d=" M 63 213 L 673 213" stroke-linejoin="bevel" stroke-miterlimit="10"/><path fill="none" stroke="black" paint-order="fill stroke markers" d=" M 91 219 L 91 211" stroke-linejoin="bevel" stroke-miterlimit="10"/><path fill="none" stroke="black" paint-order="fill stroke markers" d=" M 211 219 L 211 211" stroke-linejoin="bevel" stroke-miterlimit="10"/><path fill="none" stroke="black" paint-order="fill stroke markers" d=" M 332 219 L 332 211" stroke-linejoin="bevel" stroke-miterlimit="10"/><path fill="none" stroke="black" paint-order="fill stroke markers" d=" M 452 219 L 452 211" stroke-linejoin="bevel" stroke-miterlimit="10"/><path fill="none" stroke="black" paint-order="fill stroke markers" d=" M 573 219 L 573 211" stroke-linejoin="bevel" stroke-miterlimit="10"/><path fill="none" stroke="black" paint-order="fill stroke markers" d=" M 67 217 L 67 213" stroke-linejoin="bevel" stroke-miterlimit="10"/><path fill="none" stroke="black" paint-order="fill stroke markers" d=" M 91 217 L 91 213" stroke-linejoin="bevel" stroke-miterlimit="10"/><path fill="none" stroke="black" paint-order="fill stroke markers" d=" M 115 217 L 115 213" stroke-linejoin="bevel" stroke-miterlimit="10"/><path fill="none" stroke="black" paint-order="fill stroke markers" d=" M 139 217 L 139 213" stroke-linejoin="bevel" stroke-miterlimit="10"/><path fill="none" stroke="black" paint-order="fill stroke markers" d=" M 163 217 L 163 213" stroke-linejoin="bevel" stroke-miterlimit="10"/><path fill="none" stroke="black" paint-order="fill stroke markers" d=" M 187 217 L 187 213" stroke-linejoin="bevel" stroke-miterlimit="10"/><path fill="none" stroke="black" paint-order="fill stroke markers" d=" M 211 217 L 211 213" stroke-linejoin="bevel" stroke-miterlimit="10"/><path fill="none" stroke="black" paint-order="fill stroke markers" d=" M 235 217 L 235 213" stroke-linejoin="bevel" stroke-miterlimit="10"/><path fill="none" stroke="black" paint-order="fill stroke markers" d=" M 260 217 L 260 213" stroke-linejoin="bevel" stroke-miterlimit="10"/><path fill="none" stroke="black" paint-order="fill stroke markers" d=" M 284 217 L 284 213" stroke-linejoin="bevel" stroke-miterlimit="10"/><path fill="none" stroke="black" paint-order="fill stroke markers" d=" M 308 217 L 308 213" stroke-linejoin="bevel" stroke-miterlimit="10"/><path fill="none" stroke="black" paint-order="fill stroke markers" d=" M 332 217 L 332 213" stroke-linejoin="bevel" stroke-miterlimit="10"/><path fill="none" stroke="black" paint-order="fill stroke markers" d=" M 356 217 L 356 213" stroke-linejoin="bevel" stroke-miterlimit="10"/><path fill="none" stroke="black" paint-order="fill stroke markers" d=" M 380 217 L 380 213" stroke-linejoin="bevel" stroke-miterlimit="10"/><path fill="none" stroke="black" paint-order="fill stroke markers" d=" M 404 217 L 404 213" stroke-linejoin="bevel" stroke-miterlimit="10"/><path fill="none" stroke="black" paint-order="fill stroke markers" d=" M 428 217 L 428 213" stroke-linejoin="bevel" stroke-miterlimit="10"/><path fill="none" stroke="black" paint-order="fill stroke markers" d=" M 452 217 L 452 213" stroke-linejoin="bevel" stroke-miterlimit="10"/><path fill="none" stroke="black" paint-order="fill stroke markers" d=" M 476 217 L 476 213" stroke-linejoin="bevel" stroke-miterlimit="10"/><path fill="none" stroke="black" paint-order="fill stroke markers" d=" M 501 217 L 501 213" stroke-linejoin="bevel" stroke-miterlimit="10"/><path fill="none" stroke="black" paint-order="fill stroke markers" d=" M 525 217 L 525 213" stroke-linejoin="bevel" stroke-miterlimit="10"/><path fill="none" stroke="black" paint-order="fill stroke markers" d=" M 549 217 L 549 213" stroke-linejoin="bevel" stroke-miterlimit="10"/><path fill="none" stroke="black" paint-order="fill stroke markers" d=" M 573 217 L 573 213" stroke-linejoin="bevel" stroke-miterlimit="10"/><path fill="none" stroke="black" paint-order="fill stroke markers" d=" M 597 217 L 597 213" stroke-linejoin="bevel" stroke-miterlimit="10"/><path fill="none" stroke="black" paint-order="fill stroke markers" d=" M 621 217 L 621 213" stroke-linejoin="bevel" stroke-miterlimit="10"/><path fill="none" stroke="black" paint-order="fill stroke markers" d=" M 645 217 L 645 213" stroke-linejoin="bevel" stroke-miterlimit="10"/><path fill="" stroke="black" paint-order="fill stroke markers" d=" M 669 217 L 669 213" stroke-linejoin="bevel" stroke-miterlimit="10"/><g transform="translate(91,224) rotate(0,0,0)"><text fill="" stroke="none" font-family="helvetica" font-size="8pt" font-style="normal" font-weight="normal" text-decoration="normal" x="0" y="0" text-anchor="middle" dominant-baseline="hanging">0</text><g transform="rotate(0,0,0) translate(-91,-224) translate(211,224) rotate(0,0,0)"><text fill="" stroke="none" font-family="helvetica" font-size="8pt" font-style="normal" font-weight="normal" text-decoration="normal" x="0" y="0" text-anchor="middle" dominant-baseline="hanging">5</text><g transform="rotate(0,0,0) translate(-211,-224) translate(332,224) rotate(0,0,0)"><text fill="" stroke="none" font-family="helvetica" font-size="8pt" font-style="normal" font-weight="normal" text-decoration="normal" x="0" y="0" text-anchor="middle" dominant-baseline="hanging">10</text><g transform="rotate(0,0,0) translate(-332,-224) translate(452,224) rotate(0,0,0)"><text fill="" stroke="none" font-family="helvetica" font-size="8pt" font-style="normal" font-weight="normal" text-decoration="normal" x="0" y="0" text-anchor="middle" dominant-baseline="hanging">15</text><g transform="rotate(0,0,0) translate(-452,-224) translate(573,224) rotate(0,0,0)"><text fill="" stroke="none" font-family="helvetica" font-size="8pt" font-style="normal" font-weight="normal" text-decoration="normal" x="0" y="0" text-anchor="middle" dominant-baseline="hanging">20</text><g transform="rotate(0,0,0) translate(-573,-224) translate(368,238) rotate(0,0,0)"><text fill="" stroke="none" font-family="helvetica" font-size="10pt" font-style="italic" font-weight="normal" text-decoration="normal" x="0" y="0" text-anchor="middle" dominant-baseline="hanging">Hour of the day</text><g transform="rotate(0,0,0) translate(-368,-238)"/></g></g></g></g></g></g></g></g><g><g fill="#444444"><path fill="none" stroke="black" paint-order="fill stroke markers" d=" M 63 213 L 63 30" stroke-linejoin="bevel" stroke-miterlimit="10"/><path fill="none" stroke="black" paint-order="fill stroke markers" d=" M 57 194 L 65 194" stroke-linejoin="bevel" stroke-miterlimit="10"/><path fill="none" stroke="black" paint-order="fill stroke markers" d=" M 57 155 L 65 155" stroke-linejoin="bevel" stroke-miterlimit="10"/><path fill="none" stroke="black" paint-order="fill stroke markers" d=" M 57 115 L 65 115" stroke-linejoin="bevel" stroke-miterlimit="10"/><path fill="none" stroke="black" paint-order="fill stroke markers" d=" M 57 75 L 65 75" stroke-linejoin="bevel" stroke-miterlimit="10"/><path fill="none" stroke="black" paint-order="fill stroke markers" d=" M 57 36 L 65 36" stroke-linejoin="bevel" stroke-miterlimit="10"/><path fill="none" stroke="black" paint-order="fill stroke markers" d=" M 59 202 L 63 202" stroke-linejoin="bevel" stroke-miterlimit="10"/><path fill="none" stroke="black" paint-order="fill stroke markers" d=" M 59 210 L 63 210" stroke-linejoin="bevel" stroke-miterlimit="10"/><path fill="none" stroke="black" paint-order="fill stroke markers" d=" M 59 194 L 63 194" stroke-linejoin="bevel" stroke-miterlimit="10"/><path fill="none" stroke="black" paint-order="fill stroke markers" d=" M 59 187 L 63 187" stroke-linejoin="bevel" stroke-miterlimit="10"/><path fill="none" stroke="black" paint-order="fill stroke markers" d=" M 59 179 L 63 179" stroke-linejoin="bevel" stroke-miterlimit="10"/><path fill="none" stroke="black" paint-order="fill stroke markers" d=" M 59 171 L 63 171" stroke-linejoin="bevel" stroke-miterlimit="10"/><path fill="none" stroke="black" paint-order="fill stroke markers" d=" M 59 163 L 63 163" stroke-linejoin="bevel" stroke-miterlimit="10"/><path fill="none" stroke="black" paint-order="fill stroke markers" d=" M 59 155 L 63 155" stroke-linejoin="bevel" stroke-miterlimit="10"/><path fill="none" stroke="black" paint-order="fill stroke markers" d=" M 59 147 L 63 147" stroke-linejoin="bevel" stroke-miterlimit="10"/><path fill="none" stroke="black" paint-order="fill stroke markers" d=" M 59 139 L 63 139" stroke-linejoin="bevel" stroke-miterlimit="10"/><path fill="none" stroke="black" paint-order="fill stroke markers" d=" M 59 131 L 63 131" stroke-linejoin="bevel" stroke-miterlimit="10"/><path fill="none" stroke="black" paint-order="fill stroke markers" d=" M 59 123 L 63 123" stroke-linejoin="bevel" stroke-miterlimit="10"/><path fill="none" stroke="black" paint-order="fill stroke markers" d=" M 59 115 L 63 115" stroke-linejoin="bevel" stroke-miterlimit="10"/><path fill="none" stroke="black" paint-order="fill stroke markers" d=" M 59 107 L 63 107" stroke-linejoin="bevel" stroke-miterlimit="10"/><path fill="none" stroke="black" paint-order="fill stroke markers" d=" M 59 99 L 63 99" stroke-linejoin="bevel" stroke-miterlimit="10"/><path fill="none" stroke="black" paint-order="fill stroke markers" d=" M 59 91 L 63 91" stroke-linejoin="bevel" stroke-miterlimit="10"/><path fill="none" stroke="black" paint-order="fill stroke markers" d=" M 59 83 L 63 83" stroke-linejoin="bevel" stroke-miterlimit="10"/><path fill="none" stroke="black" paint-order="fill stroke markers" d=" M 59 75 L 63 75" stroke-linejoin="bevel" stroke-miterlimit="10"/><path fill="none" stroke="black" paint-order="fill stroke markers" d=" M 59 68 L 63 68" stroke-linejoin="bevel" stroke-miterlimit="10"/><path fill="none" stroke="black" paint-order="fill stroke markers" d=" M 59 60 L 63 60" stroke-linejoin="bevel" stroke-miterlimit="10"/><path fill="none" stroke="black" paint-order="fill stroke markers" d=" M 59 52 L 63 52" stroke-linejoin="bevel" stroke-miterlimit="10"/><path fill="none" stroke="black" paint-order="fill stroke markers" d=" M 59 44 L 63 44" stroke-linejoin="bevel" stroke-miterlimit="10"/><path fill="" stroke="black" paint-order="fill stroke markers" d=" M 59 36 L 63 36" stroke-linejoin="bevel" stroke-miterlimit="10"/><g transform="translate(52,194) rotate(0,0,0)"><text fill="" stroke="none" font-family="helvetica" font-size="8pt" font-style="normal" font-weight="normal" text-decoration="normal" x="0" y="0" text-anchor="end" dominant-baseline="central">10000</text><g transform="rotate(0,0,0) translate(-52,-194) translate(52,155) rotate(0,0,0)"><text fill="" stroke="none" font-family="helvetica" font-size="8pt" font-style="normal" font-weight="normal" text-decoration="normal" x="0" y="0" text-anchor="end" dominant-baseline="central">20000</text><g transform="rotate(0,0,0) translate(-52,-155) translate(52,115) rotate(0,0,0)"><text fill="" stroke="none" font-family="helvetica" font-size="8pt" font-style="normal" font-weight="normal" text-decoration="normal" x="0" y="0" text-anchor="end" dominant-baseline="central">30000</text><g transform="rotate(0,0,0) translate(-52,-115) translate(52,75) rotate(0,0,0)"><text fill="" stroke="none" font-family="helvetica" font-size="8pt" font-style="normal" font-weight="normal" text-decoration="normal" x="0" y="0" text-anchor="end" dominant-baseline="central">40000</text><g transform="rotate(0,0,0) translate(-52,-75) translate(52,36) rotate(0,0,0)"><text fill="" stroke="none" font-family="helvetica" font-size="8pt" font-style="normal" font-weight="normal" text-decoration="normal" x="0" y="0" text-anchor="end" dominant-baseline="central">50000</text><g transform="rotate(0,0,0) translate(-52,-36) translate(11,122) rotate(-90,0,0)"><text fill="" stroke="none" font-family="helvetica" font-size="10pt" font-style="italic" font-weight="normal" text-decoration="normal" x="0" y="0" text-anchor="middle" dominant-baseline="alphabetic">Number of trips</text><g transform="rotate(90,0,0) translate(-11,-122)"/></g></g></g></g></g></g></g></g><g clip-path="url(#sxpWQQMoCnaa)"><g/></g></g></g></svg>