<svg version="1.1" xmlns="http://www.w3.org/2000/svg" xmlns:xlink="http://www.w3.org/1999/xlink" width="800" height="250" style="width: 800px; height: 250px;"><defs><clipPath id="zuobCvLexZFh"><path fill="none" stroke="none" d=" M 63 30 L 673 30 L 673 213 L 63 213 L 63 30 Z"/></clipPath><clipPath id="MPOUUFlGcauB"><path fill="none" stroke="none" d=" M 63 30 L 673 30 L 673 213 L 63 213 L 63 30 Z"/></clipPath><clipPath id="vQUqQRIteooU"><path fill="none" stroke="none" d=" M 63 30 L 673 30 L 673 213 L 63 213 L 63 30 Z"/></clipPath><clipPath id="SToRXlbXNPDP"><path fill="none" stroke="none" d=" M 63 30 L 673 30 L 673 213 L 63 213 L 63 30 Z"/></clipPath><clipPath id="gogPTFPVxCrl"><path fill="none" stroke="none" d=" M 63 30 L 673 30 L 673 213 L 63 213 L 63 30 Z"/></clipPath><clipPath id="KCyDTqgJkpRp"><path fill="none" stroke="none" d=" M 63 30 L 673 30 L 673 213 L 63 213 L 63 30 Z"/></clipPath><clipPath id="MltgnEibnGqv"><path fill="none" stroke="none" d=" M 63 30 L 673 30 L 673 213 L 63 213 L 63 30 Z"/></clipPath><clipPath id="nnlCNNvOINvn"><path fill="none" stroke="none" d=" M 63 30 L 673 30 L 673 213 L 63 213 L 63 30 Z"/></clipPath><clipPath id="xBeHmQTNyfVJ"><path fill="none" stroke="none" d=" M 63 30 L 673 30 L 673 213 L 63 213 L 63 30 Z"/></clipPath></defs><g><g/><g/><g/><g transform="scale(1,1) translate(0.5,0.5)"><rect fill="#FFFFFF" stroke="none" x="0" y="0" width="800" height="250"/><rect fill="#ffffff" stroke="none" x="0" y="0" width="800" height="250"/><rect fill="#FFFFFF" stroke="none" x="63" y="30" width="610" height="183"/><rect fill="#ffffff" stroke="none" x="63" y="30" width="610" height="183"/><g><rect fill="none" stroke="#e5e5e5" x="63" y="30" width="610" height="183" stroke-linejoin="bevel" stroke-miterlimit="10"/></g><g clip-path="url(#zuobCvLexZFh)"><g><g><path fill="none" stroke="#e5e5e5" paint-order="fill stroke markers" d=" M 91 213 L 91 30" stroke-linejoin="bevel" stroke-miterlimit="10"/><path fill="none" stroke="#e5e5e5" paint-order="fill stroke markers" d=" M 211 213 L 211 30" stroke-linejoin="bevel" stroke-miterlimit="10"/><path fill="none" stroke="#e5e5e5" paint-order="fill stroke markers" d=" M 332 213 L 332 30" stroke-linejoin="bevel" stroke-miterlimit="10"/><path fill="none" stroke="#e5e5e5" paint-order="fill stroke markers" d=" M 452 213 L 452 30" stroke-linejoin="bevel" stroke-miterlimit="10"/><path fill="none" stroke="#e5e5e5" paint-order="fill stroke markers" d=" M 573 213 L 573 30" stroke-linejoin="bevel" stroke-miterlimit="10"/></g></g></g><g clip-path="url(#MPOUUFlGcauB)"><g><g><path fill="none" stroke="#e5e5e5" paint-order="fill stroke markers" d=" M 63 208 L 673 208" stroke-linejoin="bevel" stroke-miterlimit="10"/><path fill="none" stroke="#e5e5e5" paint-order="fill stroke markers" d=" M 63 185 L 673 185" stroke-linejoin="bevel" stroke-miterlimit="10"/><path fill="none" stroke="#e5e5e5" paint-order="fill stroke markers" d=" M 63 161 L 673 161" stroke-linejoin="bevel" stroke-miterlimit="10"/><path fill="none" stroke="#e5e5e5" paint-order="fill stroke markers" d=" M 63 138 L 673 138" stroke-linejoin="bevel" stroke-miterlimit="10"/><path fill="none" stroke="#e5e5e5" paint-order="fill stroke markers" d=" M 63 114 L 673 114" stroke-linejoin="bevel" stroke-miterlimit="10"/><path fill="none" stroke="#e5e5e5" paint-order="fill stroke markers" d=" M 63 90 L 673 90" stroke-linejoin="bevel" stroke-miterlimit="10"/><path fill="none" stroke="#e5e5e5" paint-order="fill stroke markers" d=" M 63 67 L 673 67" stroke-linejoin="bevel" stroke-miterlimit="10"/><path fill="none" stroke="#e5e5e5" paint-order="fill stroke markers" d=" M 63 43 L 673 43" stroke-linejoin="bevel" stroke-miterlimit="10"/></g></g></g><g clip-path="url(#vQUqQRIteooU)"><g><g><path fill="none" stroke="none"/><path fill="none" stroke="#3288bd" paint-order="fill stroke markers" d=" M 90.72727272727273 133.66315626451913 L 114.83794466403162 156.454313148521 L 138.94861660079053 174.99426978472974 L 163.05928853754943 189.82623509369677 L 187.1699604743083 201.18638686696607 L 211.2806324110672 204.6818181818182 L 235.39130434782612 172.33726962985907 L 259.501976284585 130.47475607867432 L 283.6126482213439 109.36046151463529 L 307.7233201581028 110.1870837850395 L 331.8339920948617 112.45439058386249 L 355.94466403162056 106.23110577667649 L 380.0553359683795 98.92140312838782 L 404.1660079051384 99.51184760724797 L 428.27667984189725 91.55265603221312 L 452.3873517786562 91.81245160291158 L 476.49802371541506 106.39643023075733 L 500.60869565217394 83.97134892364878 L 524.7193675889329 61.95957875174233 L 548.8300395256917 65.3369211708224 L 572.9407114624506 75.56341954468022 L 597.0513833992095 80.6058153941459 L 621.1620553359684 87.5848691342729 L 645.2727272727274 111.09636828248414" stroke-linejoin="bevel" stroke-miterlimit="10" stroke-width="5" stroke-opacity="0.8"/></g></g></g><g clip-path="url(#SToRXlbXNPDP)"><g><g><path fill="none" stroke="none"/><path fill="none" stroke="#99d594" paint-order="fill stroke markers" d=" M 90.72727272727273 132.3051339631408 L 114.83794466403162 161.40223788136905 L 138.94861660079053 179.55250116153013 L 163.05928853754943 194.52617314542357 L 187.1699604743083 203.47731144494347 L 211.2806324110672 204.17403592999844 L 235.39130434782612 170.5777450828558 L 259.501976284585 127.80594703422643 L 283.6126482213439 100.91710546693511 L 307.7233201581028 100.24399876103456 L 331.8339920948617 105.64066129781634 L 355.94466403162056 100.36208765680658 L 380.0553359683795 92.16671829022766 L 404.1660079051384 91.49361158432711 L 428.27667984189725 87.65572247173611 L 452.3873517786562 90.44262041195603 L 476.49802371541506 106.18387021836767 L 500.60869565217394 80.72390428991793 L 524.7193675889329 49.53662691652474 L 548.8300395256917 55.72448505497911 L 572.9407114624506 70.24941923493884 L 597.0513833992095 70.85167260337622 L 621.1620553359684 77.03953074183059 L 645.2727272727274 101.6374477311445" stroke-linejoin="bevel" stroke-miterlimit="10" stroke-width="5" stroke-opacity="0.8"/></g></g></g><g clip-path="url(#gogPTFPVxCrl)"><g><g><path fill="none" stroke="none"/><path fill="none" stroke="#e6f598" paint-order="fill stroke markers" d=" M 90.72727272727273 125.84567136441073 L 114.83794466403162 155.97014867585568 L 138.94861660079053 180.67434567136442 L 163.05928853754943 190.60562180579217 L 187.1699604743083 199.74570233854732 L 211.2806324110672 200.4306179340251 L 235.39130434782612 161.78012234783955 L 259.501976284585 113.63527954158279 L 283.6126482213439 89.89941149140469 L 307.7233201581028 93.11142945640393 L 331.8339920948617 96.05184296112748 L 355.94466403162056 92.70992721077903 L 380.0553359683795 83.82964224872234 L 404.1660079051384 84.3964689484281 L 428.27667984189725 78.9761886324919 L 452.3873517786562 84.0894378194208 L 476.49802371541506 97.50433637912346 L 500.60869565217394 72.17426823602295 L 524.7193675889329 38.31818181818184 L 548.8300395256917 40.183986371379916 L 572.9407114624506 53.752400495586215 L 597.0513833992095 55.181276134427776 L 621.1620553359684 66.28163233699863 L 645.2727272727274 88.29340250890507" stroke-linejoin="bevel" stroke-miterlimit="10" stroke-width="5" stroke-opacity="0.8"/></g></g></g><g clip-path="url(#KCyDTqgJkpRp)"><g><g><path fill="none" stroke="none"/><path fill="none" stroke="#fee08b" paint-order="fill stroke markers" d=" M 90.72727272727273 123.56655567601054 L 114.83794466403162 152.42748180269476 L 138.94861660079053 172.66791853802076 L 163.05928853754943 188.4918305714728 L 187.1699604743083 201.30447576273812 L 211.2806324110672 202.7923958494657 L 235.39130434782612 165.8659981415518 L 259.501976284585 118.59501316400807 L 283.6126482213439 97.10283413349853 L 307.7233201581028 92.70992721077903 L 331.8339920948617 98.20106086417843 L 355.94466403162056 93.69006504568688 L 380.0553359683795 86.87633575964071 L 404.1660079051384 89.568762583243 L 428.27667984189725 82.69598884931085 L 452.3873517786562 87.77381136750816 L 476.49802371541506 103.9992256465851 L 500.60869565217394 78.16137525166488 L 524.7193675889329 51.178062567755944 L 548.8300395256917 46.466315626451944 L 572.9407114624506 54.80339166795727 L 597.0513833992095 58.78298745547471 L 621.1620553359684 64.9944633730835 L 645.2727272727274 84.38466005885087" stroke-linejoin="bevel" stroke-miterlimit="10" stroke-width="5" stroke-opacity="0.8"/></g></g></g><g clip-path="url(#MltgnEibnGqv)"><g><g><path fill="none" stroke="none"/><path fill="none" stroke="#fc8d59" paint-order="fill stroke markers" d=" M 90.72727272727273 124.02710236952146 L 114.83794466403162 153.7146507666099 L 138.94861660079053 174.5101053120644 L 163.05928853754943 188.98780393371536 L 187.1699604743083 198.30501781012853 L 211.2806324110672 200.79669351091837 L 235.39130434782612 163.97657580919932 L 259.501976284585 120.18921325693047 L 283.6126482213439 100.20857209230294 L 307.7233201581028 96.20535852563111 L 331.8339920948617 100.09048319653093 L 355.94466403162056 91.85968716122039 L 380.0553359683795 86.68739352640546 L 404.1660079051384 86.68739352640546 L 428.27667984189725 79.54301533219763 L 452.3873517786562 87.1951757782252 L 476.49802371541506 103.5386789530742 L 500.60869565217394 78.51564193898096 L 524.7193675889329 55.78352950286512 L 548.8300395256917 53.53984048319654 L 572.9407114624506 64.13241443394767 L 597.0513833992095 62.85705435960975 L 621.1620553359684 71.86723710701565 L 645.2727272727274 91.17477156574262" stroke-linejoin="bevel" stroke-miterlimit="10" stroke-width="5" stroke-opacity="0.8"/></g></g></g><g clip-path="url(#nnlCNNvOINvn)"><g><g><path fill="none" stroke="none"/><path fill="none" stroke="#d53e4f" paint-order="fill stroke markers" d=" M 90.72727272727273 123.97986681121264 L 114.83794466403162 156.73772649837386 L 138.94861660079053 179.4698389344897 L 163.05928853754943 193.00282638996438 L 187.1699604743083 201.6823602292086 L 211.2806324110672 202.15471581229673 L 235.39130434782612 165.02756698157037 L 259.501976284585 124.91276908781168 L 283.6126482213439 102.87738113675084 L 307.7233201581028 100.70454545454547 L 331.8339920948617 107.01049248877189 L 355.94466403162056 98.70884311599815 L 380.0553359683795 94.9654251200248 L 404.1660079051384 96.51238965463838 L 428.27667984189725 94.45764286820506 L 452.3873517786562 102.86557224717362 L 476.49802371541506 115.09958184915597 L 500.60869565217394 95.46139848226733 L 524.7193675889329 65.52586340405765 L 548.8300395256917 64.49849001084098 L 572.9407114624506 80.88922874399879 L 597.0513833992095 69.77706365185074 L 621.1620553359684 73.89836611429459 L 645.2727272727274 91.5172293634815" stroke-linejoin="bevel" stroke-miterlimit="10" stroke-width="5" stroke-opacity="0.8"/></g></g></g><g><g/><g><path fill="#ffffff" stroke="#e5e5e5" paint-order="fill stroke markers" d=" M 682.8125 44 L 790.1875 44 L 790.1875 199 L 682.8125 199 L 682.8125 44 Z" fill-opacity="0.95" stroke-linejoin="bevel" stroke-miterlimit="10" stroke-opacity="0.5"/><text fill="#444444" stroke="none" font-family="helvetica" font-size="10pt" font-style="normal" font-weight="normal" text-decoration="normal" x="717.8125" y="64" text-anchor="start" dominant-baseline="central">January</text><g><path fill="none" stroke="#3288bd" paint-order="fill stroke markers" d=" M 692.8125 64 L 712.8125 64" stroke-linejoin="bevel" stroke-miterlimit="10" stroke-width="5" stroke-opacity="0.8"/></g><text fill="#444444" stroke="none" font-family="helvetica" font-size="10pt" font-style="normal" font-weight="normal" text-decoration="normal" x="717.8125" y="87" text-anchor="start" dominant-baseline="central">February</text><g><path fill="none" stroke="#99d594" paint-order="fill stroke markers" d=" M 692.8125 87 L 712.8125 87" stroke-linejoin="bevel" stroke-miterlimit="10" stroke-width="5" stroke-opacity="0.8"/></g><text fill="#444444" stroke="none" font-family="helvetica" font-size="10pt" font-style="normal" font-weight="normal" text-decoration="normal" x="717.8125" y="110" text-anchor="start" dominant-baseline="central">March</text><g><path fill="none" stroke="#e6f598" paint-order="fill stroke markers" d=" M 692.8125 110 L 712.8125 110" stroke-linejoin="bevel" stroke-miterlimit="10" stroke-width="5" stroke-opacity="0.8"/></g><text fill="#444444" stroke="none" font-family="helvetica" font-size="10pt" font-style="normal" font-weight="normal" text-decoration="normal" x="717.8125" y="133" text-anchor="start" dominant-baseline="central">April</text><g><path fill="none" stroke="#fee08b" paint-order="fill stroke markers" d=" M 692.8125 133 L 712.8125 133" stroke-linejoin="bevel" stroke-miterlimit="10" stroke-width="5" stroke-opacity="0.8"/></g><text fill="#444444" stroke="none" font-family="helvetica" font-size="10pt" font-style="normal" font-weight="normal" text-decoration="normal" x="717.8125" y="156" text-anchor="start" dominant-baseline="central">May</text><g><path fill="none" stroke="#fc8d59" paint-order="fill stroke markers" d=" M 692.8125 156 L 712.8125 156" stroke-linejoin="bevel" stroke-miterlimit="10" stroke-width="5" stroke-opacity="0.8"/></g><text fill="#444444" stroke="none" font-family="helvetica" font-size="10pt" font-style="normal" font-weight="normal" text-decoration="normal" x="717.8125" y="179" text-anchor="start" dominant-baseline="central">June</text><g><path fill="none" stroke="#d53e4f" paint-order="fill stroke markers" d=" M 692.8125 179 L 712.8125 179" stroke-linejoin="bevel" stroke-miterlimit="10" stroke-width="5" stroke-opacity="0.8"/></g></g></g><g><g fill="#444444"><path fill="" stroke="none" d=""/><g transform="translate(63,17)"><path fill="none" stroke="none"/><text fill="" stroke="none" font-family="helvetica" font-size="10pt" font-style="normal" font-weight="bold" text-decoration="normal" x="0" y="0" text-anchor="start" dominant-baseline="text-after-edge">Number of trips by hour and month</text></g></g></g><g/><g><g fill="#444444"><path fill="none" stroke="black" paint-order="fill stroke markers" d=" M 63 213 L 673 213" stroke-linejoin="bevel" stroke-miterlimit="10"/><path fill="none" stroke="black" paint-order="fill stroke markers" d=" M 91 219 L 91 211" stroke-linejoin="bevel" stroke-miterlimit="10"/><path fill="none" stroke="black" paint-order="fill stroke markers" d=" M 211 219 L 211 211" stroke-linejoin="bevel" stroke-miterlimit="10"/><path fill="none" stroke="black" paint-order="fill stroke markers" d=" M 332 219 L 332 211" stroke-linejoin="bevel" stroke-miterlimit="10"/><path fill="none" stroke="black" paint-order="fill stroke markers" d=" M 452 219 L 452 211" stroke-linejoin="bevel" stroke-miterlimit="10"/><path fill="none" stroke="black" paint-order="fill stroke markers" d=" M 573 219 L 573 211" stroke-linejoin="bevel" stroke-miterlimit="10"/><path fill="none" stroke="black" paint-order="fill stroke markers" d=" M 67 217 L 67 213" stroke-linejoin="bevel" stroke-miterlimit="10"/><path fill="none" stroke="black" paint-order="fill stroke markers" d=" M 91 217 L 91 213" stroke-linejoin="bevel" stroke-miterlimit="10"/><path fill="none" stroke="black" paint-order="fill stroke markers" d=" M 115 217 L 115 213" stroke-linejoin="bevel" stroke-miterlimit="10"/><path fill="none" stroke="black" paint-order="fill stroke markers" d=" M 139 217 L 139 213" stroke-linejoin="bevel" stroke-miterlimit="10"/><path fill="none" stroke="black" paint-order="fill stroke markers" d=" M 163 217 L 163 213" stroke-linejoin="bevel" stroke-miterlimit="10"/><path fill="none" stroke="black" paint-order="fill stroke markers" d=" M 187 217 L 187 213" stroke-linejoin="bevel" stroke-miterlimit="10"/><path fill="none" stroke="black" paint-order="fill stroke markers" d=" M 211 217 L 211 213" stroke-linejoin="bevel" stroke-miterlimit="10"/><path fill="none" stroke="black" paint-order="fill stroke markers" d=" M 235 217 L 235 213" stroke-linejoin="bevel" stroke-miterlimit="10"/><path fill="none" stroke="black" paint-order="fill stroke markers" d=" M 260 217 L 260 213" stroke-linejoin="bevel" stroke-miterlimit="10"/><path fill="none" stroke="black" paint-order="fill stroke markers" d=" M 284 217 L 284 213" stroke-linejoin="bevel" stroke-miterlimit="10"/><path fill="none" stroke="black" paint-order="fill stroke markers" d=" M 308 217 L 308 213" stroke-linejoin="bevel" stroke-miterlimit="10"/><path fill="none" stroke="black" paint-order="fill stroke markers" d=" M 332 217 L 332 213" stroke-linejoin="bevel" stroke-miterlimit="10"/><path fill="none" stroke="black" paint-order="fill stroke markers" d=" M 356 217 L 356 213" stroke-linejoin="bevel" stroke-miterlimit="10"/><path fill="none" stroke="black" paint-order="fill stroke markers" d=" M 380 217 L 380 213" stroke-linejoin="bevel" stroke-miterlimit="10"/><path fill="none" stroke="black" paint-order="fill stroke markers" d=" M 404 217 L 404 213" stroke-linejoin="bevel" stroke-miterlimit="10"/><path fill="none" stroke="black" paint-order="fill stroke markers" d=" M 428 217 L 428 213" stroke-linejoin="bevel" stroke-miterlimit="10"/><path fill="none" stroke="black" paint-order="fill stroke markers" d=" M 452 217 L 452 213" stroke-linejoin="bevel" stroke-miterlimit="10"/><path fill="none" stroke="black" paint-order="fill stroke markers" d=" M 476 217 L 476 213" stroke-linejoin="bevel" stroke-miterlimit="10"/><path fill="none" stroke="black" paint-order="fill stroke markers" d=" M 501 217 L 501 213" stroke-linejoin="bevel" stroke-miterlimit="10"/><path fill="none" stroke="black" paint-order="fill stroke markers" d=" M 525 217 L 525 213" stroke-linejoin="bevel" stroke-miterlimit="10"/><path fill="none" stroke="black" paint-order="fill stroke markers" d=" M 549 217 L 549 213" stroke-linejoin="bevel" stroke-miterlimit="10"/><path fill="none" stroke="black" paint-order="fill stroke markers" d=" M 573 217 L 573 213" stroke-linejoin="bevel" stroke-miterlimit="10"/><path fill="none" stroke="black" paint-order="fill stroke markers" d=" M 597 217 L 597 213" stroke-linejoin="bevel" stroke-miterlimit="10"/><path fill="none" stroke="black" paint-order="fill stroke markers" d=" M 621 217 L 621 213" stroke-linejoin="bevel" stroke-miterlimit="10"/><path fill="none" stroke="black" paint-order="fill stroke markers" d=" M 645 217 L 645 213" stroke-linejoin="bevel" stroke-miterlimit="10"/><path fill="" stroke="black" paint-order="fill stroke markers" d=" M 669 217 L 669 213" stroke-linejoin="bevel" stroke-miterlimit="10"/><g transform="translate(91,224) rotate(0,0,0)"><text fill="" stroke="none" font-family="helvetica" font-size="8pt" font-style="normal" font-weight="normal" text-decoration="normal" x="0" y="0" text-anchor="middle" dominant-baseline="hanging">0</text><g transform="rotate(0,0,0) translate(-91,-224) translate(211,224) rotate(0,0,0)"><text fill="" stroke="none" font-family="helvetica" font-size="8pt" font-style="normal" font-weight="normal" text-decoration="normal" x="0" y="0" text-anchor="middle" dominant-baseline="hanging">5</text><g transform="rotate(0,0,0) translate(-211,-224) translate(332,224) rotate(0,0,0)"><text fill="" stroke="none" font-family="helvetica" font-size="8pt" font-style="normal" font-weight="normal" text-decoration="normal" x="0" y="0" text-anchor="middle" dominant-baseline="hanging">10</text><g transform="rotate(0,0,0) translate(-332,-224) translate(452,224) rotate(0,0,0)"><text fill="" stroke="none" font-family="helvetica" font-size="8pt" font-style="normal" font-weight="normal" text-decoration="normal" x="0" y="0" text-anchor="middle" dominant-baseline="hanging">15</text><g transform="rotate(0,0,0) translate(-452,-224) translate(573,224) rotate(0,0,0)"><text fill="" stroke="none" font-family="helvetica" font-size="8pt" font-style="normal" font-weight="normal" text-decoration="normal" x="0" y="0" text-anchor="middle" dominant-baseline="hanging">20</text><g transform="rotate(0,0,0) translate(-573,-224) translate(368,238) rotate(0,0,0)"><text fill="" stroke="none" font-family="helvetica" font-size="10pt" font-style="italic" font-weight="normal" text-decoration="normal" x="0" y="0" text-anchor="middle" dominant-baseline="hanging">Hour of the day</text><g transform="rotate(0,0,0) translate(-368,-238)"/></g></g></g></g></g></g></g></g><g><g fill="#444444"><path fill="none" stroke="black" paint-order="fill stroke markers" d=" M 63 213 L 63 30" stroke-linejoin="bevel" stroke-miterlimit="10"/><path fill="none" stroke="black" paint-order="fill stroke markers" d=" M 57 208 L 65 208" stroke-linejoin="bevel" stroke-miterlimit="10"/><path fill="none" stroke="black" paint-order="fill stroke markers" d=" M 57 185 L 65 185" stroke-linejoin="bevel" stroke-miterlimit="10"/><path fill="none" stroke="black" paint-order="fill stroke markers" d=" M 57 161 L 65 161" stroke-linejoin="bevel" stroke-miterlimit="10"/><path fill="none" stroke="black" paint-order="fill stroke markers" d=" M 57 138 L 65 138" stroke-linejoin="bevel" stroke-miterlimit="10"/><path fill="none" stroke="black" paint-order="fill stroke markers" d=" M 57 114 L 65 114" stroke-linejoin="bevel" stroke-miterlimit="10"/><path fill="none" stroke="black" paint-order="fill stroke markers" d=" M 57 90 L 65 90" stroke-linejoin="bevel" stroke-miterlimit="10"/><path fill="none" stroke="black" paint-order="fill stroke markers" d=" M 57 67 L 65 67" stroke-linejoin="bevel" stroke-miterlimit="10"/><path fill="none" stroke="black" paint-order="fill stroke markers" d=" M 57 43 L 65 43" stroke-linejoin="bevel" stroke-miterlimit="10"/><path fill="none" stroke="black" paint-order="fill stroke markers" d=" M 59 208 L 63 208" stroke-linejoin="bevel" stroke-miterlimit="10"/><path fill="none" stroke="black" paint-order="fill stroke markers" d=" M 59 204 L 63 204" stroke-linejoin="bevel" stroke-miterlimit="10"/><path fill="none" stroke="black" paint-order="fill stroke markers" d=" M 59 199 L 63 199" stroke-linejoin="bevel" stroke-miterlimit="10"/><path fill="none" stroke="black" paint-order="fill stroke markers" d=" M 59 194 L 63 194" stroke-linejoin="bevel" stroke-miterlimit="10"/><path fill="none" stroke="black" paint-order="fill stroke markers" d=" M 59 190 L 63 190" stroke-linejoin="bevel" stroke-miterlimit="10"/><path fill="none" stroke="black" paint-order="fill stroke markers" d=" M 59 185 L 63 185" stroke-linejoin="bevel" stroke-miterlimit="10"/><path fill="none" stroke="black" paint-order="fill stroke markers" d=" M 59 180 L 63 180" stroke-linejoin="bevel" stroke-miterlimit="10"/><path fill="none" stroke="black" paint-order="fill stroke markers" d=" M 59 175 L 63 175" stroke-linejoin="bevel" stroke-miterlimit="10"/><path fill="none" stroke="black" paint-order="fill stroke markers" d=" M 59 171 L 63 171" stroke-linejoin="bevel" stroke-miterlimit="10"/><path fill="none" stroke="black" paint-order="fill stroke markers" d=" M 59 166 L 63 166" stroke-linejoin="bevel" stroke-miterlimit="10"/><path fill="none" stroke="black" paint-order="fill stroke markers" d=" M 59 161 L 63 161" stroke-linejoin="bevel" stroke-miterlimit="10"/><path fill="none" stroke="black" paint-order="fill stroke markers" d=" M 59 156 L 63 156" stroke-linejoin="bevel" stroke-miterlimit="10"/><path fill="none" stroke="black" paint-order="fill stroke markers" d=" M 59 152 L 63 152" stroke-linejoin="bevel" stroke-miterlimit="10"/><path fill="none" stroke="black" paint-order="fill stroke markers" d=" M 59 147 L 63 147" stroke-linejoin="bevel" stroke-miterlimit="10"/><path fill="none" stroke="black" paint-order="fill stroke markers" d=" M 59 142 L 63 142" stroke-linejoin="bevel" stroke-miterlimit="10"/><path fill="none" stroke="black" paint-order="fill stroke markers" d=" M 59 138 L 63 138" stroke-linejoin="bevel" stroke-miterlimit="10"/><path fill="none" stroke="black" paint-order="fill stroke markers" d=" M 59 133 L 63 133" stroke-linejoin="bevel" stroke-miterlimit="10"/><path fill="none" stroke="black" paint-order="fill stroke markers" d=" M 59 128 L 63 128" stroke-linejoin="bevel" stroke-miterlimit="10"/><path fill="none" stroke="black" paint-order="fill stroke markers" d=" M 59 123 L 63 123" stroke-linejoin="bevel" stroke-miterlimit="10"/><path fill="none" stroke="black" paint-order="fill stroke markers" d=" M 59 119 L 63 119" stroke-linejoin="bevel" stroke-miterlimit="10"/><path fill="none" stroke="black" paint-order="fill stroke markers" d=" M 59 114 L 63 114" stroke-linejoin="bevel" stroke-miterlimit="10"/><path fill="none" stroke="black" paint-order="fill stroke markers" d=" M 59 109 L 63 109" stroke-linejoin="bevel" stroke-miterlimit="10"/><path fill="none" stroke="black" paint-order="fill stroke markers" d=" M 59 104 L 63 104" stroke-linejoin="bevel" stroke-miterlimit="10"/><path fill="none" stroke="black" paint-order="fill stroke markers" d=" M 59 100 L 63 100" stroke-linejoin="bevel" stroke-miterlimit="10"/><path fill="none" stroke="black" paint-order="fill stroke markers" d=" M 59 95 L 63 95" stroke-linejoin="bevel" stroke-miterlimit="10"/><path fill="none" stroke="black" paint-order="fill stroke markers" d=" M 59 90 L 63 90" stroke-linejoin="bevel" stroke-miterlimit="10"/><path fill="none" stroke="black" paint-order="fill stroke markers" d=" M 59 86 L 63 86" stroke-linejoin="bevel" stroke-miterlimit="10"/><path fill="none" stroke="black" paint-order="fill stroke markers" d=" M 59 81 L 63 81" stroke-linejoin="bevel" stroke-miterlimit="10"/><path fill="none" stroke="black" paint-order="fill stroke markers" d=" M 59 76 L 63 76" stroke-linejoin="bevel" stroke-miterlimit="10"/><path fill="none" stroke="black" paint-order="fill stroke markers" d=" M 59 71 L 63 71" stroke-linejoin="bevel" stroke-miterlimit="10"/><path fill="none" stroke="black" paint-order="fill stroke markers" d=" M 59 67 L 63 67" stroke-linejoin="bevel" stroke-miterlimit="10"/><path fill="none" stroke="black" paint-order="fill stroke markers" d=" M 59 62 L 63 62" stroke-linejoin="bevel" stroke-miterlimit="10"/><path fill="none" stroke="black" paint-order="fill stroke markers" d=" M 59 57 L 63 57" stroke-linejoin="bevel" stroke-miterlimit="10"/><path fill="none" stroke="black" paint-order="fill stroke markers" d=" M 59 53 L 63 53" stroke-linejoin="bevel" stroke-miterlimit="10"/><path fill="none" stroke="black" paint-order="fill stroke markers" d=" M 59 48 L 63 48" stroke-linejoin="bevel" stroke-miterlimit="10"/><path fill="none" stroke="black" paint-order="fill stroke markers" d=" M 59 43 L 63 43" stroke-linejoin="bevel" stroke-miterlimit="10"/><path fill="none" stroke="black" paint-order="fill stroke markers" d=" M 59 38 L 63 38" stroke-linejoin="bevel" stroke-miterlimit="10"/><path fill="" stroke="black" paint-order="fill stroke markers" d=" M 59 34 L 63 34" stroke-linejoin="bevel" stroke-miterlimit="10"/><g transform="translate(52,208) rotate(0,0,0)"><text fill="" stroke="none" font-family="helvetica" font-size="8pt" font-style="normal" font-weight="normal" text-decoration="normal" x="0" y="0" text-anchor="end" dominant-baseline="central">2000</text><g transform="rotate(0,0,0) translate(-52,-208) translate(52,185) rotate(0,0,0)"><text fill="" stroke="none" font-family="helvetica" font-size="8pt" font-style="normal" font-weight="normal" text-decoration="normal" x="0" y="0" text-anchor="end" dominant-baseline="central">4000</text><g transform="rotate(0,0,0) translate(-52,-185) translate(52,161) rotate(0,0,0)"><text fill="" stroke="none" font-family="helvetica" font-size="8pt" font-style="normal" font-weight="normal" text-decoration="normal" x="0" y="0" text-anchor="end" dominant-baseline="central">6000</text><g transform="rotate(0,0,0) translate(-52,-161) translate(52,138) rotate(0,0,0)"><text fill="" stroke="none" font-family="helvetica" font-size="8pt" font-style="normal" font-weight="normal" text-decoration="normal" x="0" y="0" text-anchor="end" dominant-baseline="central">8000</text><g transform="rotate(0,0,0) translate(-52,-138) translate(52,114) rotate(0,0,0)"><text fill="" stroke="none" font-family="helvetica" font-size="8pt" font-style="normal" font-weight="normal" text-decoration="normal" x="0" y="0" text-anchor="end" dominant-baseline="central">10000</text><g transform="rotate(0,0,0) translate(-52,-114) translate(52,90) rotate(0,0,0)"><text fill="" stroke="none" font-family="helvetica" font-size="8pt" font-style="normal" font-weight="normal" text-decoration="normal" x="0" y="0" text-anchor="end" dominant-baseline="central">12000</text><g transform="rotate(0,0,0) translate(-52,-90) translate(52,67) rotate(0,0,0)"><text fill="" stroke="none" font-family="helvetica" font-size="8pt" font-style="normal" font-weight="normal" text-decoration="normal" x="0" y="0" text-anchor="end" dominant-baseline="central">14000</text><g transform="rotate(0,0,0) translate(-52,-67) translate(52,43) rotate(0,0,0)"><text fill="" stroke="none" font-family="helvetica" font-size="8pt" font-style="normal" font-weight="normal" text-decoration="normal" x="0" y="0" text-anchor="end" dominant-baseline="central">16000</text><g transform="rotate(0,0,0) translate(-52,-43) translate(11,122) rotate(-90,0,0)"><text fill="" stroke="none" font-family="helvetica" font-size="10pt" font-style="italic" font-weight="normal" text-decoration="normal" x="0" y="0" text-anchor="middle" dominant-baseline="alphabetic">Number of trips</text><g transform="rotate(90,0,0) translate(-11,-122)"/></g></g></g></g></g></g></g></g></g></g></g><g clip-path="url(#xBeHmQTNyfVJ)"><g/></g></g></g></svg>